<?xml version="1.0" encoding="utf-8"?>
<!DOCTYPE svg PUBLIC "-//W3C//DTD SVG 1.1//EN" "http://www.w3.org/Graphics/SVG/1.1/DTD/svg11.dtd">
<svg version="1.1" id="Layer_1" xmlns="http://www.w3.org/2000/svg" xmlns:xlink="http://www.w3.org/1999/xlink" x="0px" y="0px" opacity="0.1"
	 viewBox="0 0 1773.4807 1597.115" enable-background="new 0 0 1773.4807 1597.115" xml:space="preserve">
<g>
	<g>
		<title>Layer 1</title>
		<g id="layer1_28_">
			<path id="path7_28_" fill="#FF0000" stroke="#FF0000" stroke-width="1.1752" d="M286.6081,114.5829
				c-74.858,0-135.6123,65.6078-135.6123,146.446c0,164.4534,153.6184,207.5717,258.299,370.1521
				c98.9679-161.5829,258.2991-210.9488,258.2991-370.1521c0-80.8382-60.7542-146.446-135.6123-146.446
				c-54.2991,0-101.033,34.6228-122.6868,84.4353C387.6412,149.2057,340.9073,114.5829,286.6081,114.5829z"/>
		</g>
	</g>
</g>
<g>
	<g>
		<title>Layer 1</title>
		<g id="layer1_27_">
			<path id="path7_27_" fill="#FF0000" stroke="#FF0000" stroke-width="1.1752" d="M763.7742,921.7192
				c-71.7874,0-130.0496,62.9167-130.0496,140.439c0,157.7076,147.3172,199.0574,247.7039,354.9689
				c94.9083-154.955,247.704-202.2959,247.704-354.9689c0-77.5223-58.2622-140.439-130.0497-140.439
				c-52.0718,0-96.8887,33.2026-117.6543,80.9719C860.663,954.9219,815.8461,921.7192,763.7742,921.7192z"/>
		</g>
	</g>
</g>
<g>
	<g>
		<title>Layer 1</title>
		<g id="layer1_26_">
			<path id="path7_26_" fill="#FF0000" stroke="#FF0000" stroke-width="1.1752" d="M1236.1969,253.2867
				c-71.7069,0-129.9038,62.8461-129.9038,140.2814c0,157.5308,147.152,198.834,247.426,354.5707
				c94.8019-154.7811,247.4261-202.069,247.4261-354.5707c0-77.4353-58.1968-140.2814-129.9038-140.2814
				c-52.0133,0-96.78,33.1654-117.5223,80.881C1332.9769,286.4521,1288.2103,253.2867,1236.1969,253.2867z"/>
		</g>
	</g>
</g>
<g>
	<g>
		<title>Layer 1</title>
		<g id="layer1_25_">
			<path id="path7_25_" fill="#FF0000" stroke="#FF0000" stroke-width="1.1752" d="M736.7079,366.6401
				c-72.748,0-131.7899,63.7586-131.7899,142.3182c0,159.818,149.2885,201.721,251.0186,359.7188
				c96.1783-157.0284,251.0185-205.0029,251.0185-359.7188c0-78.5596-59.0417-142.3182-131.7899-142.3182
				c-52.7686,0-98.1852,33.6469-119.2286,82.0553C834.8932,400.287,789.4766,366.6401,736.7079,366.6401z"/>
		</g>
	</g>
</g>
<g>
	<g>
		<title>Layer 1</title>
		<g id="layer1_24_">
			<path id="path7_24_" fill="#FF0000" stroke="#FF0000" stroke-width="1.1752" d="M262.8269,693.2533
				c-49.8419,0-90.2932,43.6829-90.2932,97.5065c0,109.4961,102.282,138.2051,171.9804,246.4542
				c65.8947-107.5849,171.9804-140.4537,171.9804-246.4542c0-53.8236-40.4513-97.5065-90.2932-97.5065
				c-36.1534,0-67.2697,23.0525-81.6872,56.2186C330.0967,716.3058,298.9803,693.2533,262.8269,693.2533z"/>
		</g>
	</g>
</g>
<g>
	<g>
		<title>Layer 1</title>
		<g id="layer1_23_">
			<path id="path7_23_" fill="#FF0000" stroke="#FF0000" stroke-width="1.1752" d="M1158.9647,751.7927
				c-47.9639,0-86.891,42.037-86.891,93.8325c0,105.3704,98.4281,132.9976,165.5002,237.168
				c63.4117-103.5312,165.5002-135.1615,165.5002-237.168c0-51.7955-38.9271-93.8325-86.8911-93.8325
				c-34.791,0-64.735,22.1839-78.6091,54.1003C1223.6997,773.9766,1193.7559,751.7927,1158.9647,751.7927z"/>
		</g>
	</g>
</g>
<g>
	<g>
		<title>Layer 1</title>
		<g id="layer1_22_">
			<path id="path7_22_" fill="#FF0000" stroke="#FF0000" stroke-width="1.0695" d="M1180.276,50.9447
				c-29.3149,0-53.1069,25.6926-53.1069,57.3495c0,64.4014,60.1583,81.2869,101.1522,144.9548
				c38.7567-63.2773,101.1522-82.6094,101.1522-144.9548c0-31.6569-23.792-57.3495-53.1071-57.3495
				c-21.2639,0-39.5654,13.5586-48.0452,33.0656C1219.8416,64.5033,1201.54,50.9447,1180.276,50.9447z"/>
		</g>
	</g>
</g>
<g>
	<g>
		<title>Layer 1</title>
		<g id="layer1_21_">
			<path id="path7_21_" fill="#FF0000" stroke="#FF0000" stroke-width="1.1752" d="M571.7027,789.6739
				c-32.3194,0-58.5496,28.3257-58.5496,63.227c0,71.0015,66.3235,89.6175,111.5186,159.8103
				c42.7286-69.7621,111.5186-91.0755,111.5186-159.8103c0-34.9013-26.2302-63.227-58.5496-63.227
				c-23.4432,0-43.6202,14.9482-52.9691,36.4543C615.3229,804.6221,595.1459,789.6739,571.7027,789.6739z"/>
		</g>
	</g>
</g>
<g>
	<g>
		<title>Layer 1</title>
		<g id="layer1_20_">
			<path id="path7_20_" fill="#FF0000" stroke="#FF0000" stroke-width="1.0298" d="M1002.7092,170.0614
				c-28.721,0-52.0308,25.172-52.0308,56.1874c0,63.0964,58.9393,79.6397,99.1025,142.0175
				c37.9713-61.9951,99.1024-80.9354,99.1024-142.0175c0-31.0154-23.3098-56.1874-52.0309-56.1874
				c-20.833,0-38.7637,13.2838-47.0715,32.3956C1041.4729,183.3452,1023.5424,170.0614,1002.7092,170.0614z"/>
		</g>
	</g>
</g>
<g>
	<g>
		<title>Layer 1</title>
		<g id="layer1_19_">
			<path id="path7_19_" fill="#FF0000" stroke="#FF0000" stroke-width="1.1752" d="M484.3773,1013.7081
				c-30.1,0-54.529,26.3806-54.529,58.8851c0,66.126,61.7692,83.4636,103.8607,148.8363
				c39.7945-64.9717,103.8608-84.8214,103.8608-148.8363c0-32.5045-24.429-58.8851-54.5291-58.8851
				c-21.8334,0-40.6248,13.9216-49.3317,33.951C525.0022,1027.6298,506.2107,1013.7081,484.3773,1013.7081z"/>
		</g>
	</g>
</g>
<g>
	<g>
		<title>Layer 1</title>
		<g id="layer1_18_">
			<path id="path7_18_" fill="#FF0000" stroke="#FF0000" stroke-width="1.1752" d="M1518.3123,807.5687
				c-23.2906,0-42.1931,20.4125-42.1931,45.5637c0,51.1664,47.7953,64.5818,80.3646,115.1655
				c30.7919-50.2733,80.3646-65.6325,80.3646-115.1655c0-25.1512-18.9025-45.5637-42.1931-45.5637
				c-16.894,0-31.4343,10.7722-38.1715,26.2703C1549.7467,818.3408,1535.2063,807.5687,1518.3123,807.5687z"/>
		</g>
	</g>
</g>
<g>
	<g>
		<title>Layer 1</title>
		<g id="layer1_35_">
			<path id="path7_35_" fill="#FF0000" stroke="#FF0000" stroke-width="1.1752" d="M1437.9476,667.7742
				c-23.2906,0-42.1931,20.4126-42.1931,45.5638c0,51.1664,47.7954,64.5818,80.3646,115.1654
				c30.7919-50.2733,80.3646-65.6325,80.3646-115.1654c0-25.1512-18.9025-45.5638-42.1931-45.5638
				c-16.894,0-31.4343,10.7722-38.1715,26.2704C1469.3821,678.5464,1454.8417,667.7742,1437.9476,667.7742z"/>
		</g>
	</g>
</g>
<g>
	<g>
		<title>Layer 1</title>
		<g id="layer1_17_">
			<path id="path7_17_" fill="#FF0000" stroke="#FF0000" stroke-width="1.1752" d="M1615.2201,262.5033
				c-21.3135,0-38.6113,18.6798-38.6113,41.696c0,46.823,43.738,59.0996,73.5426,105.3894
				c28.1781-46.0057,73.5427-60.0612,73.5427-105.3894c0-23.0162-17.2979-41.696-38.6115-41.696
				c-15.46,0-28.766,9.8578-34.9313,24.0403C1643.9862,272.3611,1630.6802,262.5033,1615.2201,262.5033z"/>
		</g>
	</g>
</g>
<g>
	<g>
		<title>Layer 1</title>
		<g id="layer1_41_">
			<path id="path7_41_" fill="#FF0000" stroke="#FF0000" stroke-width="1.1752" d="M957.2898,769.9548
				c-21.3135,0-38.6114,18.6798-38.6114,41.696c0,46.8231,43.7381,59.0997,73.5427,105.3894
				c28.178-46.0057,73.5427-60.0612,73.5427-105.3894c0-23.0162-17.298-41.696-38.6115-41.696
				c-15.46,0-28.7661,9.8578-34.9313,24.0403C986.0558,779.8126,972.7498,769.9548,957.2898,769.9548z"/>
		</g>
	</g>
</g>
<g>
	<g>
		<title>Layer 1</title>
		<g id="layer1_16_">
			<path id="path7_16_" fill="#FF0000" stroke="#FF0000" stroke-width="1.1752" d="M489.8364,610.4579
				c-21.2717,0-38.5356,18.6432-38.5356,41.6142c0,46.7311,43.6523,58.9836,73.3984,105.1826
				c28.1227-45.9155,73.3984-59.9434,73.3984-105.1826c0-22.971-17.2639-41.6142-38.5356-41.6142
				c-15.4297,0-28.7096,9.8384-34.8627,23.9932C518.546,620.2964,505.2661,610.4579,489.8364,610.4579z"/>
		</g>
	</g>
</g>
<g>
	<g>
		<title>Layer 1</title>
		<g id="layer1_15_">
			<path id="path7_15_" fill="#FF0000" stroke="#FF0000" stroke-width="0.9911" d="M1495.5789,116.7001
				c-21.8405,0-39.566,19.1417-39.566,42.727c0,47.9808,44.8196,60.5609,75.3611,107.9953
				c28.8748-47.1433,75.3611-61.5462,75.3611-107.9953c0-23.5853-17.7256-42.727-39.5662-42.727
				c-15.8422,0-29.4773,10.1015-35.7949,24.6348C1525.0563,126.8016,1511.4211,116.7001,1495.5789,116.7001z"/>
		</g>
	</g>
</g>
<g>
	<g>
		<title>Layer 1</title>
		<g id="layer1_14_">
			<path id="path7_14_" fill="#FF0000" stroke="#FF0000" stroke-width="1.1752" d="M731.8644,213.1929
				c-22.0921,0-40.022,19.3622-40.022,43.2192c0,48.5336,45.336,61.2587,76.2294,109.2395
				c29.2075-47.6864,76.2294-62.2553,76.2294-109.2395c0-23.857-17.9299-43.2192-40.022-43.2192
				c-16.0248,0-29.8169,10.2179-36.2074,24.9186C761.6813,223.4108,747.8892,213.1929,731.8644,213.1929z"/>
		</g>
	</g>
</g>
<g>
	<g>
		<title>Layer 1</title>
		<g id="layer1_13_">
			<path id="path7_13_" fill="#FF0000" stroke="#FF0000" stroke-width="1.1752" d="M1595.0194,633.8577
				c-21.2717,0-38.5356,18.6431-38.5356,41.6142c0,46.7311,43.6523,58.9836,73.3984,105.1826
				c28.1227-45.9155,73.3983-59.9434,73.3983-105.1826c0-22.9711-17.2639-41.6142-38.5356-41.6142
				c-15.4297,0-28.7096,9.8384-34.8627,23.9932C1623.729,643.6961,1610.4491,633.8577,1595.0194,633.8577z"/>
		</g>
	</g>
</g>
<g>
	<g>
		<title>Layer 1</title>
		<g id="layer1_12_">
			<path id="path7_12_" fill="#FF0000" stroke="#FF0000" stroke-width="1.1752" d="M111.3062,571.9446
				c-24.2168,0-43.871,21.2244-43.871,47.3758c0,53.2012,49.6961,67.1501,83.5606,119.7454
				c32.0164-52.2726,83.5606-68.2426,83.5606-119.7454c0-26.1514-19.6542-47.3758-43.871-47.3758
				c-17.5659,0-32.6845,11.2006-39.6896,27.3151C143.9908,583.1452,128.8722,571.9446,111.3062,571.9446z"/>
		</g>
	</g>
</g>
<g>
	<g>
		<title>Layer 1</title>
		<g id="layer1_11_">
			<path id="path7_11_" fill="#FF0000" stroke="#FF0000" stroke-width="1.1752" d="M1167.2754,1080.1505
				c-21.2716,0-38.5356,18.6432-38.5356,41.6141c0,46.7312,43.6523,58.9838,73.3984,105.1826
				c28.1227-45.9154,73.3983-59.9432,73.3983-105.1826c0-22.9709-17.2639-41.6141-38.5356-41.6141
				c-15.4296,0-28.7096,9.8384-34.8627,23.9932C1195.9851,1089.9889,1182.7051,1080.1505,1167.2754,1080.1505z"/>
		</g>
	</g>
</g>
<g>
	<g>
		<title>Layer 1</title>
		<g id="layer1_32_">
			<path id="path7_32_" fill="#FF0000" stroke="#FF0000" stroke-width="1.1752" d="M999.9181,1305.8655
				c-21.2717,0-38.5356,18.6431-38.5356,41.6141c0,46.7312,43.6523,58.9836,73.3984,105.1826
				c28.1227-45.9155,73.3983-59.9434,73.3983-105.1826c0-22.9711-17.2639-41.6141-38.5356-41.6141
				c-15.4297,0-28.7096,9.8384-34.8627,23.9932C1028.6277,1315.7039,1015.3478,1305.8655,999.9181,1305.8655z"/>
		</g>
	</g>
</g>
<g>
	<g>
		<title>Layer 1</title>
		<g id="layer1_10_">
			<path id="path7_10_" fill="#FF0000" stroke="#FF0000" stroke-width="1.1752" d="M1419.2675,933.7257
				c-14.9979,0-27.1702,13.1447-27.1702,29.3408c0,32.9486,30.7778,41.5875,51.7507,74.1608
				c19.8285-32.3735,51.7509-42.2641,51.7509-74.1608c0-16.1961-12.1722-29.3408-27.1702-29.3408
				c-10.879,0-20.2423,6.9367-24.5807,16.9167C1439.5098,940.6624,1430.1465,933.7257,1419.2675,933.7257z"/>
		</g>
	</g>
</g>
<g>
	<g>
		<title>Layer 1</title>
		<g id="layer1_29_">
			<path id="path7_29_" fill="#FF0000" stroke="#FF0000" stroke-width="1.1752" d="M1197.7407,655.5052
				c-14.998,0-27.1703,13.1447-27.1703,29.3408c0,32.9486,30.7778,41.5875,51.7509,74.1608
				c19.8284-32.3735,51.7507-42.264,51.7507-74.1608c0-16.1962-12.1722-29.3408-27.1702-29.3408
				c-10.8789,0-20.2422,6.9368-24.5806,16.9168C1217.9829,662.442,1208.6196,655.5052,1197.7407,655.5052z"/>
		</g>
	</g>
</g>
<g>
	<g>
		<title>Layer 1</title>
		<g id="layer1_43_">
			<path id="path7_43_" fill="#FF0000" stroke="#FF0000" stroke-width="1.1752" d="M861.9001,284.2952
				c-14.998,0-27.1702,13.1447-27.1702,29.3408c0,32.9486,30.7778,41.5875,51.7508,74.1608
				c19.8284-32.3735,51.7508-42.2641,51.7508-74.1608c0-16.1961-12.1722-29.3408-27.1702-29.3408
				c-10.879,0-20.2422,6.9368-24.5806,16.9168C882.1423,291.232,872.7791,284.2952,861.9001,284.2952z"/>
		</g>
	</g>
</g>
<g>
	<g>
		<title>Layer 1</title>
		<g id="layer1_31_">
			<path id="path7_31_" fill="#FF0000" stroke="#FF0000" stroke-width="1.1752" d="M1120.3027,579.4302
				c-14.998,0-27.1703,13.1447-27.1703,29.3408c0,32.9486,30.7778,41.5875,51.7509,74.1608
				c19.8284-32.3735,51.7507-42.264,51.7507-74.1608c0-16.1961-12.1722-29.3408-27.1702-29.3408
				c-10.879,0-20.2422,6.9368-24.5806,16.9168C1140.5449,586.367,1131.1816,579.4302,1120.3027,579.4302z"/>
		</g>
	</g>
</g>
<g>
	<g>
		<title>Layer 1</title>
		<g id="layer1_44_">
			<path id="path7_44_" fill="#FF0000" stroke="#FF0000" stroke-width="1.1752" d="M618.3027,687.4302
				c-14.998,0-27.1702,13.1447-27.1702,29.3408c0,32.9486,30.7778,41.5875,51.7508,74.1608
				c19.8284-32.3735,51.7509-42.264,51.7509-74.1608c0-16.1961-12.1722-29.3408-27.1703-29.3408
				c-10.8789,0-20.2422,6.9368-24.5806,16.9168C638.5449,694.367,629.1816,687.4302,618.3027,687.4302z"/>
		</g>
	</g>
</g>
<g>
	<g>
		<title>Layer 1</title>
		<g id="layer1_30_">
			<path id="path7_30_" fill="#FF0000" stroke="#FF0000" stroke-width="1.1752" d="M1047.4932,675.4532
				c-14.998,0-27.1703,13.1447-27.1703,29.3408c0,32.9486,30.7778,41.5875,51.7509,74.1608
				c19.8284-32.3735,51.7507-42.2641,51.7507-74.1608c0-16.1962-12.1722-29.3408-27.1702-29.3408
				c-10.879,0-20.2422,6.9368-24.5806,16.9168C1067.7354,682.39,1058.3721,675.4532,1047.4932,675.4532z"/>
		</g>
	</g>
</g>
<g>
	<g>
		<title>Layer 1</title>
		<g id="layer1_45_">
			<path id="path7_45_" fill="#FF0000" stroke="#FF0000" stroke-width="0.8573" d="M858.1428,875.4532
				c-10.9406,0-19.8199,9.5887-19.8199,21.4033c0,24.0351,22.4516,30.3369,37.7508,54.0983
				c14.4643-23.6156,37.7508-30.8305,37.7508-54.0983c0-11.8146-8.8793-21.4033-19.8199-21.4033
				c-7.9359,0-14.7661,5.0602-17.9308,12.3403C872.9089,880.5134,866.0787,875.4532,858.1428,875.4532z"/>
		</g>
	</g>
</g>
<g>
	<g>
		<title>Layer 1</title>
		<g id="layer1_46_">
			<path id="path7_46_" fill="#FF0000" stroke="#FF0000" stroke-width="0.8573" d="M770.1428,843.4532
				c-10.9406,0-19.8199,9.5887-19.8199,21.4033c0,24.0351,22.4516,30.3369,37.7508,54.0983
				c14.4643-23.6156,37.7508-30.8305,37.7508-54.0983c0-11.8146-8.8793-21.4033-19.8199-21.4033
				c-7.9359,0-14.7661,5.0602-17.9308,12.3403C784.9089,848.5134,778.0787,843.4532,770.1428,843.4532z"/>
		</g>
	</g>
</g>
<g>
	<g>
		<title>Layer 1</title>
		<g id="layer1_47_">
			<path id="path7_47_" fill="#FF0000" stroke="#FF0000" stroke-width="0.6756" d="M703.9426,745.4532
				c-8.6221,0-15.6198,7.5567-15.6198,16.8676c0,18.9417,17.6937,23.908,29.7508,42.634
				c11.3991-18.6111,29.7508-24.2971,29.7508-42.634c0-9.3109-6.9976-16.8676-15.6198-16.8676
				c-6.2542,0-11.637,3.9879-14.131,9.7252C715.5796,749.4411,710.1968,745.4532,703.9426,745.4532z"/>
		</g>
	</g>
</g>
<g>
	<g>
		<title>Layer 1</title>
		<g id="layer1_48_">
			<path id="path7_48_" fill="#FF0000" stroke="#FF0000" stroke-width="0.6756" d="M1694.9426,578.4532
				c-8.6221,0-15.6198,7.5567-15.6198,16.8676c0,18.9417,17.6937,23.908,29.7509,42.634
				c11.399-18.6111,29.7507-24.2971,29.7507-42.634c0-9.3109-6.9977-16.8676-15.6198-16.8676c-6.2542,0-11.637,3.9879-14.131,9.7252
				C1706.5796,582.4411,1701.1968,578.4532,1694.9426,578.4532z"/>
		</g>
	</g>
</g>
<g>
	<g>
		<title>Layer 1</title>
		<g id="layer1_91_">
			<path id="path7_91_" fill="#FF0000" stroke="#FF0000" stroke-width="0.6756" d="M1698.9426,511.4532
				c-8.6221,0-15.6198,7.5567-15.6198,16.8676c0,18.9417,17.6937,23.908,29.7509,42.634
				c11.399-18.6111,29.7507-24.2971,29.7507-42.634c0-9.3109-6.9977-16.8676-15.6198-16.8676c-6.2542,0-11.637,3.9879-14.131,9.7252
				C1710.5796,515.4411,1705.1968,511.4532,1698.9426,511.4532z"/>
		</g>
	</g>
</g>
<g>
	<g>
		<title>Layer 1</title>
		<g id="layer1_49_">
			<path id="path7_49_" fill="#FF0000" stroke="#FF0000" stroke-width="0.6756" d="M1427.9426,847.4532
				c-8.6221,0-15.6198,7.5567-15.6198,16.8676c0,18.9417,17.6937,23.908,29.7509,42.634
				c11.399-18.6111,29.7507-24.2971,29.7507-42.634c0-9.3109-6.9977-16.8676-15.6198-16.8676c-6.2542,0-11.637,3.9879-14.131,9.7252
				C1439.5796,851.4411,1434.1968,847.4532,1427.9426,847.4532z"/>
		</g>
	</g>
</g>
<g>
	<g>
		<title>Layer 1</title>
		<g id="layer1_50_">
			<path id="path7_50_" fill="#FF0000" stroke="#FF0000" stroke-width="0.9936" d="M353.2929,1053.4532
				c-12.6795,0-22.9701,11.1127-22.9701,24.8051c0,27.8552,26.02,35.1586,43.7508,62.6965
				c16.7632-27.3689,43.7508-35.7306,43.7508-62.6965c0-13.6924-10.2906-24.8051-22.9701-24.8051
				c-9.1972,0-17.113,5.8644-20.7808,14.3016C370.406,1059.3176,362.4902,1053.4532,353.2929,1053.4532z"/>
		</g>
	</g>
</g>
<g>
	<g>
		<title>Layer 1</title>
		<g id="layer1_55_">
			<path id="path7_55_" fill="#FF0000" stroke="#FF0000" stroke-width="0.9936" d="M477.2929,921.4532
				c-12.6795,0-22.9701,11.1127-22.9701,24.8051c0,27.8552,26.02,35.1586,43.7508,62.6965
				c16.7632-27.369,43.7508-35.7307,43.7508-62.6965c0-13.6924-10.2905-24.8051-22.97-24.8051
				c-9.1972,0-17.113,5.8644-20.7808,14.3017C494.406,927.3177,486.4902,921.4532,477.2929,921.4532z"/>
		</g>
	</g>
</g>
<g>
	<g>
		<title>Layer 1</title>
		<g id="layer1_51_">
			<path id="path7_51_" fill="#FF0000" stroke="#FF0000" stroke-width="0.8573" d="M112.1428,745.4532
				c-10.9406,0-19.8199,9.5887-19.8199,21.4033c0,24.0351,22.4516,30.3369,37.7508,54.0983
				c14.4643-23.6156,37.7508-30.8305,37.7508-54.0983c0-11.8146-8.8793-21.4033-19.8199-21.4033
				c-7.9359,0-14.7661,5.0602-17.9309,12.3403C126.909,750.5134,120.0787,745.4532,112.1428,745.4532z"/>
		</g>
	</g>
</g>
<g>
	<g>
		<title>Layer 1</title>
		<g id="layer1_56_">
			<path id="path7_56_" fill="#FF0000" stroke="#FF0000" stroke-width="0.5394" d="M154.7925,863.4532
				c-6.8833,0-12.4697,6.0327-12.4697,13.4658c0,15.1216,14.1253,19.0864,23.7508,34.0358
				c9.1002-14.8577,23.7508-19.397,23.7508-34.0358c0-7.4331-5.5864-13.4658-12.4697-13.4658
				c-4.9928,0-9.2901,3.1836-11.2811,7.7639C164.0826,866.6368,159.7854,863.4532,154.7925,863.4532z"/>
		</g>
	</g>
</g>
<g>
	<g>
		<title>Layer 1</title>
		<g id="layer1_57_">
			<path id="path7_57_" fill="#FF0000" stroke="#FF0000" stroke-width="0.5394" d="M194.7925,918.7866
				c-6.8833,0-12.4697,6.0327-12.4697,13.4659c0,15.1216,14.1253,19.0864,23.7508,34.0358
				c9.1002-14.8577,23.7508-19.3969,23.7508-34.0358c0-7.4332-5.5864-13.4659-12.4697-13.4659
				c-4.9928,0-9.2901,3.1836-11.2811,7.7639C204.0826,921.9702,199.7854,918.7866,194.7925,918.7866z"/>
		</g>
	</g>
</g>
<g>
	<g>
		<title>Layer 1</title>
		<g id="layer1_58_">
			<path id="path7_58_" fill="#FF0000" stroke="#FF0000" stroke-width="0.5394" d="M248.7925,972.1199
				c-6.8833,0-12.4697,6.0327-12.4697,13.4658c0,15.1216,14.1253,19.0864,23.7508,34.0358
				c9.1002-14.8577,23.7508-19.3969,23.7508-34.0358c0-7.4332-5.5864-13.4658-12.4697-13.4658
				c-4.9928,0-9.2901,3.1836-11.2812,7.7639C258.0826,975.3035,253.7854,972.1199,248.7925,972.1199z"/>
		</g>
	</g>
</g>
<g>
	<g>
		<title>Layer 1</title>
		<g id="layer1_59_">
			<path id="path7_59_" fill="#FF0000" stroke="#FF0000" stroke-width="0.5394" d="M290.7925,1017.4532
				c-6.8833,0-12.4697,6.0327-12.4697,13.4658c0,15.1216,14.1253,19.0864,23.7508,34.0358
				c9.1002-14.8577,23.7508-19.3969,23.7508-34.0358c0-7.4331-5.5864-13.4658-12.4697-13.4658
				c-4.9928,0-9.2901,3.1836-11.2812,7.7639C300.0826,1020.6368,295.7854,1017.4532,290.7925,1017.4532z"/>
		</g>
	</g>
</g>
<g>
	<g>
		<title>Layer 1</title>
		<g id="layer1_60_">
			<path id="path7_60_" fill="#FF0000" stroke="#FF0000" stroke-width="0.5394" d="M382.7925,1006.1199
				c-6.8833,0-12.4697,6.0327-12.4697,13.4658c0,15.1216,14.1253,19.0864,23.7508,34.0358
				c9.1002-14.8578,23.7508-19.397,23.7508-34.0358c0-7.4332-5.5864-13.4658-12.4697-13.4658
				c-4.9928,0-9.2901,3.1836-11.2812,7.7639C392.0826,1009.3035,387.7854,1006.1199,382.7925,1006.1199z"/>
		</g>
	</g>
</g>
<g>
	<g>
		<title>Layer 1</title>
		<g id="layer1_61_">
			<path id="path7_61_" fill="#FF0000" stroke="#FF0000" stroke-width="0.5394" d="M424.1259,964.1199
				c-6.8832,0-12.4696,6.0327-12.4696,13.4658c0,15.1216,14.1253,19.0864,23.7508,34.0358
				c9.1002-14.8577,23.7508-19.3969,23.7508-34.0358c0-7.4332-5.5864-13.4658-12.4697-13.4658
				c-4.9929,0-9.2901,3.1836-11.2812,7.7639C433.416,967.3035,429.1187,964.1199,424.1259,964.1199z"/>
		</g>
	</g>
</g>
<g>
	<g>
		<title>Layer 1</title>
		<g id="layer1_62_">
			<path id="path7_62_" fill="#FF0000" stroke="#FF0000" stroke-width="0.5394" d="M552.1259,966.1199
				c-6.8832,0-12.4697,6.0327-12.4697,13.4658c0,15.1216,14.1254,19.0864,23.7509,34.0358
				c9.1002-14.8577,23.7508-19.3969,23.7508-34.0358c0-7.4332-5.5864-13.4658-12.4697-13.4658
				c-4.9929,0-9.2901,3.1836-11.2811,7.7639C561.416,969.3035,557.1187,966.1199,552.1259,966.1199z"/>
		</g>
	</g>
</g>
<g>
	<g>
		<title>Layer 1</title>
		<g id="layer1_63_">
			<path id="path7_63_" fill="#FF0000" stroke="#FF0000" stroke-width="0.5394" d="M559.4592,738.1199
				c-6.8833,0-12.4697,6.0327-12.4697,13.4658c0,15.1216,14.1253,19.0864,23.7508,34.0358
				c9.1002-14.8577,23.7508-19.3969,23.7508-34.0358c0-7.4332-5.5864-13.4658-12.4697-13.4658c-4.9929,0-9.29,3.1836-11.2811,7.7639
				C568.7493,741.3035,564.452,738.1199,559.4592,738.1199z"/>
		</g>
	</g>
</g>
<g>
	<g>
		<title>Layer 1</title>
		<g id="layer1_70_">
			<path id="path7_70_" fill="#FF0000" stroke="#FF0000" stroke-width="0.5394" d="M1039.4592,883.1199
				c-6.8833,0-12.4697,6.0327-12.4697,13.4658c0,15.1216,14.1254,19.0864,23.7509,34.0358
				c9.1002-14.8577,23.7509-19.3969,23.7509-34.0358c0-7.4332-5.5864-13.4658-12.4697-13.4658c-4.9928,0-9.29,3.1836-11.2811,7.7639
				C1048.7493,886.3035,1044.452,883.1199,1039.4592,883.1199z"/>
		</g>
	</g>
</g>
<g>
	<g>
		<title>Layer 1</title>
		<g id="layer1_71_">
			<path id="path7_71_" fill="#FF0000" stroke="#FF0000" stroke-width="0.5394" d="M1146.4592,1016.1199
				c-6.8833,0-12.4697,6.0327-12.4697,13.4658c0,15.1217,14.1254,19.0864,23.7509,34.0359
				c9.1002-14.8578,23.7509-19.397,23.7509-34.0359c0-7.4331-5.5864-13.4658-12.4697-13.4658c-4.9928,0-9.29,3.1836-11.2811,7.7639
				C1155.7493,1019.3035,1151.452,1016.1199,1146.4592,1016.1199z"/>
		</g>
	</g>
</g>
<g>
	<g>
		<title>Layer 1</title>
		<g id="layer1_72_">
			<path id="path7_72_" fill="#FF0000" stroke="#FF0000" stroke-width="0.5394" d="M1408.4592,1047.1199
				c-6.8833,0-12.4697,6.0327-12.4697,13.4658c0,15.1217,14.1254,19.0864,23.7509,34.0359
				c9.1002-14.8578,23.7509-19.397,23.7509-34.0359c0-7.4331-5.5864-13.4658-12.4697-13.4658c-4.9928,0-9.29,3.1836-11.2811,7.7639
				C1417.7493,1050.3035,1413.452,1047.1199,1408.4592,1047.1199z"/>
		</g>
	</g>
</g>
<g>
	<g>
		<title>Layer 1</title>
		<g id="layer1_76_">
			<path id="path7_76_" fill="#FF0000" stroke="#FF0000" stroke-width="0.5394" d="M1260.4592,1182.1199
				c-6.8833,0-12.4697,6.0327-12.4697,13.4658c0,15.1217,14.1254,19.0864,23.7509,34.0359
				c9.1002-14.8578,23.7509-19.397,23.7509-34.0359c0-7.4331-5.5864-13.4658-12.4697-13.4658c-4.9928,0-9.29,3.1836-11.2811,7.7639
				C1269.7493,1185.3035,1265.452,1182.1199,1260.4592,1182.1199z"/>
		</g>
	</g>
</g>
<g>
	<g>
		<title>Layer 1</title>
		<g id="layer1_88_">
			<path id="path7_88_" fill="#FF0000" stroke="#FF0000" stroke-width="0.5394" d="M1221.4592,1227.1199
				c-6.8833,0-12.4697,6.0327-12.4697,13.4658c0,15.1217,14.1254,19.0864,23.7509,34.0359
				c9.1002-14.8578,23.7509-19.397,23.7509-34.0359c0-7.4331-5.5864-13.4658-12.4697-13.4658c-4.9928,0-9.29,3.1836-11.2811,7.7639
				C1230.7493,1230.3035,1226.452,1227.1199,1221.4592,1227.1199z"/>
		</g>
	</g>
</g>
<g>
	<g>
		<title>Layer 1</title>
		<g id="layer1_77_">
			<path id="path7_77_" fill="#FF0000" stroke="#FF0000" stroke-width="0.5394" d="M1108.4592,1175.1199
				c-6.8833,0-12.4697,6.0327-12.4697,13.4658c0,15.1217,14.1254,19.0864,23.7509,34.0359
				c9.1002-14.8578,23.7509-19.397,23.7509-34.0359c0-7.4331-5.5864-13.4658-12.4697-13.4658c-4.9928,0-9.29,3.1836-11.2811,7.7639
				C1117.7493,1178.3035,1113.452,1175.1199,1108.4592,1175.1199z"/>
		</g>
	</g>
</g>
<g>
	<g>
		<title>Layer 1</title>
		<g id="layer1_78_">
			<path id="path7_78_" fill="#FF0000" stroke="#FF0000" stroke-width="0.5394" d="M1045.4592,1247.1199
				c-6.8833,0-12.4697,6.0327-12.4697,13.4658c0,15.1217,14.1254,19.0864,23.7509,34.0359
				c9.1002-14.8578,23.7509-19.397,23.7509-34.0359c0-7.4331-5.5864-13.4658-12.4697-13.4658c-4.9928,0-9.29,3.1836-11.2811,7.7639
				C1054.7493,1250.3035,1050.452,1247.1199,1045.4592,1247.1199z"/>
		</g>
	</g>
</g>
<g>
	<g>
		<title>Layer 1</title>
		<g id="layer1_79_">
			<path id="path7_79_" fill="#FF0000" stroke="#FF0000" stroke-width="0.5394" d="M688.4592,1251.1199
				c-6.8833,0-12.4697,6.0327-12.4697,13.4658c0,15.1217,14.1253,19.0864,23.7508,34.0359
				c9.1002-14.8578,23.7508-19.397,23.7508-34.0359c0-7.4331-5.5864-13.4658-12.4697-13.4658c-4.9929,0-9.29,3.1836-11.2811,7.7639
				C697.7493,1254.3035,693.452,1251.1199,688.4592,1251.1199z"/>
		</g>
	</g>
</g>
<g>
	<g>
		<title>Layer 1</title>
		<g id="layer1_80_">
			<path id="path7_80_" fill="#FF0000" stroke="#FF0000" stroke-width="0.5394" d="M629.4592,1314.1199
				c-6.8833,0-12.4697,6.0327-12.4697,13.4658c0,15.1217,14.1253,19.0864,23.7508,34.0359
				c9.1002-14.8578,23.7508-19.397,23.7508-34.0359c0-7.4331-5.5864-13.4658-12.4697-13.4658c-4.9929,0-9.29,3.1836-11.2811,7.7639
				C638.7493,1317.3035,634.452,1314.1199,629.4592,1314.1199z"/>
		</g>
	</g>
</g>
<g>
	<g>
		<title>Layer 1</title>
		<g id="layer1_81_">
			<path id="path7_81_" fill="#FF0000" stroke="#FF0000" stroke-width="0.5394" d="M611.4592,1149.1199
				c-6.8833,0-12.4697,6.0327-12.4697,13.4658c0,15.1217,14.1253,19.0864,23.7508,34.0359
				c9.1002-14.8578,23.7508-19.397,23.7508-34.0359c0-7.4331-5.5864-13.4658-12.4697-13.4658c-4.9929,0-9.29,3.1836-11.2811,7.7639
				C620.7493,1152.3035,616.452,1149.1199,611.4592,1149.1199z"/>
		</g>
	</g>
</g>
<g>
	<g>
		<title>Layer 1</title>
		<g id="layer1_82_">
			<path id="path7_82_" fill="#FF0000" stroke="#FF0000" stroke-width="0.5394" d="M414.4592,1135.1199
				c-6.8832,0-12.4697,6.0327-12.4697,13.4658c0,15.1217,14.1253,19.0864,23.7508,34.0359
				c9.1002-14.8578,23.7508-19.397,23.7508-34.0359c0-7.4331-5.5864-13.4658-12.4697-13.4658
				c-4.9928,0-9.2901,3.1836-11.2811,7.7639C423.7493,1138.3035,419.4521,1135.1199,414.4592,1135.1199z"/>
		</g>
	</g>
</g>
<g>
	<g>
		<title>Layer 1</title>
		<g id="layer1_83_">
			<path id="path7_83_" fill="#FF0000" stroke="#FF0000" stroke-width="0.5394" d="M533.4592,1232.1199
				c-6.8833,0-12.4697,6.0327-12.4697,13.4658c0,15.1217,14.1253,19.0864,23.7508,34.0359
				c9.1002-14.8578,23.7508-19.397,23.7508-34.0359c0-7.4331-5.5864-13.4658-12.4697-13.4658c-4.9929,0-9.29,3.1836-11.2811,7.7639
				C542.7493,1235.3035,538.452,1232.1199,533.4592,1232.1199z"/>
		</g>
	</g>
</g>
<g>
	<g>
		<title>Layer 1</title>
		<g id="layer1_85_">
			<path id="path7_85_" fill="#FF0000" stroke="#FF0000" stroke-width="0.5394" d="M803.4592,1356.1199
				c-6.8833,0-12.4697,6.0327-12.4697,13.4658c0,15.1217,14.1253,19.0864,23.7508,34.0359
				c9.1002-14.8578,23.7508-19.397,23.7508-34.0359c0-7.4331-5.5864-13.4658-12.4697-13.4658c-4.9929,0-9.29,3.1836-11.2811,7.7639
				C812.7493,1359.3035,808.452,1356.1199,803.4592,1356.1199z"/>
		</g>
	</g>
</g>
<g>
	<g>
		<title>Layer 1</title>
		<g id="layer1_86_">
			<path id="path7_86_" fill="#FF0000" stroke="#FF0000" stroke-width="0.5394" d="M873.4592,1523.1199
				c-6.8833,0-12.4697,6.0327-12.4697,13.4658c0,15.1217,14.1253,19.0864,23.7508,34.0359
				c9.1002-14.8578,23.7508-19.397,23.7508-34.0359c0-7.4331-5.5864-13.4658-12.4697-13.4658c-4.9929,0-9.29,3.1836-11.2811,7.7639
				C882.7493,1526.3035,878.452,1523.1199,873.4592,1523.1199z"/>
		</g>
	</g>
</g>
<g>
	<g>
		<title>Layer 1</title>
		<g id="layer1_87_">
			<path id="path7_87_" fill="#FF0000" stroke="#FF0000" stroke-width="0.5394" d="M868.4592,1469.1199
				c-6.8833,0-12.4697,6.0327-12.4697,13.4658c0,15.1217,14.1253,19.0864,23.7508,34.0359
				c9.1002-14.8578,23.7508-19.397,23.7508-34.0359c0-7.4331-5.5864-13.4658-12.4697-13.4658c-4.9929,0-9.29,3.1836-11.2811,7.7639
				C877.7493,1472.3035,873.452,1469.1199,868.4592,1469.1199z"/>
		</g>
	</g>
</g>
<g>
	<g>
		<title>Layer 1</title>
		<g id="layer1_84_">
			<path id="path7_84_" fill="#FF0000" stroke="#FF0000" stroke-width="0.5394" d="M466.4592,1177.1199
				c-6.8832,0-12.4697,6.0327-12.4697,13.4658c0,15.1217,14.1253,19.0864,23.7508,34.0359
				c9.1002-14.8578,23.7508-19.397,23.7508-34.0359c0-7.4331-5.5864-13.4658-12.4697-13.4658
				c-4.9928,0-9.2901,3.1836-11.2811,7.7639C475.7493,1180.3035,471.4521,1177.1199,466.4592,1177.1199z"/>
		</g>
	</g>
</g>
<g>
	<g>
		<title>Layer 1</title>
		<g id="layer1_73_">
			<path id="path7_73_" fill="#FF0000" stroke="#FF0000" stroke-width="0.5394" d="M1507.4592,972.1199
				c-6.8833,0-12.4697,6.0327-12.4697,13.4658c0,15.1216,14.1254,19.0864,23.7509,34.0358
				c9.1002-14.8577,23.7509-19.3969,23.7509-34.0358c0-7.4332-5.5864-13.4658-12.4697-13.4658c-4.9928,0-9.29,3.1836-11.2811,7.7639
				C1516.7493,975.3035,1512.452,972.1199,1507.4592,972.1199z"/>
		</g>
	</g>
</g>
<g>
	<g>
		<title>Layer 1</title>
		<g id="layer1_74_">
			<path id="path7_74_" fill="#FF0000" stroke="#FF0000" stroke-width="0.5394" d="M1563.4592,760.1199
				c-6.8833,0-12.4697,6.0327-12.4697,13.4658c0,15.1216,14.1254,19.0864,23.7509,34.0358
				c9.1002-14.8577,23.7509-19.3969,23.7509-34.0358c0-7.4332-5.5864-13.4658-12.4697-13.4658c-4.9928,0-9.29,3.1836-11.2811,7.7639
				C1572.7493,763.3035,1568.452,760.1199,1563.4592,760.1199z"/>
		</g>
	</g>
</g>
<g>
	<g>
		<title>Layer 1</title>
		<g id="layer1_75_">
			<path id="path7_75_" fill="#FF0000" stroke="#FF0000" stroke-width="0.5394" d="M1639.4592,784.1199
				c-6.8833,0-12.4697,6.0327-12.4697,13.4658c0,15.1216,14.1254,19.0864,23.7509,34.0358
				c9.1002-14.8577,23.7509-19.3969,23.7509-34.0358c0-7.4332-5.5864-13.4658-12.4697-13.4658c-4.9928,0-9.29,3.1836-11.2811,7.7639
				C1648.7493,787.3035,1644.452,784.1199,1639.4592,784.1199z"/>
		</g>
	</g>
</g>
<g>
	<g>
		<title>Layer 1</title>
		<g id="layer1_89_">
			<path id="path7_89_" fill="#FF0000" stroke="#FF0000" stroke-width="0.5394" d="M1484.4592,613.1199
				c-6.8833,0-12.4697,6.0327-12.4697,13.4658c0,15.1216,14.1254,19.0864,23.7509,34.0358
				c9.1002-14.8577,23.7509-19.3969,23.7509-34.0358c0-7.4332-5.5864-13.4658-12.4697-13.4658c-4.9928,0-9.29,3.1836-11.2811,7.7639
				C1493.7493,616.3035,1489.452,613.1199,1484.4592,613.1199z"/>
		</g>
	</g>
</g>
<g>
	<g>
		<title>Layer 1</title>
		<g id="layer1_90_">
			<path id="path7_90_" fill="#FF0000" stroke="#FF0000" stroke-width="0.5394" d="M1538.4592,597.1199
				c-6.8833,0-12.4697,6.0327-12.4697,13.4658c0,15.1216,14.1254,19.0864,23.7509,34.0358
				c9.1002-14.8577,23.7509-19.3969,23.7509-34.0358c0-7.4332-5.5864-13.4658-12.4697-13.4658c-4.9928,0-9.29,3.1836-11.2811,7.7639
				C1547.7493,600.3035,1543.452,597.1199,1538.4592,597.1199z"/>
		</g>
	</g>
</g>
<g>
	<g>
		<title>Layer 1</title>
		<g id="layer1_92_">
			<path id="path7_92_" fill="#FF0000" stroke="#FF0000" stroke-width="0.5394" d="M1641.4592,586.1199
				c-6.8833,0-12.4697,6.0327-12.4697,13.4658c0,15.1216,14.1254,19.0864,23.7509,34.0358
				c9.1002-14.8577,23.7509-19.3969,23.7509-34.0358c0-7.4332-5.5864-13.4658-12.4697-13.4658c-4.9928,0-9.29,3.1836-11.2811,7.7639
				C1650.7493,589.3035,1646.452,586.1199,1641.4592,586.1199z"/>
		</g>
	</g>
</g>
<g>
	<g>
		<title>Layer 1</title>
		<g id="layer1_93_">
			<path id="path7_93_" fill="#FF0000" stroke="#FF0000" stroke-width="0.5394" d="M1600.4592,467.1199
				c-6.8833,0-12.4697,6.0327-12.4697,13.4659c0,15.1216,14.1254,19.0864,23.7509,34.0358
				c9.1002-14.8577,23.7509-19.3969,23.7509-34.0358c0-7.4331-5.5864-13.4659-12.4697-13.4659c-4.9928,0-9.29,3.1836-11.2811,7.7639
				C1609.7493,470.3035,1605.452,467.1199,1600.4592,467.1199z"/>
		</g>
	</g>
</g>
<g>
	<g>
		<title>Layer 1</title>
		<g id="layer1_94_">
			<path id="path7_94_" fill="#FF0000" stroke="#FF0000" stroke-width="0.5394" d="M1704.4592,364.1199
				c-6.8833,0-12.4697,6.0327-12.4697,13.4659c0,15.1216,14.1254,19.0864,23.7509,34.0358
				c9.1002-14.8577,23.7509-19.3969,23.7509-34.0358c0-7.4331-5.5864-13.4659-12.4697-13.4659c-4.9928,0-9.29,3.1836-11.2811,7.7639
				C1713.7493,367.3035,1709.452,364.1199,1704.4592,364.1199z"/>
		</g>
	</g>
</g>
<g>
	<g>
		<title>Layer 1</title>
		<g id="layer1_95_">
			<path id="path7_95_" fill="#FF0000" stroke="#FF0000" stroke-width="0.5394" d="M1643.4592,215.1199
				c-6.8833,0-12.4697,6.0327-12.4697,13.4658c0,15.1216,14.1254,19.0864,23.7509,34.0358
				c9.1002-14.8577,23.7509-19.3969,23.7509-34.0358c0-7.4331-5.5864-13.4658-12.4697-13.4658c-4.9928,0-9.29,3.1836-11.2811,7.7639
				C1652.7493,218.3035,1648.452,215.1199,1643.4592,215.1199z"/>
		</g>
	</g>
</g>
<g>
	<g>
		<title>Layer 1</title>
		<g id="layer1_96_">
			<path id="path7_96_" fill="#FF0000" stroke="#FF0000" stroke-width="0.5394" d="M1586.4592,217.1199
				c-6.8833,0-12.4697,6.0327-12.4697,13.4658c0,15.1216,14.1254,19.0864,23.7509,34.0358
				c9.1002-14.8577,23.7509-19.3969,23.7509-34.0358c0-7.4331-5.5864-13.4658-12.4697-13.4658c-4.9928,0-9.29,3.1836-11.2811,7.7639
				C1595.7493,220.3035,1591.452,217.1199,1586.4592,217.1199z"/>
		</g>
	</g>
</g>
<g>
	<g>
		<title>Layer 1</title>
		<g id="layer1_97_">
			<path id="path7_97_" fill="#FF0000" stroke="#FF0000" stroke-width="0.5394" d="M1427.4592,197.1199
				c-6.8833,0-12.4697,6.0327-12.4697,13.4658c0,15.1216,14.1254,19.0864,23.7509,34.0358
				c9.1002-14.8577,23.7509-19.3969,23.7509-34.0358c0-7.4331-5.5864-13.4658-12.4697-13.4658c-4.9928,0-9.29,3.1836-11.2811,7.7639
				C1436.7493,200.3035,1432.452,197.1199,1427.4592,197.1199z"/>
		</g>
	</g>
</g>
<g>
	<g>
		<title>Layer 1</title>
		<g id="layer1_101_">
			<path id="path7_101_" fill="#FF0000" stroke="#FF0000" stroke-width="0.5394" d="M1269.4592,215.1199
				c-6.8833,0-12.4697,6.0327-12.4697,13.4658c0,15.1216,14.1254,19.0864,23.7509,34.0358
				c9.1002-14.8577,23.7509-19.3969,23.7509-34.0358c0-7.4331-5.5864-13.4658-12.4697-13.4658c-4.9928,0-9.29,3.1836-11.2811,7.7639
				C1278.7493,218.3035,1274.452,215.1199,1269.4592,215.1199z"/>
		</g>
	</g>
</g>
<g>
	<g>
		<title>Layer 1</title>
		<g id="layer1_102_">
			<path id="path7_102_" fill="#FF0000" stroke="#FF0000" stroke-width="0.5394" d="M1028.4592,122.1199
				c-6.8833,0-12.4697,6.0327-12.4697,13.4658c0,15.1216,14.1253,19.0864,23.7508,34.0358
				c9.1002-14.8577,23.7509-19.3969,23.7509-34.0358c0-7.4331-5.5864-13.4658-12.4697-13.4658c-4.9928,0-9.29,3.1836-11.2811,7.7639
				C1037.7493,125.3035,1033.452,122.1199,1028.4592,122.1199z"/>
		</g>
	</g>
</g>
<g>
	<g>
		<title>Layer 1</title>
		<g id="layer1_103_">
			<path id="path7_103_" fill="#FF0000" stroke="#FF0000" stroke-width="0.5394" d="M1086.4592,104.1199
				c-6.8833,0-12.4697,6.0327-12.4697,13.4658c0,15.1216,14.1254,19.0864,23.7509,34.0358
				c9.1002-14.8577,23.7509-19.3969,23.7509-34.0358c0-7.4331-5.5864-13.4658-12.4697-13.4658c-4.9928,0-9.29,3.1836-11.2811,7.7639
				C1095.7493,107.3035,1091.452,104.1199,1086.4592,104.1199z"/>
		</g>
	</g>
</g>
<g>
	<g>
		<title>Layer 1</title>
		<g id="layer1_104_">
			<path id="path7_104_" fill="#FF0000" stroke="#FF0000" stroke-width="0.5394" d="M1162.4592,217.1199
				c-6.8833,0-12.4697,6.0327-12.4697,13.4658c0,15.1216,14.1254,19.0864,23.7509,34.0358
				c9.1002-14.8577,23.7509-19.3969,23.7509-34.0358c0-7.4331-5.5864-13.4658-12.4697-13.4658c-4.9928,0-9.29,3.1836-11.2811,7.7639
				C1171.7493,220.3035,1167.452,217.1199,1162.4592,217.1199z"/>
		</g>
	</g>
</g>
<g>
	<g>
		<title>Layer 1</title>
		<g id="layer1_105_">
			<path id="path7_105_" fill="#FF0000" stroke="#FF0000" stroke-width="0.5394" d="M957.4592,311.1199
				c-6.8833,0-12.4697,6.0327-12.4697,13.4659c0,15.1216,14.1253,19.0864,23.7508,34.0358
				c9.1002-14.8577,23.7508-19.3969,23.7508-34.0358c0-7.4331-5.5864-13.4659-12.4697-13.4659c-4.9929,0-9.29,3.1836-11.2811,7.7639
				C966.7493,314.3035,962.452,311.1199,957.4592,311.1199z"/>
		</g>
	</g>
</g>
<g>
	<g>
		<title>Layer 1</title>
		<g id="layer1_106_">
			<path id="path7_106_" fill="#FF0000" stroke="#FF0000" stroke-width="0.5394" d="M917.4592,240.1199
				c-6.8833,0-12.4697,6.0327-12.4697,13.4658c0,15.1216,14.1253,19.0864,23.7508,34.0358
				c9.1002-14.8577,23.7508-19.3969,23.7508-34.0358c0-7.4331-5.5864-13.4658-12.4697-13.4658c-4.9929,0-9.29,3.1836-11.2811,7.7639
				C926.7493,243.3035,922.452,240.1199,917.4592,240.1199z"/>
		</g>
	</g>
</g>
<g>
	<g>
		<title>Layer 1</title>
		<g id="layer1_107_">
			<path id="path7_107_" fill="#FF0000" stroke="#FF0000" stroke-width="0.5394" d="M750.4592,152.1199
				c-6.8833,0-12.4697,6.0327-12.4697,13.4658c0,15.1216,14.1253,19.0864,23.7508,34.0358
				c9.1002-14.8577,23.7508-19.3969,23.7508-34.0358c0-7.4331-5.5864-13.4658-12.4697-13.4658c-4.9929,0-9.29,3.1836-11.2811,7.7639
				C759.7493,155.3035,755.452,152.1199,750.4592,152.1199z"/>
		</g>
	</g>
</g>
<g>
	<g>
		<title>Layer 1</title>
		<g id="layer1_111_">
			<path id="path7_111_" fill="#FF0000" stroke="#FF0000" stroke-width="0.2669" d="M701.1589,193.1199
				c-3.4055,0-6.1694,2.9847-6.1694,6.6623c0,7.4815,6.9885,9.4431,11.7508,16.8393c4.5023-7.3509,11.7508-9.5967,11.7508-16.8393
				c0-3.6776-2.7639-6.6623-6.1694-6.6623c-2.4702,0-4.5963,1.5751-5.5814,3.8412
				C705.7552,194.695,703.6292,193.1199,701.1589,193.1199z"/>
		</g>
	</g>
</g>
<g>
	<g>
		<title>Layer 1</title>
		<g id="layer1_166_">
			<path id="path7_166_" fill="#FF0000" stroke="#FF0000" stroke-width="0.2669" d="M743.1589,127.1199
				c-3.4055,0-6.1694,2.9847-6.1694,6.6623c0,7.4815,6.9885,9.4431,11.7508,16.8393c4.5023-7.3509,11.7508-9.5967,11.7508-16.8393
				c0-3.6776-2.7639-6.6623-6.1694-6.6623c-2.4702,0-4.5963,1.5751-5.5814,3.8412
				C747.7552,128.695,745.6292,127.1199,743.1589,127.1199z"/>
		</g>
	</g>
</g>
<g>
	<g>
		<title>Layer 1</title>
		<g id="layer1_112_">
			<path id="path7_112_" fill="#FF0000" stroke="#FF0000" stroke-width="0.2669" d="M801.1589,185.1199
				c-3.4055,0-6.1694,2.9847-6.1694,6.6623c0,7.4815,6.9885,9.4431,11.7508,16.8393c4.5023-7.3509,11.7508-9.5967,11.7508-16.8393
				c0-3.6776-2.7639-6.6623-6.1694-6.6623c-2.4702,0-4.5963,1.5751-5.5814,3.8412
				C805.7552,186.695,803.6292,185.1199,801.1589,185.1199z"/>
		</g>
	</g>
</g>
<g>
	<g>
		<title>Layer 1</title>
		<g id="layer1_160_">
			<path id="path7_160_" fill="#FF0000" stroke="#FF0000" stroke-width="0.2669" d="M470.2589,95.7354
				c-3.4055,0-6.1694,2.9847-6.1694,6.6623c0,7.4815,6.9886,9.4431,11.7508,16.8393c4.5023-7.3509,11.7508-9.5967,11.7508-16.8393
				c0-3.6776-2.7639-6.6623-6.1694-6.6623c-2.4702,0-4.5963,1.5751-5.5814,3.8412
				C474.8552,97.3105,472.7291,95.7354,470.2589,95.7354z"/>
		</g>
	</g>
</g>
<g>
	<g>
		<title>Layer 1</title>
		<g id="layer1_161_">
			<path id="path7_161_" fill="#FF0000" stroke="#FF0000" stroke-width="0.2669" d="M540.7554,89.7357
				c-3.4055,0-6.1694,2.9847-6.1694,6.6623c0,7.4815,6.9886,9.4431,11.7509,16.8393c4.5023-7.3509,11.7508-9.5967,11.7508-16.8393
				c0-3.6776-2.7639-6.6623-6.1694-6.6623c-2.4702,0-4.5963,1.5751-5.5814,3.8412
				C545.3517,91.3108,543.2256,89.7357,540.7554,89.7357z"/>
		</g>
	</g>
</g>
<g>
	<g>
		<title>Layer 1</title>
		<g id="layer1_162_">
			<path id="path7_162_" fill="#FF0000" stroke="#FF0000" stroke-width="0.2669" d="M453.7597,37.2383
				c-3.4055,0-6.1694,2.9847-6.1694,6.6623c0,7.4815,6.9886,9.4431,11.7508,16.8393c4.5023-7.3509,11.7508-9.5967,11.7508-16.8393
				c0-3.6776-2.7639-6.6623-6.1694-6.6623c-2.4702,0-4.5963,1.5751-5.5814,3.8412
				C458.356,38.8134,456.2299,37.2383,453.7597,37.2383z"/>
		</g>
	</g>
</g>
<g>
	<g>
		<title>Layer 1</title>
		<g id="layer1_163_">
			<path id="path7_163_" fill="#FF0000" stroke="#FF0000" stroke-width="0.2669" d="M405.7621,35.7384
				c-3.4055,0-6.1694,2.9847-6.1694,6.6623c0,7.4815,6.9886,9.4431,11.7508,16.8393c4.5023-7.3509,11.7508-9.5967,11.7508-16.8393
				c0-3.6776-2.7639-6.6623-6.1694-6.6623c-2.4702,0-4.5963,1.5751-5.5814,3.8412
				C410.3584,37.3135,408.2324,35.7384,405.7621,35.7384z"/>
		</g>
	</g>
</g>
<g>
	<g>
		<title>Layer 1</title>
		<g id="layer1_168_">
			<path id="path7_168_" fill="#FF0000" stroke="#FF0000" stroke-width="0.2669" d="M347.0955,107.0718
				c-3.4055,0-6.1694,2.9847-6.1694,6.6623c0,7.4815,6.9886,9.4431,11.7508,16.8393c4.5023-7.3509,11.7508-9.5967,11.7508-16.8393
				c0-3.6776-2.7639-6.6623-6.1694-6.6623c-2.4702,0-4.5963,1.5751-5.5814,3.8412
				C351.6918,108.6469,349.5657,107.0718,347.0955,107.0718z"/>
		</g>
	</g>
</g>
<g>
	<g>
		<title>Layer 1</title>
		<g id="layer1_169_">
			<path id="path7_169_" fill="#FF0000" stroke="#FF0000" stroke-width="0.2669" d="M276.4288,89.7384
				c-3.4055,0-6.1694,2.9847-6.1694,6.6623c0,7.4815,6.9886,9.4431,11.7508,16.8393c4.5023-7.3509,11.7508-9.5967,11.7508-16.8393
				c0-3.6776-2.7639-6.6623-6.1694-6.6623c-2.4702,0-4.5963,1.5751-5.5814,3.8412
				C281.0251,91.3135,278.899,89.7384,276.4288,89.7384z"/>
		</g>
	</g>
</g>
<g>
	<g>
		<title>Layer 1</title>
		<g id="layer1_170_">
			<path id="path7_170_" fill="#FF0000" stroke="#FF0000" stroke-width="0.2669" d="M245.0955,85.7384
				c-3.4055,0-6.1694,2.9847-6.1694,6.6623c0,7.4815,6.9886,9.4431,11.7508,16.8393c4.5023-7.3509,11.7508-9.5967,11.7508-16.8393
				c0-3.6776-2.7639-6.6623-6.1694-6.6623c-2.4702,0-4.5963,1.5751-5.5814,3.8412
				C249.6918,87.3135,247.5657,85.7384,245.0955,85.7384z"/>
		</g>
	</g>
</g>
<g>
	<g>
		<title>Layer 1</title>
		<g id="layer1_171_">
			<path id="path7_171_" fill="#FF0000" stroke="#FF0000" stroke-width="0.2669" d="M202.4288,113.7384
				c-3.4055,0-6.1694,2.9847-6.1694,6.6623c0,7.4815,6.9886,9.4431,11.7508,16.8393c4.5023-7.3509,11.7508-9.5967,11.7508-16.8393
				c0-3.6776-2.7639-6.6623-6.1694-6.6623c-2.4702,0-4.5963,1.5751-5.5814,3.8412
				C207.0251,115.3135,204.899,113.7384,202.4288,113.7384z"/>
		</g>
	</g>
</g>
<g>
	<g>
		<title>Layer 1</title>
		<g id="layer1_172_">
			<path id="path7_172_" fill="#FF0000" stroke="#FF0000" stroke-width="0.2669" d="M164.4288,151.0718
				c-3.4055,0-6.1694,2.9847-6.1694,6.6623c0,7.4815,6.9886,9.4431,11.7508,16.8393c4.5023-7.3509,11.7508-9.5967,11.7508-16.8393
				c0-3.6776-2.7639-6.6623-6.1694-6.6623c-2.4702,0-4.5963,1.5751-5.5814,3.8412
				C169.0251,152.6469,166.899,151.0718,164.4288,151.0718z"/>
		</g>
	</g>
</g>
<g>
	<g>
		<title>Layer 1</title>
		<g id="layer1_173_">
			<path id="path7_173_" fill="#FF0000" stroke="#FF0000" stroke-width="0.2669" d="M135.0955,190.4051
				c-3.4055,0-6.1694,2.9847-6.1694,6.6623c0,7.4815,6.9886,9.4431,11.7508,16.8393c4.5023-7.3509,11.7508-9.5967,11.7508-16.8393
				c0-3.6776-2.7639-6.6623-6.1694-6.6623c-2.4702,0-4.5963,1.5751-5.5814,3.8412
				C139.6918,191.9802,137.5657,190.4051,135.0955,190.4051z"/>
		</g>
	</g>
</g>
<g>
	<g>
		<title>Layer 1</title>
		<g id="layer1_167_">
			<path id="path7_167_" fill="#FF0000" stroke="#FF0000" stroke-width="0.2669" d="M403.0955,161.0718
				c-3.4055,0-6.1694,2.9847-6.1694,6.6623c0,7.4815,6.9886,9.4431,11.7508,16.8393c4.5023-7.3509,11.7508-9.5967,11.7508-16.8393
				c0-3.6776-2.7639-6.6623-6.1694-6.6623c-2.4702,0-4.5963,1.5751-5.5814,3.8412
				C407.6918,162.6469,405.5657,161.0718,403.0955,161.0718z"/>
		</g>
	</g>
</g>
<g>
	<g>
		<title>Layer 1</title>
		<g id="layer1_164_">
			<path id="path7_164_" fill="#FF0000" stroke="#FF0000" stroke-width="0.2669" d="M637.0955,67.0718
				c-3.4055,0-6.1694,2.9847-6.1694,6.6623c0,7.4815,6.9886,9.4431,11.7508,16.8393c4.5024-7.3509,11.7509-9.5967,11.7509-16.8393
				c0-3.6776-2.7639-6.6623-6.1694-6.6623c-2.4702,0-4.5963,1.5751-5.5814,3.8412
				C641.6918,68.6469,639.5657,67.0718,637.0955,67.0718z"/>
		</g>
	</g>
</g>
<g>
	<g>
		<title>Layer 1</title>
		<g id="layer1_165_">
			<path id="path7_165_" fill="#FF0000" stroke="#FF0000" stroke-width="0.2669" d="M669.0955,77.0718
				c-3.4055,0-6.1694,2.9847-6.1694,6.6623c0,7.4815,6.9886,9.4431,11.7508,16.8393c4.5024-7.3509,11.7509-9.5967,11.7509-16.8393
				c0-3.6776-2.7639-6.6623-6.1694-6.6623c-2.4702,0-4.5963,1.5751-5.5814,3.8412
				C673.6918,78.6469,671.5657,77.0718,669.0955,77.0718z"/>
		</g>
	</g>
</g>
<g>
	<g>
		<title>Layer 1</title>
		<g id="layer1_113_">
			<path id="path7_113_" fill="#FF0000" stroke="#FF0000" stroke-width="0.2669" d="M653.1589,364.1199
				c-3.4055,0-6.1694,2.9847-6.1694,6.6623c0,7.4815,6.9885,9.4431,11.7508,16.8393c4.5023-7.3509,11.7508-9.5967,11.7508-16.8393
				c0-3.6776-2.7639-6.6623-6.1694-6.6623c-2.4702,0-4.5963,1.5751-5.5814,3.8412
				C657.7552,365.695,655.6292,364.1199,653.1589,364.1199z"/>
		</g>
	</g>
</g>
<g>
	<g>
		<title>Layer 1</title>
		<g id="layer1_204_">
			<path id="path7_204_" fill="#FF0000" stroke="#FF0000" stroke-width="0.2669" d="M728.4923,340.1199
				c-3.4055,0-6.1694,2.9847-6.1694,6.6623c0,7.4815,6.9886,9.4431,11.7508,16.8393c4.5024-7.3509,11.7509-9.5967,11.7509-16.8393
				c0-3.6776-2.7639-6.6623-6.1694-6.6623c-2.4702,0-4.5963,1.5751-5.5814,3.8412
				C733.0886,341.695,730.9625,340.1199,728.4923,340.1199z"/>
		</g>
	</g>
</g>
<g>
	<g>
		<title>Layer 1</title>
		<g id="layer1_206_">
			<path id="path7_206_" fill="#FF0000" stroke="#FF0000" stroke-width="0.2669" d="M951.8256,279.4532
				c-3.4055,0-6.1694,2.9847-6.1694,6.6623c0,7.4815,6.9886,9.4431,11.7509,16.8394c4.5023-7.3509,11.7508-9.5967,11.7508-16.8394
				c0-3.6776-2.7639-6.6623-6.1694-6.6623c-2.4702,0-4.5963,1.5751-5.5814,3.8412
				C956.4219,281.0284,954.2958,279.4532,951.8256,279.4532z"/>
		</g>
	</g>
</g>
<g>
	<g>
		<title>Layer 1</title>
		<g id="layer1_207_">
			<path id="path7_207_" fill="#FF0000" stroke="#FF0000" stroke-width="0.2669" d="M933.1589,345.4532
				c-3.4055,0-6.1694,2.9847-6.1694,6.6623c0,7.4815,6.9885,9.4431,11.7508,16.8394c4.5023-7.3509,11.7508-9.5967,11.7508-16.8394
				c0-3.6776-2.7639-6.6623-6.1694-6.6623c-2.4702,0-4.5963,1.5751-5.5814,3.8412
				C937.7552,347.0284,935.6292,345.4532,933.1589,345.4532z"/>
		</g>
	</g>
</g>
<g>
	<g>
		<title>Layer 1</title>
		<g id="layer1_205_">
			<path id="path7_205_" fill="#FF0000" stroke="#FF0000" stroke-width="0.2669" d="M677.1589,275.4532
				c-3.4055,0-6.1694,2.9847-6.1694,6.6623c0,7.4815,6.9885,9.4431,11.7508,16.8393c4.5023-7.3509,11.7508-9.5967,11.7508-16.8393
				c0-3.6776-2.7639-6.6623-6.1694-6.6623c-2.4702,0-4.5963,1.5751-5.5814,3.8412
				C681.7552,277.0284,679.6292,275.4532,677.1589,275.4532z"/>
		</g>
	</g>
</g>
<g>
	<g>
		<title>Layer 1</title>
		<g id="layer1_158_">
			<path id="path7_158_" fill="#FF0000" stroke="#FF0000" stroke-width="0.2669" d="M590.1589,447.1199
				c-3.4055,0-6.1694,2.9847-6.1694,6.6623c0,7.4815,6.9885,9.4431,11.7508,16.8393c4.5023-7.3509,11.7508-9.5967,11.7508-16.8393
				c0-3.6776-2.7639-6.6623-6.1694-6.6623c-2.4702,0-4.5963,1.5751-5.5814,3.8412
				C594.7552,448.695,592.6292,447.1199,590.1589,447.1199z"/>
		</g>
	</g>
</g>
<g>
	<g>
		<title>Layer 1</title>
		<g id="layer1_159_">
			<path id="path7_159_" fill="#FF0000" stroke="#FF0000" stroke-width="0.229" d="M618.9506,405.7866
				c-2.9225,0-5.2944,2.5614-5.2944,5.7173c0,6.4203,5.9974,8.1037,10.0842,14.451c3.8638-6.3083,10.0841-8.2356,10.0841-14.451
				c0-3.1559-2.3718-5.7173-5.2944-5.7173c-2.1199,0-3.9443,1.3517-4.7897,3.2964
				C622.895,407.1383,621.0704,405.7866,618.9506,405.7866z"/>
		</g>
	</g>
</g>
<g>
	<g>
		<title>Layer 1</title>
		<g id="layer1_114_">
			<path id="path7_114_" fill="#FF0000" stroke="#FF0000" stroke-width="0.2669" d="M672.1589,224.1199
				c-3.4055,0-6.1694,2.9847-6.1694,6.6623c0,7.4815,6.9885,9.4431,11.7508,16.8393c4.5023-7.3509,11.7508-9.5967,11.7508-16.8393
				c0-3.6776-2.7639-6.6623-6.1694-6.6623c-2.4702,0-4.5963,1.5751-5.5814,3.8412
				C676.7552,225.695,674.6292,224.1199,672.1589,224.1199z"/>
		</g>
	</g>
</g>
<g>
	<g>
		<title>Layer 1</title>
		<g id="layer1_115_">
			<path id="path7_115_" fill="#FF0000" stroke="#FF0000" stroke-width="0.2669" d="M761.1589,205.1199
				c-3.4055,0-6.1694,2.9847-6.1694,6.6623c0,7.4815,6.9885,9.4431,11.7508,16.8393c4.5023-7.3509,11.7508-9.5967,11.7508-16.8393
				c0-3.6776-2.7639-6.6623-6.1694-6.6623c-2.4702,0-4.5963,1.5751-5.5814,3.8412
				C765.7552,206.695,763.6292,205.1199,761.1589,205.1199z"/>
		</g>
	</g>
</g>
<g>
	<g>
		<title>Layer 1</title>
		<g id="layer1_116_">
			<path id="path7_116_" fill="#FF0000" stroke="#FF0000" stroke-width="0.2669" d="M1075.1589,380.1199
				c-3.4055,0-6.1694,2.9847-6.1694,6.6623c0,7.4815,6.9886,9.4431,11.7509,16.8393c4.5023-7.3509,11.7509-9.5967,11.7509-16.8393
				c0-3.6776-2.7639-6.6623-6.1694-6.6623c-2.4702,0-4.5963,1.5751-5.5814,3.8412
				C1079.7552,381.695,1077.6292,380.1199,1075.1589,380.1199z"/>
		</g>
	</g>
</g>
<g>
	<g>
		<title>Layer 1</title>
		<g id="layer1_118_">
			<path id="path7_118_" fill="#FF0000" stroke="#FF0000" stroke-width="0.2669" d="M1138.1589,557.1199
				c-3.4055,0-6.1694,2.9847-6.1694,6.6622c0,7.4815,6.9886,9.4431,11.7509,16.8394c4.5023-7.3509,11.7509-9.5967,11.7509-16.8394
				c0-3.6776-2.7639-6.6622-6.1694-6.6622c-2.4702,0-4.5963,1.5751-5.5814,3.8412
				C1142.7552,558.695,1140.6292,557.1199,1138.1589,557.1199z"/>
		</g>
	</g>
</g>
<g>
	<g>
		<title>Layer 1</title>
		<g id="layer1_176_">
			<path id="path7_176_" fill="#FF0000" stroke="#FF0000" stroke-width="0.2669" d="M1212.1589,626.1199
				c-3.4055,0-6.1694,2.9847-6.1694,6.6622c0,7.4815,6.9886,9.4431,11.7509,16.8394c4.5023-7.3509,11.7509-9.5967,11.7509-16.8394
				c0-3.6776-2.7639-6.6622-6.1694-6.6622c-2.4702,0-4.5963,1.5751-5.5814,3.8412
				C1216.7552,627.695,1214.6292,626.1199,1212.1589,626.1199z"/>
		</g>
	</g>
</g>
<g>
	<g>
		<title>Layer 1</title>
		<g id="layer1_208_">
			<path id="path7_208_" fill="#FF0000" stroke="#FF0000" stroke-width="0.2669" d="M1350.1589,295.4532
				c-3.4055,0-6.1694,2.9847-6.1694,6.6623c0,7.4815,6.9886,9.4431,11.7509,16.8393c4.5023-7.3509,11.7509-9.5967,11.7509-16.8393
				c0-3.6776-2.7639-6.6623-6.1694-6.6623c-2.4702,0-4.5963,1.5751-5.5814,3.8412
				C1354.7552,297.0284,1352.6292,295.4532,1350.1589,295.4532z"/>
		</g>
	</g>
</g>
<g>
	<g>
		<title>Layer 1</title>
		<g id="layer1_209_">
			<path id="path7_209_" fill="#FF0000" stroke="#FF0000" stroke-width="0.2669" d="M1406.8257,241.4533
				c-3.4055,0-6.1694,2.9847-6.1694,6.6623c0,7.4815,6.9885,9.4431,11.7507,16.8393c4.5024-7.3509,11.7509-9.5967,11.7509-16.8393
				c0-3.6776-2.7639-6.6623-6.1694-6.6623c-2.4702,0-4.5963,1.5751-5.5814,3.8412
				C1411.4219,243.0284,1409.2959,241.4533,1406.8257,241.4533z"/>
		</g>
	</g>
</g>
<g>
	<g>
		<title>Layer 1</title>
		<g id="layer1_213_">
			<path id="path7_213_" fill="#FF0000" stroke="#FF0000" stroke-width="0.2669" d="M1360.1589,31.4533
				c-3.4055,0-6.1694,2.9847-6.1694,6.6623c0,7.4815,6.9886,9.4431,11.7509,16.8393c4.5023-7.3509,11.7509-9.5967,11.7509-16.8393
				c0-3.6776-2.7639-6.6623-6.1694-6.6623c-2.4702,0-4.5963,1.5751-5.5814,3.8412
				C1364.7552,33.0284,1362.6292,31.4533,1360.1589,31.4533z"/>
		</g>
	</g>
</g>
<g>
	<g>
		<title>Layer 1</title>
		<g id="layer1_210_">
			<path id="path7_210_" fill="#FF0000" stroke="#FF0000" stroke-width="0.2063" d="M1309.7589,259.7866
				c-2.6327,0-4.7694,2.3074-4.7694,5.1504c0,5.7837,5.4027,7.3001,9.0842,13.0179c3.4806-5.6827,9.0841-7.4189,9.0841-13.0179
				c0-2.843-2.1367-5.1504-4.7694-5.1504c-1.9097,0-3.5532,1.2177-4.3147,2.9695
				C1313.3121,261.0042,1311.6686,259.7866,1309.7589,259.7866z"/>
		</g>
	</g>
</g>
<g>
	<g>
		<title>Layer 1</title>
		<g id="layer1_211_">
			<path id="path7_211_" fill="#FF0000" stroke="#FF0000" stroke-width="0.2063" d="M1623.7589,244.4533
				c-2.6327,0-4.7694,2.3074-4.7694,5.1504c0,5.7837,5.4027,7.3001,9.0842,13.0179c3.4806-5.6827,9.0841-7.4189,9.0841-13.0179
				c0-2.843-2.1367-5.1504-4.7694-5.1504c-1.9097,0-3.5532,1.2177-4.3147,2.9695
				C1627.3121,245.6709,1625.6686,244.4533,1623.7589,244.4533z"/>
		</g>
	</g>
</g>
<g>
	<g>
		<title>Layer 1</title>
		<g id="layer1_175_">
			<path id="path7_175_" fill="#FF0000" stroke="#FF0000" stroke-width="0.2669" d="M1122.1589,519.1199
				c-3.4055,0-6.1694,2.9847-6.1694,6.6622c0,7.4815,6.9886,9.4431,11.7509,16.8394c4.5023-7.3509,11.7509-9.5967,11.7509-16.8394
				c0-3.6776-2.7639-6.6622-6.1694-6.6622c-2.4702,0-4.5963,1.5751-5.5814,3.8412
				C1126.7552,520.695,1124.6292,519.1199,1122.1589,519.1199z"/>
		</g>
	</g>
</g>
<g>
	<g>
		<title>Layer 1</title>
		<g id="layer1_121_">
			<path id="path7_121_" fill="#FF0000" stroke="#FF0000" stroke-width="0.2669" d="M1146.1589,719.1199
				c-3.4055,0-6.1694,2.9847-6.1694,6.6622c0,7.4815,6.9886,9.4431,11.7509,16.8394c4.5023-7.3509,11.7509-9.5967,11.7509-16.8394
				c0-3.6776-2.7639-6.6622-6.1694-6.6622c-2.4702,0-4.5963,1.5751-5.5814,3.8412
				C1150.7552,720.695,1148.6292,719.1199,1146.1589,719.1199z"/>
		</g>
	</g>
</g>
<g>
	<g>
		<title>Layer 1</title>
		<g id="layer1_122_">
			<path id="path7_122_" fill="#FF0000" stroke="#FF0000" stroke-width="0.2669" d="M994.1589,743.1199
				c-3.4055,0-6.1694,2.9847-6.1694,6.6622c0,7.4815,6.9885,9.4431,11.7508,16.8394c4.5023-7.3509,11.7508-9.5967,11.7508-16.8394
				c0-3.6776-2.7639-6.6622-6.1694-6.6622c-2.4702,0-4.5963,1.5751-5.5814,3.8412
				C998.7552,744.695,996.6292,743.1199,994.1589,743.1199z"/>
		</g>
	</g>
</g>
<g>
	<g>
		<title>Layer 1</title>
		<g id="layer1_123_">
			<path id="path7_123_" fill="#FF0000" stroke="#FF0000" stroke-width="0.2669" d="M631.1589,654.1199
				c-3.4055,0-6.1694,2.9847-6.1694,6.6622c0,7.4815,6.9885,9.4431,11.7508,16.8394c4.5023-7.3509,11.7508-9.5967,11.7508-16.8394
				c0-3.6776-2.7639-6.6622-6.1694-6.6622c-2.4702,0-4.5963,1.5751-5.5814,3.8412
				C635.7552,655.695,633.6292,654.1199,631.1589,654.1199z"/>
		</g>
	</g>
</g>
<g>
	<g>
		<title>Layer 1</title>
		<g id="layer1_174_">
			<path id="path7_174_" fill="#FF0000" stroke="#FF0000" stroke-width="0.2669" d="M607.1589,607.1199
				c-3.4055,0-6.1694,2.9847-6.1694,6.6622c0,7.4815,6.9885,9.4431,11.7508,16.8394c4.5023-7.3509,11.7508-9.5967,11.7508-16.8394
				c0-3.6776-2.7639-6.6622-6.1694-6.6622c-2.4702,0-4.5963,1.5751-5.5814,3.8412
				C611.7552,608.695,609.6292,607.1199,607.1589,607.1199z"/>
		</g>
	</g>
</g>
<g>
	<g>
		<title>Layer 1</title>
		<g id="layer1_130_">
			<path id="path7_130_" fill="#FF0000" stroke="#FF0000" stroke-width="0.2669" d="M370.159,608.1199
				c-3.4055,0-6.1694,2.9847-6.1694,6.6622c0,7.4815,6.9886,9.4431,11.7508,16.8394c4.5023-7.3509,11.7508-9.5967,11.7508-16.8394
				c0-3.6776-2.7639-6.6622-6.1694-6.6622c-2.4702,0-4.5963,1.5751-5.5814,3.8412
				C374.7552,609.695,372.6292,608.1199,370.159,608.1199z"/>
		</g>
	</g>
</g>
<g>
	<g>
		<title>Layer 1</title>
		<g id="layer1_195_">
			<path id="path7_195_" fill="#FF0000" stroke="#FF0000" stroke-width="0.2669" d="M421.159,659.1199
				c-3.4055,0-6.1694,2.9847-6.1694,6.6622c0,7.4815,6.9886,9.4431,11.7508,16.8394c4.5023-7.3509,11.7508-9.5967,11.7508-16.8394
				c0-3.6776-2.7639-6.6622-6.1694-6.6622c-2.4702,0-4.5963,1.5751-5.5814,3.8412
				C425.7552,660.695,423.6292,659.1199,421.159,659.1199z"/>
		</g>
	</g>
</g>
<g>
	<g>
		<title>Layer 1</title>
		<g id="layer1_196_">
			<path id="path7_196_" fill="#FF0000" stroke="#FF0000" stroke-width="0.2669" d="M449.159,593.1199
				c-3.4055,0-6.1694,2.9847-6.1694,6.6622c0,7.4815,6.9886,9.4431,11.7508,16.8394c4.5023-7.3509,11.7508-9.5967,11.7508-16.8394
				c0-3.6776-2.7639-6.6622-6.1694-6.6622c-2.4702,0-4.5963,1.5751-5.5814,3.8412
				C453.7552,594.695,451.6292,593.1199,449.159,593.1199z"/>
		</g>
	</g>
</g>
<g>
	<g>
		<title>Layer 1</title>
		<g id="layer1_197_">
			<path id="path7_197_" fill="#FF0000" stroke="#FF0000" stroke-width="0.2669" d="M526.1589,521.1199
				c-3.4055,0-6.1694,2.9847-6.1694,6.6622c0,7.4815,6.9885,9.4431,11.7508,16.8394c4.5023-7.3509,11.7508-9.5967,11.7508-16.8394
				c0-3.6776-2.7639-6.6622-6.1694-6.6622c-2.4702,0-4.5963,1.5751-5.5814,3.8412
				C530.7552,522.695,528.6292,521.1199,526.1589,521.1199z"/>
		</g>
	</g>
</g>
<g>
	<g>
		<title>Layer 1</title>
		<g id="layer1_198_">
			<path id="path7_198_" fill="#FF0000" stroke="#FF0000" stroke-width="0.2669" d="M234.159,560.1199
				c-3.4055,0-6.1694,2.9847-6.1694,6.6622c0,7.4815,6.9886,9.4431,11.7508,16.8394c4.5023-7.3509,11.7508-9.5967,11.7508-16.8394
				c0-3.6776-2.7639-6.6622-6.1694-6.6622c-2.4702,0-4.5963,1.5751-5.5814,3.8412
				C238.7553,561.695,236.6292,560.1199,234.159,560.1199z"/>
		</g>
	</g>
</g>
<g>
	<g>
		<title>Layer 1</title>
		<g id="layer1_199_">
			<path id="path7_199_" fill="#FF0000" stroke="#FF0000" stroke-width="0.2669" d="M41.159,605.1199
				c-3.4055,0-6.1694,2.9847-6.1694,6.6622c0,7.4815,6.9886,9.4431,11.7508,16.8394c4.5023-7.3509,11.7508-9.5967,11.7508-16.8394
				c0-3.6776-2.7639-6.6622-6.1694-6.6622c-2.4702,0-4.5963,1.5751-5.5814,3.8412C45.7553,606.695,43.6292,605.1199,41.159,605.1199
				z"/>
		</g>
	</g>
</g>
<g>
	<g>
		<title>Layer 1</title>
		<g id="layer1_200_">
			<path id="path7_200_" fill="#FF0000" stroke="#FF0000" stroke-width="0.2669" d="M35.159,487.1199
				c-3.4055,0-6.1694,2.9847-6.1694,6.6623c0,7.4815,6.9886,9.4431,11.7508,16.8393c4.5023-7.3509,11.7508-9.5967,11.7508-16.8393
				c0-3.6776-2.7639-6.6623-6.1694-6.6623c-2.4702,0-4.5963,1.5751-5.5814,3.8412C39.7553,488.695,37.6292,487.1199,35.159,487.1199
				z"/>
		</g>
	</g>
</g>
<g>
	<g>
		<title>Layer 1</title>
		<g id="layer1_201_">
			<path id="path7_201_" fill="#FF0000" stroke="#FF0000" stroke-width="0.2669" d="M49.159,377.1199
				c-3.4055,0-6.1694,2.9847-6.1694,6.6623c0,7.4815,6.9886,9.4431,11.7508,16.8393c4.5023-7.3509,11.7508-9.5967,11.7508-16.8393
				c0-3.6776-2.7639-6.6623-6.1694-6.6623c-2.4702,0-4.5963,1.5751-5.5814,3.8412C53.7553,378.695,51.6292,377.1199,49.159,377.1199
				z"/>
		</g>
	</g>
</g>
<g>
	<g>
		<title>Layer 1</title>
		<g id="layer1_202_">
			<path id="path7_202_" fill="#FF0000" stroke="#FF0000" stroke-width="0.2669" d="M154.159,381.1199
				c-3.4055,0-6.1694,2.9847-6.1694,6.6623c0,7.4815,6.9886,9.4431,11.7508,16.8393c4.5023-7.3509,11.7508-9.5967,11.7508-16.8393
				c0-3.6776-2.7639-6.6623-6.1694-6.6623c-2.4702,0-4.5963,1.5751-5.5814,3.8412
				C158.7553,382.695,156.6292,381.1199,154.159,381.1199z"/>
		</g>
	</g>
</g>
<g>
	<g>
		<title>Layer 1</title>
		<g id="layer1_203_">
			<path id="path7_203_" fill="#FF0000" stroke="#FF0000" stroke-width="0.2669" d="M84.159,274.1199
				c-3.4055,0-6.1694,2.9847-6.1694,6.6623c0,7.4815,6.9886,9.4431,11.7508,16.8393c4.5023-7.3509,11.7508-9.5967,11.7508-16.8393
				c0-3.6776-2.7639-6.6623-6.1694-6.6623c-2.4702,0-4.5963,1.5751-5.5814,3.8412C88.7553,275.695,86.6292,274.1199,84.159,274.1199
				z"/>
		</g>
	</g>
</g>
<g>
	<g>
		<title>Layer 1</title>
		<g id="layer1_131_">
			<path id="path7_131_" fill="#FF0000" stroke="#FF0000" stroke-width="0.2669" d="M753.1589,805.1199
				c-3.4055,0-6.1694,2.9847-6.1694,6.6622c0,7.4815,6.9885,9.4431,11.7508,16.8394c4.5023-7.3509,11.7508-9.5967,11.7508-16.8394
				c0-3.6776-2.7639-6.6622-6.1694-6.6622c-2.4702,0-4.5963,1.5751-5.5814,3.8412
				C757.7552,806.695,755.6292,805.1199,753.1589,805.1199z"/>
		</g>
	</g>
</g>
<g>
	<g>
		<title>Layer 1</title>
		<g id="layer1_132_">
			<path id="path7_132_" fill="#FF0000" stroke="#FF0000" stroke-width="0.2669" d="M794.1589,815.1199
				c-3.4055,0-6.1694,2.9847-6.1694,6.6622c0,7.4815,6.9885,9.4431,11.7508,16.8394c4.5023-7.3509,11.7508-9.5967,11.7508-16.8394
				c0-3.6776-2.7639-6.6622-6.1694-6.6622c-2.4702,0-4.5963,1.5751-5.5814,3.8412
				C798.7552,816.695,796.6292,815.1199,794.1589,815.1199z"/>
		</g>
	</g>
</g>
<g>
	<g>
		<title>Layer 1</title>
		<g id="layer1_133_">
			<path id="path7_133_" fill="#FF0000" stroke="#FF0000" stroke-width="0.2669" d="M892.1589,838.1199
				c-3.4055,0-6.1694,2.9847-6.1694,6.6622c0,7.4815,6.9885,9.4431,11.7508,16.8394c4.5023-7.3509,11.7508-9.5967,11.7508-16.8394
				c0-3.6776-2.7639-6.6622-6.1694-6.6622c-2.4702,0-4.5963,1.5751-5.5814,3.8412
				C896.7552,839.695,894.6292,838.1199,892.1589,838.1199z"/>
		</g>
	</g>
</g>
<g>
	<g>
		<title>Layer 1</title>
		<g id="layer1_194_">
			<path id="path7_194_" fill="#FF0000" stroke="#FF0000" stroke-width="0.2669" d="M737.1589,897.1199
				c-3.4055,0-6.1694,2.9847-6.1694,6.6622c0,7.4815,6.9885,9.4431,11.7508,16.8394c4.5023-7.3509,11.7508-9.5967,11.7508-16.8394
				c0-3.6776-2.7639-6.6622-6.1694-6.6622c-2.4702,0-4.5963,1.5751-5.5814,3.8412
				C741.7552,898.695,739.6292,897.1199,737.1589,897.1199z"/>
		</g>
	</g>
</g>
<g>
	<g>
		<title>Layer 1</title>
		<g id="layer1_134_">
			<path id="path7_134_" fill="#FF0000" stroke="#FF0000" stroke-width="0.2669" d="M938.1589,891.1199
				c-3.4055,0-6.1694,2.9847-6.1694,6.6622c0,7.4815,6.9885,9.4431,11.7508,16.8394c4.5023-7.3509,11.7508-9.5967,11.7508-16.8394
				c0-3.6776-2.7639-6.6622-6.1694-6.6622c-2.4702,0-4.5963,1.5751-5.5814,3.8412
				C942.7552,892.695,940.6292,891.1199,938.1589,891.1199z"/>
		</g>
	</g>
</g>
<g>
	<g>
		<title>Layer 1</title>
		<g id="layer1_136_">
			<path id="path7_136_" fill="#FF0000" stroke="#FF0000" stroke-width="0.2669" d="M1111.1589,962.1199
				c-3.4055,0-6.1694,2.9847-6.1694,6.6622c0,7.4815,6.9886,9.4431,11.7509,16.8394c4.5023-7.3509,11.7509-9.5967,11.7509-16.8394
				c0-3.6776-2.7639-6.6622-6.1694-6.6622c-2.4702,0-4.5963,1.5751-5.5814,3.8412
				C1115.7552,963.695,1113.6292,962.1199,1111.1589,962.1199z"/>
		</g>
	</g>
</g>
<g>
	<g>
		<title>Layer 1</title>
		<g id="layer1_137_">
			<path id="path7_137_" fill="#FF0000" stroke="#FF0000" stroke-width="0.2669" d="M1440.1589,916.1199
				c-3.4055,0-6.1694,2.9847-6.1694,6.6622c0,7.4815,6.9886,9.4431,11.7509,16.8394c4.5023-7.3509,11.7509-9.5967,11.7509-16.8394
				c0-3.6776-2.7639-6.6622-6.1694-6.6622c-2.4702,0-4.5963,1.5751-5.5814,3.8412
				C1444.7552,917.695,1442.6292,916.1199,1440.1589,916.1199z"/>
		</g>
	</g>
</g>
<g>
	<g>
		<title>Layer 1</title>
		<g id="layer1_138_">
			<path id="path7_138_" fill="#FF0000" stroke="#FF0000" stroke-width="0.2669" d="M1361.1589,958.1199
				c-3.4055,0-6.1694,2.9847-6.1694,6.6622c0,7.4815,6.9886,9.4431,11.7509,16.8394c4.5023-7.3509,11.7509-9.5967,11.7509-16.8394
				c0-3.6776-2.7639-6.6622-6.1694-6.6622c-2.4702,0-4.5963,1.5751-5.5814,3.8412
				C1365.7552,959.695,1363.6292,958.1199,1361.1589,958.1199z"/>
		</g>
	</g>
</g>
<g>
	<g>
		<title>Layer 1</title>
		<g id="layer1_182_">
			<path id="path7_182_" fill="#FF0000" stroke="#FF0000" stroke-width="0.2669" d="M1280.1589,1054.1199
				c-3.4055,0-6.1694,2.9847-6.1694,6.6624c0,7.4814,6.9886,9.443,11.7509,16.8394c4.5023-7.351,11.7509-9.5968,11.7509-16.8394
				c0-3.6776-2.7639-6.6624-6.1694-6.6624c-2.4702,0-4.5963,1.5752-5.5814,3.8413
				C1284.7552,1055.6951,1282.6292,1054.1199,1280.1589,1054.1199z"/>
		</g>
	</g>
</g>
<g>
	<g>
		<title>Layer 1</title>
		<g id="layer1_135_">
			<path id="path7_135_" fill="#FF0000" stroke="#FF0000" stroke-width="0.2669" d="M877.1589,963.1199
				c-3.4055,0-6.1694,2.9847-6.1694,6.6622c0,7.4815,6.9885,9.4431,11.7508,16.8394c4.5023-7.3509,11.7508-9.5967,11.7508-16.8394
				c0-3.6776-2.7639-6.6622-6.1694-6.6622c-2.4702,0-4.5963,1.5751-5.5814,3.8412
				C881.7552,964.695,879.6292,963.1199,877.1589,963.1199z"/>
		</g>
	</g>
</g>
<g>
	<g>
		<title>Layer 1</title>
		<g id="layer1_193_">
			<path id="path7_193_" fill="#FF0000" stroke="#FF0000" stroke-width="0.2669" d="M821.1589,909.1199
				c-3.4055,0-6.1694,2.9847-6.1694,6.6622c0,7.4815,6.9885,9.4431,11.7508,16.8394c4.5023-7.3509,11.7508-9.5967,11.7508-16.8394
				c0-3.6776-2.7639-6.6622-6.1694-6.6622c-2.4702,0-4.5963,1.5751-5.5814,3.8412
				C825.7552,910.695,823.6292,909.1199,821.1589,909.1199z"/>
		</g>
	</g>
</g>
<g>
	<g>
		<title>Layer 1</title>
		<g id="layer1_119_">
			<path id="path7_119_" fill="#FF0000" stroke="#FF0000" stroke-width="0.2669" d="M1293.1589,719.1199
				c-3.4055,0-6.1694,2.9847-6.1694,6.6622c0,7.4815,6.9886,9.4431,11.7509,16.8394c4.5023-7.3509,11.7509-9.5967,11.7509-16.8394
				c0-3.6776-2.7639-6.6622-6.1694-6.6622c-2.4702,0-4.5963,1.5751-5.5814,3.8412
				C1297.7552,720.695,1295.6292,719.1199,1293.1589,719.1199z"/>
		</g>
	</g>
</g>
<g>
	<g>
		<title>Layer 1</title>
		<g id="layer1_178_">
			<path id="path7_178_" fill="#FF0000" stroke="#FF0000" stroke-width="0.2669" d="M1383.1589,749.1199
				c-3.4055,0-6.1694,2.9847-6.1694,6.6622c0,7.4815,6.9886,9.4431,11.7509,16.8394c4.5023-7.3509,11.7509-9.5967,11.7509-16.8394
				c0-3.6776-2.7639-6.6622-6.1694-6.6622c-2.4702,0-4.5963,1.5751-5.5814,3.8412
				C1387.7552,750.695,1385.6292,749.1199,1383.1589,749.1199z"/>
		</g>
	</g>
</g>
<g>
	<g>
		<title>Layer 1</title>
		<g id="layer1_177_">
			<path id="path7_177_" fill="#FF0000" stroke="#FF0000" stroke-width="0.2669" d="M1252.1589,744.1199
				c-3.4055,0-6.1694,2.9847-6.1694,6.6622c0,7.4815,6.9886,9.4431,11.7509,16.8394c4.5023-7.3509,11.7509-9.5967,11.7509-16.8394
				c0-3.6776-2.7639-6.6622-6.1694-6.6622c-2.4702,0-4.5963,1.5751-5.5814,3.8412
				C1256.7552,745.695,1254.6292,744.1199,1252.1589,744.1199z"/>
		</g>
	</g>
</g>
<g>
	<g>
		<title>Layer 1</title>
		<g id="layer1_120_">
			<path id="path7_120_" fill="#FF0000" stroke="#FF0000" stroke-width="0.2669" d="M1418.1589,795.1199
				c-3.4055,0-6.1694,2.9847-6.1694,6.6622c0,7.4815,6.9886,9.4431,11.7509,16.8394c4.5023-7.3509,11.7509-9.5967,11.7509-16.8394
				c0-3.6776-2.7639-6.6622-6.1694-6.6622c-2.4702,0-4.5963,1.5751-5.5814,3.8412
				C1422.7552,796.695,1420.6292,795.1199,1418.1589,795.1199z"/>
		</g>
	</g>
</g>
<g>
	<g>
		<title>Layer 1</title>
		<g id="layer1_181_">
			<path id="path7_181_" fill="#FF0000" stroke="#FF0000" stroke-width="0.2669" d="M1479.1589,907.1199
				c-3.4055,0-6.1694,2.9847-6.1694,6.6622c0,7.4815,6.9886,9.4431,11.7509,16.8394c4.5023-7.3509,11.7509-9.5967,11.7509-16.8394
				c0-3.6776-2.7639-6.6622-6.1694-6.6622c-2.4702,0-4.5963,1.5751-5.5814,3.8412
				C1483.7552,908.695,1481.6292,907.1199,1479.1589,907.1199z"/>
		</g>
	</g>
</g>
<g>
	<g>
		<title>Layer 1</title>
		<g id="layer1_180_">
			<path id="path7_180_" fill="#FF0000" stroke="#FF0000" stroke-width="0.2669" d="M1470.1589,1035.1199
				c-3.4055,0-6.1694,2.9847-6.1694,6.6624c0,7.4814,6.9886,9.443,11.7509,16.8394c4.5023-7.351,11.7509-9.5968,11.7509-16.8394
				c0-3.6776-2.7639-6.6624-6.1694-6.6624c-2.4702,0-4.5963,1.5752-5.5814,3.8413
				C1474.7552,1036.6951,1472.6292,1035.1199,1470.1589,1035.1199z"/>
		</g>
	</g>
</g>
<g>
	<g>
		<title>Layer 1</title>
		<g id="layer1_183_">
			<path id="path7_183_" fill="#FF0000" stroke="#FF0000" stroke-width="0.2669" d="M1280.1589,1151.1199
				c-3.4055,0-6.1694,2.9847-6.1694,6.6624c0,7.4814,6.9886,9.443,11.7509,16.8394c4.5023-7.351,11.7509-9.5968,11.7509-16.8394
				c0-3.6776-2.7639-6.6624-6.1694-6.6624c-2.4702,0-4.5963,1.5752-5.5814,3.8413
				C1284.7552,1152.6951,1282.6292,1151.1199,1280.1589,1151.1199z"/>
		</g>
	</g>
</g>
<g>
	<g>
		<title>Layer 1</title>
		<g id="layer1_184_">
			<path id="path7_184_" fill="#FF0000" stroke="#FF0000" stroke-width="0.2669" d="M1125.1589,1336.1199
				c-3.4055,0-6.1694,2.9847-6.1694,6.6624c0,7.4814,6.9886,9.443,11.7509,16.8394c4.5023-7.351,11.7509-9.5968,11.7509-16.8394
				c0-3.6776-2.7639-6.6624-6.1694-6.6624c-2.4702,0-4.5963,1.5752-5.5814,3.8413
				C1129.7552,1337.6951,1127.6292,1336.1199,1125.1589,1336.1199z"/>
		</g>
	</g>
</g>
<g>
	<g>
		<title>Layer 1</title>
		<g id="layer1_185_">
			<path id="path7_185_" fill="#FF0000" stroke="#FF0000" stroke-width="0.2669" d="M934.1589,1378.1199
				c-3.4055,0-6.1694,2.9847-6.1694,6.6624c0,7.4814,6.9885,9.443,11.7508,16.8394c4.5023-7.351,11.7508-9.5968,11.7508-16.8394
				c0-3.6776-2.7639-6.6624-6.1694-6.6624c-2.4702,0-4.5963,1.5752-5.5814,3.8413
				C938.7552,1379.6951,936.6292,1378.1199,934.1589,1378.1199z"/>
		</g>
	</g>
</g>
<g>
	<g>
		<title>Layer 1</title>
		<g id="layer1_186_">
			<path id="path7_186_" fill="#FF0000" stroke="#FF0000" stroke-width="0.2669" d="M739.1589,1433.1199
				c-3.4055,0-6.1694,2.9847-6.1694,6.6624c0,7.4814,6.9885,9.443,11.7508,16.8394c4.5023-7.351,11.7508-9.5968,11.7508-16.8394
				c0-3.6776-2.7639-6.6624-6.1694-6.6624c-2.4702,0-4.5963,1.5752-5.5814,3.8413
				C743.7552,1434.6951,741.6292,1433.1199,739.1589,1433.1199z"/>
		</g>
	</g>
</g>
<g>
	<g>
		<title>Layer 1</title>
		<g id="layer1_187_">
			<path id="path7_187_" fill="#FF0000" stroke="#FF0000" stroke-width="0.2669" d="M677.1589,1378.1199
				c-3.4055,0-6.1694,2.9847-6.1694,6.6624c0,7.4814,6.9885,9.443,11.7508,16.8394c4.5023-7.351,11.7508-9.5968,11.7508-16.8394
				c0-3.6776-2.7639-6.6624-6.1694-6.6624c-2.4702,0-4.5963,1.5752-5.5814,3.8413
				C681.7552,1379.6951,679.6292,1378.1199,677.1589,1378.1199z"/>
		</g>
	</g>
</g>
<g>
	<g>
		<title>Layer 1</title>
		<g id="layer1_188_">
			<path id="path7_188_" fill="#FF0000" stroke="#FF0000" stroke-width="0.2669" d="M575.1589,1291.1199
				c-3.4055,0-6.1694,2.9847-6.1694,6.6624c0,7.4814,6.9885,9.443,11.7508,16.8394c4.5023-7.351,11.7508-9.5968,11.7508-16.8394
				c0-3.6776-2.7639-6.6624-6.1694-6.6624c-2.4702,0-4.5963,1.5752-5.5814,3.8413
				C579.7552,1292.6951,577.6292,1291.1199,575.1589,1291.1199z"/>
		</g>
	</g>
</g>
<g>
	<g>
		<title>Layer 1</title>
		<g id="layer1_189_">
			<path id="path7_189_" fill="#FF0000" stroke="#FF0000" stroke-width="0.2669" d="M681.1589,1224.1199
				c-3.4055,0-6.1694,2.9847-6.1694,6.6624c0,7.4814,6.9885,9.443,11.7508,16.8394c4.5023-7.351,11.7508-9.5968,11.7508-16.8394
				c0-3.6776-2.7639-6.6624-6.1694-6.6624c-2.4702,0-4.5963,1.5752-5.5814,3.8413
				C685.7552,1225.6951,683.6292,1224.1199,681.1589,1224.1199z"/>
		</g>
	</g>
</g>
<g>
	<g>
		<title>Layer 1</title>
		<g id="layer1_190_">
			<path id="path7_190_" fill="#FF0000" stroke="#FF0000" stroke-width="0.2669" d="M577.1589,1182.1199
				c-3.4055,0-6.1694,2.9847-6.1694,6.6624c0,7.4814,6.9885,9.443,11.7508,16.8394c4.5023-7.351,11.7508-9.5968,11.7508-16.8394
				c0-3.6776-2.7639-6.6624-6.1694-6.6624c-2.4702,0-4.5963,1.5752-5.5814,3.8413
				C581.7552,1183.6951,579.6292,1182.1199,577.1589,1182.1199z"/>
		</g>
	</g>
</g>
<g>
	<g>
		<title>Layer 1</title>
		<g id="layer1_191_">
			<path id="path7_191_" fill="#FF0000" stroke="#FF0000" stroke-width="0.2669" d="M492.159,886.1199
				c-3.4055,0-6.1694,2.9847-6.1694,6.6622c0,7.4815,6.9886,9.4431,11.7508,16.8394c4.5023-7.3509,11.7508-9.5967,11.7508-16.8394
				c0-3.6776-2.7639-6.6622-6.1694-6.6622c-2.4702,0-4.5963,1.5751-5.5814,3.8412
				C496.7552,887.695,494.6292,886.1199,492.159,886.1199z"/>
		</g>
	</g>
</g>
<g>
	<g>
		<title>Layer 1</title>
		<g id="layer1_192_">
			<path id="path7_192_" fill="#FF0000" stroke="#FF0000" stroke-width="0.2669" d="M528.1589,1000.1199
				c-3.4055,0-6.1694,2.9847-6.1694,6.6622c0,7.4815,6.9885,9.4431,11.7508,16.8394c4.5023-7.3509,11.7508-9.5967,11.7508-16.8394
				c0-3.6776-2.7639-6.6622-6.1694-6.6622c-2.4702,0-4.5963,1.5751-5.5814,3.8412
				C532.7552,1001.695,530.6292,1000.1199,528.1589,1000.1199z"/>
		</g>
	</g>
</g>
<g>
	<g>
		<title>Layer 1</title>
		<g id="layer1_179_">
			<path id="path7_179_" fill="#FF0000" stroke="#FF0000" stroke-width="0.2669" d="M1530.1589,786.1199
				c-3.4055,0-6.1694,2.9847-6.1694,6.6622c0,7.4815,6.9886,9.4431,11.7509,16.8394c4.5023-7.3509,11.7509-9.5967,11.7509-16.8394
				c0-3.6776-2.7639-6.6622-6.1694-6.6622c-2.4702,0-4.5963,1.5751-5.5814,3.8412
				C1534.7552,787.695,1532.6292,786.1199,1530.1589,786.1199z"/>
		</g>
	</g>
</g>
<g>
	<g>
		<title>Layer 1</title>
		<g id="layer1_139_">
			<path id="path7_139_" fill="#FF0000" stroke="#FF0000" stroke-width="0.2669" d="M1677.1589,746.1199
				c-3.4055,0-6.1694,2.9847-6.1694,6.6622c0,7.4815,6.9886,9.4431,11.7509,16.8394c4.5023-7.3509,11.7509-9.5967,11.7509-16.8394
				c0-3.6776-2.7639-6.6622-6.1694-6.6622c-2.4702,0-4.5963,1.5751-5.5814,3.8412
				C1681.7552,747.695,1679.6292,746.1199,1677.1589,746.1199z"/>
		</g>
	</g>
</g>
<g>
	<g>
		<title>Layer 1</title>
		<g id="layer1_140_">
			<path id="path7_140_" fill="#FF0000" stroke="#FF0000" stroke-width="0.2669" d="M1712.1589,640.1199
				c-3.4055,0-6.1694,2.9847-6.1694,6.6622c0,7.4815,6.9886,9.4431,11.7509,16.8394c4.5023-7.3509,11.7509-9.5967,11.7509-16.8394
				c0-3.6776-2.7639-6.6622-6.1694-6.6622c-2.4702,0-4.5963,1.5751-5.5814,3.8412
				C1716.7552,641.695,1714.6292,640.1199,1712.1589,640.1199z"/>
		</g>
	</g>
</g>
<g>
	<g>
		<title>Layer 1</title>
		<g id="layer1_141_">
			<path id="path7_141_" fill="#FF0000" stroke="#FF0000" stroke-width="0.2669" d="M1727.1589,479.1199
				c-3.4055,0-6.1694,2.9847-6.1694,6.6623c0,7.4815,6.9886,9.4431,11.7509,16.8393c4.5023-7.3509,11.7509-9.5967,11.7509-16.8393
				c0-3.6776-2.7639-6.6623-6.1694-6.6623c-2.4702,0-4.5963,1.5751-5.5814,3.8412
				C1731.7552,480.695,1729.6292,479.1199,1727.1589,479.1199z"/>
		</g>
	</g>
</g>
<g>
	<g>
		<title>Layer 1</title>
		<g id="layer1_142_">
			<path id="path7_142_" fill="#FF0000" stroke="#FF0000" stroke-width="0.2669" d="M1615.1589,399.1199
				c-3.4055,0-6.1694,2.9847-6.1694,6.6623c0,7.4815,6.9886,9.4431,11.7509,16.8393c4.5023-7.3509,11.7509-9.5967,11.7509-16.8393
				c0-3.6776-2.7639-6.6623-6.1694-6.6623c-2.4702,0-4.5963,1.5751-5.5814,3.8412
				C1619.7552,400.695,1617.6292,399.1199,1615.1589,399.1199z"/>
		</g>
	</g>
</g>
<g>
	<g>
		<title>Layer 1</title>
		<g id="layer1_143_">
			<path id="path7_143_" fill="#FF0000" stroke="#FF0000" stroke-width="0.2669" d="M1619.1589,179.1199
				c-3.4055,0-6.1694,2.9847-6.1694,6.6623c0,7.4815,6.9886,9.4431,11.7509,16.8393c4.5023-7.3509,11.7509-9.5967,11.7509-16.8393
				c0-3.6776-2.7639-6.6623-6.1694-6.6623c-2.4702,0-4.5963,1.5751-5.5814,3.8412
				C1623.7552,180.695,1621.6292,179.1199,1619.1589,179.1199z"/>
		</g>
	</g>
</g>
<g>
	<g>
		<title>Layer 1</title>
		<g id="layer1_144_">
			<path id="path7_144_" fill="#FF0000" stroke="#FF0000" stroke-width="0.2669" d="M1562.1589,259.1199
				c-3.4055,0-6.1694,2.9847-6.1694,6.6623c0,7.4815,6.9886,9.4431,11.7509,16.8393c4.5023-7.3509,11.7509-9.5967,11.7509-16.8393
				c0-3.6776-2.7639-6.6623-6.1694-6.6623c-2.4702,0-4.5963,1.5751-5.5814,3.8412
				C1566.7552,260.695,1564.6292,259.1199,1562.1589,259.1199z"/>
		</g>
	</g>
</g>
<g>
	<g>
		<title>Layer 1</title>
		<g id="layer1_145_">
			<path id="path7_145_" fill="#FF0000" stroke="#FF0000" stroke-width="0.2669" d="M1477.1589,230.1199
				c-3.4055,0-6.1694,2.9847-6.1694,6.6623c0,7.4815,6.9886,9.4431,11.7509,16.8393c4.5023-7.3509,11.7509-9.5967,11.7509-16.8393
				c0-3.6776-2.7639-6.6623-6.1694-6.6623c-2.4702,0-4.5963,1.5751-5.5814,3.8412
				C1481.7552,231.695,1479.6292,230.1199,1477.1589,230.1199z"/>
		</g>
	</g>
</g>
<g>
	<g>
		<title>Layer 1</title>
		<g id="layer1_212_">
			<path id="path7_212_" fill="#FF0000" stroke="#FF0000" stroke-width="0.2669" d="M1519.1589,93.4532
				c-3.4055,0-6.1694,2.9847-6.1694,6.6623c0,7.4815,6.9886,9.4431,11.7509,16.8393c4.5023-7.3509,11.7509-9.5967,11.7509-16.8393
				c0-3.6776-2.7639-6.6623-6.1694-6.6623c-2.4702,0-4.5963,1.5751-5.5814,3.8412
				C1523.7552,95.0283,1521.6292,93.4532,1519.1589,93.4532z"/>
		</g>
	</g>
</g>
<g>
	<g>
		<title>Layer 1</title>
		<g id="layer1_146_">
			<path id="path7_146_" fill="#FF0000" stroke="#FF0000" stroke-width="0.2669" d="M1323.1589,35.1199
				c-3.4055,0-6.1694,2.9847-6.1694,6.6623c0,7.4815,6.9886,9.4431,11.7509,16.8393c4.5023-7.3509,11.7509-9.5967,11.7509-16.8393
				c0-3.6776-2.7639-6.6623-6.1694-6.6623c-2.4702,0-4.5963,1.5751-5.5814,3.8412
				C1327.7552,36.695,1325.6292,35.1199,1323.1589,35.1199z"/>
		</g>
	</g>
</g>
<g>
	<g>
		<title>Layer 1</title>
		<g id="layer1_151_">
			<path id="path7_151_" fill="#FF0000" stroke="#FF0000" stroke-width="0.2669" d="M1281.1589,26.1199
				c-3.4055,0-6.1694,2.9847-6.1694,6.6623c0,7.4815,6.9886,9.4431,11.7509,16.8393c4.5023-7.3509,11.7509-9.5967,11.7509-16.8393
				c0-3.6776-2.7639-6.6623-6.1694-6.6623c-2.4702,0-4.5963,1.5751-5.5814,3.8412
				C1285.7552,27.695,1283.6292,26.1199,1281.1589,26.1199z"/>
		</g>
	</g>
</g>
<g>
	<g>
		<title>Layer 1</title>
		<g id="layer1_150_">
			<path id="path7_150_" fill="#FF0000" stroke="#FF0000" stroke-width="0.2669" d="M1333.1589,71.1199
				c-3.4055,0-6.1694,2.9847-6.1694,6.6623c0,7.4815,6.9886,9.4431,11.7509,16.8393c4.5023-7.3509,11.7509-9.5967,11.7509-16.8393
				c0-3.6776-2.7639-6.6623-6.1694-6.6623c-2.4702,0-4.5963,1.5751-5.5814,3.8412
				C1337.7552,72.695,1335.6292,71.1199,1333.1589,71.1199z"/>
		</g>
	</g>
</g>
<g>
	<g>
		<title>Layer 1</title>
		<g id="layer1_147_">
			<path id="path7_147_" fill="#FF0000" stroke="#FF0000" stroke-width="0.2669" d="M1390.1589,35.1199
				c-3.4055,0-6.1694,2.9847-6.1694,6.6623c0,7.4815,6.9886,9.4431,11.7509,16.8393c4.5023-7.3509,11.7509-9.5967,11.7509-16.8393
				c0-3.6776-2.7639-6.6623-6.1694-6.6623c-2.4702,0-4.5963,1.5751-5.5814,3.8412
				C1394.7552,36.695,1392.6292,35.1199,1390.1589,35.1199z"/>
		</g>
	</g>
</g>
<g>
	<g>
		<title>Layer 1</title>
		<g id="layer1_149_">
			<path id="path7_149_" fill="#FF0000" stroke="#FF0000" stroke-width="0.2669" d="M1339.8993,113.4306
				c-3.4055,0-6.1694,2.9847-6.1694,6.6623c0,7.4815,6.9886,9.4431,11.7509,16.8393c4.5023-7.3509,11.7509-9.5967,11.7509-16.8393
				c0-3.6776-2.7639-6.6623-6.1694-6.6623c-2.4702,0-4.5963,1.5751-5.5814,3.8412
				C1344.4956,115.0057,1342.3695,113.4306,1339.8993,113.4306z"/>
		</g>
	</g>
</g>
<g>
	<g>
		<title>Layer 1</title>
		<g id="layer1_148_">
			<path id="path7_148_" fill="#FF0000" stroke="#FF0000" stroke-width="0.2669" d="M1226.1589,35.1199
				c-3.4055,0-6.1694,2.9847-6.1694,6.6623c0,7.4815,6.9886,9.4431,11.7509,16.8393c4.5023-7.3509,11.7509-9.5967,11.7509-16.8393
				c0-3.6776-2.7639-6.6623-6.1694-6.6623c-2.4702,0-4.5963,1.5751-5.5814,3.8412
				C1230.7552,36.695,1228.6292,35.1199,1226.1589,35.1199z"/>
		</g>
	</g>
</g>
<g>
	<g>
		<title>Layer 1</title>
		<g id="layer1_152_">
			<path id="path7_152_" fill="#FF0000" stroke="#FF0000" stroke-width="0.2669" d="M1102.1589,77.1199
				c-3.4055,0-6.1694,2.9847-6.1694,6.6623c0,7.4815,6.9886,9.4431,11.7509,16.8393c4.5023-7.3509,11.7509-9.5967,11.7509-16.8393
				c0-3.6776-2.7639-6.6623-6.1694-6.6623c-2.4702,0-4.5963,1.5751-5.5814,3.8412
				C1106.7552,78.695,1104.6292,77.1199,1102.1589,77.1199z"/>
		</g>
	</g>
</g>
<g>
	<g>
		<title>Layer 1</title>
		<g id="layer1_153_">
			<path id="path7_153_" fill="#FF0000" stroke="#FF0000" stroke-width="0.2669" d="M1123.1589,153.1199
				c-3.4055,0-6.1694,2.9847-6.1694,6.6623c0,7.4815,6.9886,9.4431,11.7509,16.8393c4.5023-7.3509,11.7509-9.5967,11.7509-16.8393
				c0-3.6776-2.7639-6.6623-6.1694-6.6623c-2.4702,0-4.5963,1.5751-5.5814,3.8412
				C1127.7552,154.695,1125.6292,153.1199,1123.1589,153.1199z"/>
		</g>
	</g>
</g>
<g>
	<g>
		<title>Layer 1</title>
		<g id="layer1_154_">
			<path id="path7_154_" fill="#FF0000" stroke="#FF0000" stroke-width="0.2669" d="M1155.1589,190.1199
				c-3.4055,0-6.1694,2.9847-6.1694,6.6623c0,7.4815,6.9886,9.4431,11.7509,16.8393c4.5023-7.3509,11.7509-9.5967,11.7509-16.8393
				c0-3.6776-2.7639-6.6623-6.1694-6.6623c-2.4702,0-4.5963,1.5751-5.5814,3.8412
				C1159.7552,191.695,1157.6292,190.1199,1155.1589,190.1199z"/>
		</g>
	</g>
</g>
<g>
	<g>
		<title>Layer 1</title>
		<g id="layer1_155_">
			<path id="path7_155_" fill="#FF0000" stroke="#FF0000" stroke-width="0.2669" d="M1071.1589,148.1199
				c-3.4055,0-6.1694,2.9847-6.1694,6.6623c0,7.4815,6.9886,9.4431,11.7509,16.8393c4.5023-7.3509,11.7509-9.5967,11.7509-16.8393
				c0-3.6776-2.7639-6.6623-6.1694-6.6623c-2.4702,0-4.5963,1.5751-5.5814,3.8412
				C1075.7552,149.695,1073.6292,148.1199,1071.1589,148.1199z"/>
		</g>
	</g>
</g>
<g>
	<g>
		<title>Layer 1</title>
		<g id="layer1_156_">
			<path id="path7_156_" fill="#FF0000" stroke="#FF0000" stroke-width="0.2669" d="M1003.1589,342.1199
				c-3.4055,0-6.1694,2.9847-6.1694,6.6623c0,7.4815,6.9885,9.4431,11.7508,16.8393c4.5023-7.3509,11.7508-9.5967,11.7508-16.8393
				c0-3.6776-2.7639-6.6623-6.1694-6.6623c-2.4702,0-4.5963,1.5751-5.5814,3.8412
				C1007.7552,343.695,1005.6292,342.1199,1003.1589,342.1199z"/>
		</g>
	</g>
</g>
<g>
	<g>
		<title>Layer 1</title>
		<g id="layer1_157_">
			<path id="path7_157_" fill="#FF0000" stroke="#FF0000" stroke-width="0.2669" d="M854.1589,253.1199
				c-3.4055,0-6.1694,2.9847-6.1694,6.6623c0,7.4815,6.9885,9.4431,11.7508,16.8393c4.5023-7.3509,11.7508-9.5967,11.7508-16.8393
				c0-3.6776-2.7639-6.6623-6.1694-6.6623c-2.4702,0-4.5963,1.5751-5.5814,3.8412
				C858.7552,254.695,856.6292,253.1199,854.1589,253.1199z"/>
		</g>
	</g>
</g>
<g>
	<g>
		<title>Layer 1</title>
		<g id="layer1_117_">
			<path id="path7_117_" fill="#FF0000" stroke="#FF0000" stroke-width="0.2669" d="M1088.1589,338.1199
				c-3.4055,0-6.1694,2.9847-6.1694,6.6623c0,7.4815,6.9886,9.4431,11.7509,16.8393c4.5023-7.3509,11.7509-9.5967,11.7509-16.8393
				c0-3.6776-2.7639-6.6623-6.1694-6.6623c-2.4702,0-4.5963,1.5751-5.5814,3.8412
				C1092.7552,339.695,1090.6292,338.1199,1088.1589,338.1199z"/>
		</g>
	</g>
</g>
<g>
	<g>
		<title>Layer 1</title>
		<g id="layer1_108_">
			<path id="path7_108_" fill="#FF0000" stroke="#FF0000" stroke-width="0.5394" d="M807.4592,341.1199
				c-6.8833,0-12.4697,6.0327-12.4697,13.4659c0,15.1216,14.1253,19.0864,23.7508,34.0358
				c9.1002-14.8577,23.7508-19.3969,23.7508-34.0358c0-7.4331-5.5864-13.4659-12.4697-13.4659c-4.9929,0-9.29,3.1836-11.2811,7.7639
				C816.7493,344.3035,812.452,341.1199,807.4592,341.1199z"/>
		</g>
	</g>
</g>
<g>
	<g>
		<title>Layer 1</title>
		<g id="layer1_124_">
			<path id="path7_124_" fill="#FF0000" stroke="#FF0000" stroke-width="0.5394" d="M561.4592,552.1199
				c-6.8833,0-12.4697,6.0327-12.4697,13.4658c0,15.1216,14.1253,19.0864,23.7508,34.0358
				c9.1002-14.8577,23.7508-19.3969,23.7508-34.0358c0-7.4332-5.5864-13.4658-12.4697-13.4658c-4.9929,0-9.29,3.1836-11.2811,7.7639
				C570.7493,555.3035,566.452,552.1199,561.4592,552.1199z"/>
		</g>
	</g>
</g>
<g>
	<g>
		<title>Layer 1</title>
		<g id="layer1_125_">
			<path id="path7_125_" fill="#FF0000" stroke="#FF0000" stroke-width="0.5394" d="M490.4592,557.1199
				c-6.8832,0-12.4697,6.0327-12.4697,13.4658c0,15.1216,14.1253,19.0864,23.7508,34.0358
				c9.1002-14.8577,23.7508-19.3969,23.7508-34.0358c0-7.4332-5.5864-13.4658-12.4697-13.4658
				c-4.9928,0-9.2901,3.1836-11.2811,7.7639C499.7493,560.3035,495.4521,557.1199,490.4592,557.1199z"/>
		</g>
	</g>
</g>
<g>
	<g>
		<title>Layer 1</title>
		<g id="layer1_126_">
			<path id="path7_126_" fill="#FF0000" stroke="#FF0000" stroke-width="0.5394" d="M556.4592,481.1199
				c-6.8833,0-12.4697,6.0327-12.4697,13.4659c0,15.1216,14.1253,19.0864,23.7508,34.0358
				c9.1002-14.8577,23.7508-19.3969,23.7508-34.0358c0-7.4331-5.5864-13.4659-12.4697-13.4659c-4.9929,0-9.29,3.1836-11.2811,7.7639
				C565.7493,484.3035,561.452,481.1199,556.4592,481.1199z"/>
		</g>
	</g>
</g>
<g>
	<g>
		<title>Layer 1</title>
		<g id="layer1_127_">
			<path id="path7_127_" fill="#FF0000" stroke="#FF0000" stroke-width="0.5394" d="M269.4592,507.1199
				c-6.8832,0-12.4697,6.0327-12.4697,13.4659c0,15.1216,14.1253,19.0864,23.7508,34.0358
				c9.1002-14.8577,23.7508-19.3969,23.7508-34.0358c0-7.4332-5.5864-13.4659-12.4697-13.4659
				c-4.9928,0-9.2901,3.1836-11.2811,7.7639C278.7493,510.3035,274.4521,507.1199,269.4592,507.1199z"/>
		</g>
	</g>
</g>
<g>
	<g>
		<title>Layer 1</title>
		<g id="layer1_128_">
			<path id="path7_128_" fill="#FF0000" stroke="#FF0000" stroke-width="0.5394" d="M180.4592,418.1199
				c-6.8833,0-12.4697,6.0327-12.4697,13.4659c0,15.1216,14.1253,19.0864,23.7508,34.0358
				c9.1002-14.8577,23.7508-19.3969,23.7508-34.0358c0-7.4331-5.5864-13.4659-12.4697-13.4659
				c-4.9928,0-9.2901,3.1836-11.2812,7.7639C189.7493,421.3035,185.4521,418.1199,180.4592,418.1199z"/>
		</g>
	</g>
</g>
<g>
	<g>
		<title>Layer 1</title>
		<g id="layer1_129_">
			<path id="path7_129_" fill="#FF0000" stroke="#FF0000" stroke-width="0.5394" d="M108.4592,231.1199
				c-6.8833,0-12.4697,6.0327-12.4697,13.4658c0,15.1216,14.1253,19.0864,23.7508,34.0358
				c9.1002-14.8577,23.7508-19.3969,23.7508-34.0358c0-7.4331-5.5864-13.4658-12.4697-13.4658
				c-4.9929,0-9.2901,3.1836-11.2812,7.7639C117.7493,234.3035,113.4521,231.1199,108.4592,231.1199z"/>
		</g>
	</g>
</g>
<g>
	<g>
		<title>Layer 1</title>
		<g id="layer1_109_">
			<path id="path7_109_" fill="#FF0000" stroke="#FF0000" stroke-width="0.5394" d="M841.4592,378.1199
				c-6.8833,0-12.4697,6.0327-12.4697,13.4659c0,15.1216,14.1253,19.0864,23.7508,34.0358
				c9.1002-14.8577,23.7508-19.3969,23.7508-34.0358c0-7.4331-5.5864-13.4659-12.4697-13.4659c-4.9929,0-9.29,3.1836-11.2811,7.7639
				C850.7493,381.3035,846.452,378.1199,841.4592,378.1199z"/>
		</g>
	</g>
</g>
<g>
	<g>
		<title>Layer 1</title>
		<g id="layer1_110_">
			<path id="path7_110_" fill="#FF0000" stroke="#FF0000" stroke-width="0.6302" d="M679.5593,313.1199
				c-8.0425,0-14.5697,7.0487-14.5697,15.7337c0,17.6683,16.5042,22.3008,27.7508,39.7679
				c10.6328-17.3599,27.7508-22.6636,27.7508-39.7679c0-8.685-6.5272-15.7337-14.5698-15.7337
				c-5.8337,0-10.8546,3.7198-13.181,9.0715C690.4139,316.8397,685.393,313.1199,679.5593,313.1199z"/>
		</g>
	</g>
</g>
<g>
	<g>
		<title>Layer 1</title>
		<g id="layer1_98_">
			<path id="path7_98_" fill="#FF0000" stroke="#FF0000" stroke-width="0.5394" d="M1469.4592,67.1199
				c-6.8833,0-12.4697,6.0327-12.4697,13.4658c0,15.1216,14.1254,19.0864,23.7509,34.0358
				c9.1002-14.8577,23.7509-19.3969,23.7509-34.0358c0-7.4331-5.5864-13.4658-12.4697-13.4658c-4.9928,0-9.29,3.1836-11.2811,7.7639
				C1478.7493,70.3035,1474.452,67.1199,1469.4592,67.1199z"/>
		</g>
	</g>
</g>
<g>
	<g>
		<title>Layer 1</title>
		<g id="layer1_99_">
			<path id="path7_99_" fill="#FF0000" stroke="#FF0000" stroke-width="0.5394" d="M1337.4592,140.1199
				c-6.8833,0-12.4697,6.0327-12.4697,13.4658c0,15.1216,14.1254,19.0864,23.7509,34.0358
				c9.1002-14.8577,23.7509-19.3969,23.7509-34.0358c0-7.4331-5.5864-13.4658-12.4697-13.4658c-4.9928,0-9.29,3.1836-11.2811,7.7639
				C1346.7493,143.3035,1342.452,140.1199,1337.4592,140.1199z"/>
		</g>
	</g>
</g>
<g>
	<g>
		<title>Layer 1</title>
		<g id="layer1_100_">
			<path id="path7_100_" fill="#FF0000" stroke="#FF0000" stroke-width="0.5394" d="M1419.4592,147.1199
				c-6.8833,0-12.4697,6.0327-12.4697,13.4658c0,15.1216,14.1254,19.0864,23.7509,34.0358
				c9.1002-14.8577,23.7509-19.3969,23.7509-34.0358c0-7.4331-5.5864-13.4658-12.4697-13.4658c-4.9928,0-9.29,3.1836-11.2811,7.7639
				C1428.7493,150.3035,1424.452,147.1199,1419.4592,147.1199z"/>
		</g>
	</g>
</g>
<g>
	<g>
		<title>Layer 1</title>
		<g id="layer1_64_">
			<path id="path7_64_" fill="#FF0000" stroke="#FF0000" stroke-width="0.5394" d="M371.4592,642.7866
				c-6.8832,0-12.4697,6.0327-12.4697,13.4658c0,15.1216,14.1253,19.0864,23.7508,34.0358
				c9.1002-14.8577,23.7508-19.3969,23.7508-34.0358c0-7.4331-5.5864-13.4658-12.4697-13.4658
				c-4.9928,0-9.2901,3.1836-11.2811,7.7639C380.7493,645.9702,376.4521,642.7866,371.4592,642.7866z"/>
		</g>
	</g>
</g>
<g>
	<g>
		<title>Layer 1</title>
		<g id="layer1_67_">
			<path id="path7_67_" fill="#FF0000" stroke="#FF0000" stroke-width="0.5394" d="M130.1259,526.7866
				c-6.8833,0-12.4697,6.0327-12.4697,13.4658c0,15.1216,14.1253,19.0864,23.7508,34.0358
				c9.1002-14.8577,23.7508-19.3969,23.7508-34.0358c0-7.4331-5.5864-13.4658-12.4697-13.4658
				c-4.9928,0-9.2901,3.1836-11.2812,7.7639C139.416,529.9702,135.1187,526.7866,130.1259,526.7866z"/>
		</g>
	</g>
</g>
<g>
	<g>
		<title>Layer 1</title>
		<g id="layer1_68_">
			<path id="path7_68_" fill="#FF0000" stroke="#FF0000" stroke-width="0.5394" d="M55.4592,522.7866
				c-6.8833,0-12.4697,6.0327-12.4697,13.4658c0,15.1216,14.1253,19.0864,23.7508,34.0358
				c9.1002-14.8577,23.7508-19.3969,23.7508-34.0358c0-7.4331-5.5864-13.4658-12.4697-13.4658
				c-4.9928,0-9.2901,3.1836-11.2811,7.7639C64.7493,525.9702,60.4521,522.7866,55.4592,522.7866z"/>
		</g>
	</g>
</g>
<g>
	<g>
		<title>Layer 1</title>
		<g id="layer1_65_">
			<path id="path7_65_" fill="#FF0000" stroke="#FF0000" stroke-width="0.5394" d="M321.4592,666.1199
				c-6.8832,0-12.4697,6.0327-12.4697,13.4658c0,15.1216,14.1253,19.0864,23.7508,34.0358
				c9.1002-14.8577,23.7508-19.3969,23.7508-34.0358c0-7.4332-5.5864-13.4658-12.4697-13.4658
				c-4.9928,0-9.2901,3.1836-11.2811,7.7639C330.7493,669.3035,326.4521,666.1199,321.4592,666.1199z"/>
		</g>
	</g>
</g>
<g>
	<g>
		<title>Layer 1</title>
		<g id="layer1_66_">
			<path id="path7_66_" fill="#FF0000" stroke="#FF0000" stroke-width="0.5394" d="M252.7925,639.4532
				c-6.8833,0-12.4697,6.0327-12.4697,13.4658c0,15.1216,14.1253,19.0864,23.7508,34.0358
				c9.1002-14.8577,23.7508-19.3969,23.7508-34.0358c0-7.4331-5.5864-13.4658-12.4697-13.4658
				c-4.9928,0-9.2901,3.1836-11.2812,7.7639C262.0826,642.6368,257.7854,639.4532,252.7925,639.4532z"/>
		</g>
	</g>
</g>
<g>
	<g>
		<title>Layer 1</title>
		<g id="layer1_69_">
			<path id="path7_69_" fill="#FF0000" stroke="#FF0000" stroke-width="0.5394" d="M72.1259,687.4532
				c-6.8833,0-12.4697,6.0327-12.4697,13.4658c0,15.1216,14.1253,19.0864,23.7508,34.0358
				c9.1002-14.8577,23.7508-19.3969,23.7508-34.0358c0-7.4331-5.5864-13.4658-12.4697-13.4658
				c-4.9928,0-9.2901,3.1836-11.2811,7.7639C81.4159,690.6368,77.1187,687.4532,72.1259,687.4532z"/>
		</g>
	</g>
</g>
<g>
	<g>
		<title>Layer 1</title>
		<g id="layer1_52_">
			<path id="path7_52_" fill="#FF0000" stroke="#FF0000" stroke-width="0.6756" d="M497.9427,43.4533
				c-8.6221,0-15.6198,7.5567-15.6198,16.8676c0,18.9417,17.6937,23.908,29.7508,42.634
				c11.3991-18.6111,29.7508-24.297,29.7508-42.634c0-9.3109-6.9976-16.8676-15.6198-16.8676c-6.2542,0-11.637,3.9878-14.131,9.7252
				C509.5796,47.4411,504.1968,43.4533,497.9427,43.4533z"/>
		</g>
	</g>
</g>
<g>
	<g>
		<title>Layer 1</title>
		<g id="layer1_53_">
			<path id="path7_53_" fill="#FF0000" stroke="#FF0000" stroke-width="0.6756" d="M573.9426,59.4533
				c-8.6221,0-15.6198,7.5567-15.6198,16.8676c0,18.9417,17.6937,23.908,29.7508,42.634
				c11.3991-18.6111,29.7508-24.297,29.7508-42.634c0-9.3109-6.9976-16.8676-15.6198-16.8676c-6.2542,0-11.637,3.9878-14.131,9.7252
				C585.5796,63.4411,580.1968,59.4533,573.9426,59.4533z"/>
		</g>
	</g>
</g>
<g>
	<g>
		<title>Layer 1</title>
		<g id="layer1_54_">
			<path id="path7_54_" fill="#FF0000" stroke="#FF0000" stroke-width="0.6756" d="M311.9427,59.4533
				c-8.6221,0-15.6198,7.5567-15.6198,16.8676c0,18.9417,17.6937,23.908,29.7508,42.634
				c11.3991-18.6111,29.7508-24.297,29.7508-42.634c0-9.3109-6.9977-16.8676-15.6198-16.8676c-6.2542,0-11.637,3.9878-14.131,9.7252
				C323.5796,63.4411,318.1968,59.4533,311.9427,59.4533z"/>
		</g>
	</g>
</g>
<g>
	<g>
		<title>Layer 1</title>
		<g id="layer1_37_">
			<path id="path7_37_" fill="#FF0000" stroke="#FF0000" stroke-width="1.1752" d="M284.0068,558.7072
				c-14.998,0-27.1702,13.1447-27.1702,29.3408c0,32.9486,30.7778,41.5875,51.7508,74.1608
				c19.8285-32.3735,51.7508-42.264,51.7508-74.1608c0-16.1961-12.1722-29.3408-27.1702-29.3408
				c-10.879,0-20.2422,6.9368-24.5806,16.9168C304.249,565.6439,294.8857,558.7072,284.0068,558.7072z"/>
		</g>
	</g>
</g>
<g>
	<g>
		<title>Layer 1</title>
		<g id="layer1_38_">
			<path id="path7_38_" fill="#FF0000" stroke="#FF0000" stroke-width="1.1752" d="M178.7014,466.3737
				c-14.998,0-27.1702,13.1447-27.1702,29.3408c0,32.9486,30.7778,41.5875,51.7508,74.1608
				c19.8284-32.3735,51.7508-42.2641,51.7508-74.1608c0-16.1961-12.1722-29.3408-27.1702-29.3408
				c-10.8789,0-20.2422,6.9368-24.5806,16.9168C198.9436,473.3105,189.5804,466.3737,178.7014,466.3737z"/>
		</g>
	</g>
</g>
<g>
	<g>
		<title>Layer 1</title>
		<g id="layer1_9_">
			<path id="path7_9_" fill="#FF0000" stroke="#FF0000" stroke-width="1.1752" d="M1310.2058,1085.6012
				c-14.1968,0-25.7189,12.4425-25.7189,27.7736c0,31.1886,29.1338,39.3661,48.9865,70.1995
				c18.7694-30.6443,48.9866-40.0065,48.9866-70.1995c0-15.3311-11.522-27.7736-25.7189-27.7736
				c-10.2979,0-19.161,6.5662-23.2677,16.0132C1329.3668,1092.1674,1320.5037,1085.6012,1310.2058,1085.6012z"/>
		</g>
	</g>
</g>
<g>
	<g>
		<title>Layer 1</title>
		<g id="layer1_34_">
			<path id="path7_34_" fill="#FF0000" stroke="#FF0000" stroke-width="1.1752" d="M1330.4515,988.2407
				c-14.1968,0-25.7189,12.4426-25.7189,27.7736c0,31.1887,29.1338,39.3661,48.9865,70.1996
				c18.7694-30.6443,48.9866-40.0066,48.9866-70.1996c0-15.331-11.522-27.7736-25.7189-27.7736
				c-10.2979,0-19.161,6.5663-23.2677,16.0132C1349.6125,994.807,1340.7494,988.2407,1330.4515,988.2407z"/>
		</g>
	</g>
</g>
<g>
	<g>
		<title>Layer 1</title>
		<g id="layer1_33_">
			<path id="path7_33_" fill="#FF0000" stroke="#FF0000" stroke-width="1.1752" d="M1121.6156,1226.9473
				c-14.1968,0-25.7189,12.4426-25.7189,27.7736c0,31.1887,29.1338,39.3661,48.9866,70.1996
				c18.7693-30.6443,48.9865-40.0066,48.9865-70.1996c0-15.3309-11.522-27.7736-25.7189-27.7736
				c-10.2979,0-19.161,6.5663-23.2676,16.0132C1140.7766,1233.5135,1131.9136,1226.9473,1121.6156,1226.9473z"/>
		</g>
	</g>
</g>
<g>
	<g>
		<title>Layer 1</title>
		<g id="layer1_40_">
			<path id="path7_40_" fill="#FF0000" stroke="#FF0000" stroke-width="1.1752" d="M597.637,1207.8923
				c-14.1969,0-25.7189,12.4426-25.7189,27.7736c0,31.1887,29.1338,39.3661,48.9865,70.1996
				c18.7693-30.6443,48.9866-40.0066,48.9866-70.1996c0-15.3309-11.5221-27.7736-25.7189-27.7736
				c-10.2979,0-19.1609,6.5663-23.2676,16.0132C616.798,1214.4586,607.9349,1207.8923,597.637,1207.8923z"/>
		</g>
	</g>
</g>
<g>
	<g>
		<title>Layer 1</title>
		<g id="layer1_8_">
			<path id="path7_8_" fill="#FF0000" stroke="#FF0000" stroke-width="1.1752" d="M72.9012,409.7386
				c-17.2233,0-31.2015,15.095-31.2015,33.6941c0,37.8372,35.3444,47.7579,59.4292,85.1642
				c22.7704-37.1768,59.4292-48.5349,59.4292-85.1642c0-18.5992-13.9783-33.6941-31.2015-33.6941
				c-12.4931,0-23.2456,7.966-28.2276,19.4268C96.1468,417.7046,85.3943,409.7386,72.9012,409.7386z"/>
		</g>
	</g>
</g>
<g>
	<g>
		<title>Layer 1</title>
		<g id="layer1_7_">
			<path id="path7_7_" fill="#FF0000" stroke="#FF0000" stroke-width="1.1752" d="M1379.4523,59.4304
				c-14.1882,0-25.7032,12.435-25.7032,27.7567c0,31.1697,29.1161,39.3421,48.9567,70.1568
				c18.7579-30.6256,48.9568-39.9822,48.9568-70.1568c0-15.3217-11.515-27.7567-25.7034-27.7567
				c-10.2915,0-19.1493,6.5622-23.2534,16.0034C1398.6016,65.9926,1389.7439,59.4304,1379.4523,59.4304z"/>
		</g>
	</g>
</g>
<g>
	<g>
		<title>Layer 1</title>
		<g id="layer1_42_">
			<path id="path7_42_" fill="#FF0000" stroke="#FF0000" stroke-width="1.1752" d="M1330.4956,191.5089
				c-14.1882,0-25.7034,12.435-25.7034,27.7567c0,31.1697,29.1161,39.3421,48.9568,70.1568
				c18.7578-30.6256,48.9567-39.9822,48.9567-70.1568c0-15.3217-11.515-27.7567-25.7032-27.7567
				c-10.2916,0-19.1493,6.5622-23.2534,16.0034C1349.6449,198.0711,1340.7871,191.5089,1330.4956,191.5089z"/>
		</g>
	</g>
</g>
<g>
	<g>
		<title>Layer 1</title>
		<g id="layer1_6_">
			<path id="path7_6_" fill="#FF0000" stroke="#FF0000" stroke-width="1.1752" d="M1575.5146,524.8715
				c-14.1882,0-25.7032,12.435-25.7032,27.7567c0,31.1697,29.1161,39.3421,48.9567,70.1568
				c18.7579-30.6256,48.9568-39.9822,48.9568-70.1568c0-15.3217-11.515-27.7567-25.7032-27.7567
				c-10.2916,0-19.1493,6.5623-23.2535,16.0035C1594.6639,531.4338,1585.8063,524.8715,1575.5146,524.8715z"/>
		</g>
	</g>
</g>
<g>
	<g>
		<title>Layer 1</title>
		<g id="layer1_36_">
			<path id="path7_36_" fill="#FF0000" stroke="#FF0000" stroke-width="1.1752" d="M1655.5854,420.2111
				c-14.1882,0-25.7032,12.435-25.7032,27.7567c0,31.1697,29.116,39.3421,48.9567,70.1568
				c18.7579-30.6256,48.9568-39.9822,48.9568-70.1568c0-15.3217-11.5151-27.7567-25.7034-27.7567
				c-10.2915,0-19.1493,6.5622-23.2534,16.0034C1674.7347,426.7733,1665.8771,420.2111,1655.5854,420.2111z"/>
		</g>
	</g>
</g>
<g>
	<g>
		<title>Layer 1</title>
		<g id="layer1_5_">
			<path id="path7_5_" fill="#FF0000" stroke="#FF0000" stroke-width="1.1752" d="M927.5761,1413.6766
				c-15.4066,0-27.9104,13.5028-27.9104,30.1401c0,33.8462,31.6163,42.7205,53.1606,76.1812
				c20.3687-33.2555,53.1606-43.4155,53.1606-76.1812c0-16.6373-12.5038-30.1401-27.9104-30.1401
				c-11.1753,0-20.7936,7.1257-25.2502,17.3777C948.3698,1420.8024,938.7515,1413.6766,927.5761,1413.6766z"/>
		</g>
	</g>
</g>
<g>
	<g>
		<title>Layer 1</title>
		<g id="layer1_39_">
			<path id="path7_39_" fill="#FF0000" stroke="#FF0000" stroke-width="1.1752" d="M707.6157,1305.8655
				c-15.4066,0-27.9104,13.5027-27.9104,30.14c0,33.8462,31.6163,42.7205,53.1606,76.1812
				c20.3686-33.2554,53.1606-43.4154,53.1606-76.1812c0-16.6373-12.5038-30.14-27.9104-30.14
				c-11.1753,0-20.7936,7.1257-25.2502,17.3776C728.4094,1312.9912,718.791,1305.8655,707.6157,1305.8655z"/>
		</g>
	</g>
</g>
<g>
	<g>
		<title>Layer 1</title>
		<g id="layer1_4_">
			<path id="path7_4_" fill="#FF0000" stroke="#FF0000" stroke-width="1.1752" d="M794.0503,1410.1813
				c-14.3401,0-25.9785,12.5681-25.9785,28.0538c0,31.5034,29.4279,39.7634,49.4809,70.908
				c18.9587-30.9535,49.481-40.4103,49.481-70.908c0-15.4857-11.6384-28.0538-25.9785-28.0538
				c-10.4018,0-19.3543,6.6326-23.5024,16.1748C813.4046,1416.8138,804.4521,1410.1813,794.0503,1410.1813z"/>
		</g>
	</g>
</g>
<g>
	<g>
		<title>Layer 1</title>
		<g id="layer1_3_">
			<path id="path7_3_" fill="#FF0000" stroke="#FF0000" stroke-width="1.1752" d="M650.2956,94.2993
				c-16.2238,0-29.391,14.219-29.391,31.7389c0,35.6416,33.2935,44.9866,55.9807,80.2223
				c21.4491-35.0195,55.9807-45.7185,55.9807-80.2223c0-17.5199-13.1672-31.7389-29.391-31.7389
				c-11.7681,0-21.8967,7.5037-26.5897,18.2995C672.1923,101.8031,662.0637,94.2993,650.2956,94.2993z"/>
		</g>
	</g>
</g>
<g>
	<g>
		<title>Layer 1</title>
		<g id="layer1_2_">
			<path id="path7_2_" fill="#FF0000" stroke="#FF0000" stroke-width="1.1752" d="M77.1888,304.3068
				c-14.6072,0-26.4622,12.8022-26.4622,28.5763c0,32.0901,29.9758,40.5038,50.4023,72.2284
				c19.3118-31.5299,50.4023-41.1628,50.4023-72.2284c0-15.7741-11.8551-28.5763-26.4623-28.5763
				c-10.5955,0-19.7147,6.756-23.9401,16.476C96.9036,311.0628,87.7843,304.3068,77.1888,304.3068z"/>
		</g>
	</g>
</g>
<g>
	<g>
		<title>Layer 1</title>
		<g id="layer1_1_">
			<path id="path7_1_" fill="#FF0000" stroke="#FF0000" stroke-width="1.1752" d="M386.0414,59.4304
				c-14.1882,0-25.7033,12.435-25.7033,27.7567c0,31.1697,29.1161,39.3421,48.9567,70.1568
				c18.7579-30.6256,48.9567-39.9822,48.9567-70.1568c0-15.3217-11.515-27.7567-25.7033-27.7567
				c-10.2916,0-19.1493,6.5622-23.2534,16.0034C405.1908,65.9926,396.333,59.4304,386.0414,59.4304z"/>
		</g>
	</g>
</g>
<path id="path4" display="none" fill="none" stroke="#FF0707" stroke-miterlimit="10" d="M886.4807,274.9212
	C797.2556,126.2127,648.5471,22.1167,470.0968,22.1167c-252.8045,0-446.1255,193.3211-446.1255,446.1255
	c0,490.7381,267.6753,565.0923,862.5095,1130.1848c594.8341-565.0924,862.5094-639.4467,862.5094-1130.1848
	c0-252.8045-193.321-446.1255-446.1255-446.1255C1124.4143,22.1167,975.7058,126.2127,886.4807,274.9212z"/>
<g id="Layer_2">
</g>
</svg>
