<svg xmlns="http://www.w3.org/2000/svg" width="100%" height="100%" opacity=".25"><path d="M740,501L758,580L842,484Z" fill="#f1f1f1" stroke="#f1f1f1" stroke-width="1.51"/><path d="M758,580L853,613L842,484Z" fill="#e8e8e8" stroke="#e8e8e8" stroke-width="1.51"/><path d="M842,484L775,388L740,501Z" fill="#f8f8f8" stroke="#f8f8f8" stroke-width="1.51"/><path d="M938,399L839,403L842,484Z" fill="#f2efed" stroke="#f2efed" stroke-width="1.51"/><path d="M839,403L775,388L842,484Z" fill="#f7f3f1" stroke="#f7f3f1" stroke-width="1.51"/><path d="M853,613L967,470L842,484Z" fill="#e7e7e7" stroke="#e7e7e7" stroke-width="1.51"/><path d="M795,731L867,673L853,613Z" fill="#d5d5d5" stroke="#d5d5d5" stroke-width="1.51"/><path d="M740,501L655,621L758,580Z" fill="#f0f0ef" stroke="#f0f0ef" stroke-width="1.51"/><path d="M670,384L638,477L740,501Z" fill="#fffbf8" stroke="#fffbf8" stroke-width="1.51"/><path d="M638,477L655,621L740,501Z" fill="#f4f0ee" stroke="#f4f0ee" stroke-width="1.51"/><path d="M758,580L795,731L853,613Z" fill="#dddddd" stroke="#dddddd" stroke-width="1.51"/><path d="M867,673L940,633L853,613Z" fill="#d6d6d6" stroke="#d6d6d6" stroke-width="1.51"/><path d="M940,633L967,470L853,613Z" fill="#dedede" stroke="#dedede" stroke-width="1.51"/><path d="M967,470L938,399L842,484Z" fill="#eeeeee" stroke="#eeeeee" stroke-width="1.51"/><path d="M839,403L776,327L775,388Z" fill="#f8ede6" stroke="#f8ede6" stroke-width="1.51"/><path d="M655,621L691,691L758,580Z" fill="#e6e4e3" stroke="#e6e4e3" stroke-width="1.51"/><path d="M775,388L670,384L740,501Z" fill="#fffaf8" stroke="#fffaf8" stroke-width="1.51"/><path d="M691,691L795,731L758,580Z" fill="#dedede" stroke="#dedede" stroke-width="1.51"/><path d="M867,673L958,684L940,633Z" fill="#cfcfcf" stroke="#cfcfcf" stroke-width="1.51"/><path d="M775,388L776,327L670,384Z" fill="#fdf0e9" stroke="#fdf0e9" stroke-width="1.51"/><path d="M883,282L776,327L839,403Z" fill="#f5e5db" stroke="#f5e5db" stroke-width="1.51"/><path d="M940,633L1048,524L967,470Z" fill="#dadada" stroke="#dadada" stroke-width="1.51"/><path d="M848,823L958,684L867,673Z" fill="#c6c6c6" stroke="#c6c6c6" stroke-width="1.51"/><path d="M638,477L569,601L655,621Z" fill="#f0e6e1" stroke="#f0e6e1" stroke-width="1.51"/><path d="M655,621L597,670L691,691Z" fill="#e1dad6" stroke="#e1dad6" stroke-width="1.51"/><path d="M539,523L569,601L638,477Z" fill="#f4e7de" stroke="#f4e7de" stroke-width="1.51"/><path d="M670,384L579,430L638,477Z" fill="#fff3ec" stroke="#fff3ec" stroke-width="1.51"/><path d="M648,326L579,430L670,384Z" fill="#ffece1" stroke="#ffece1" stroke-width="1.51"/><path d="M569,601L597,670L655,621Z" fill="#e6dad4" stroke="#e6dad4" stroke-width="1.51"/><path d="M647,833L800,826L795,731Z" fill="#c3c3c3" stroke="#c3c3c3" stroke-width="1.51"/><path d="M1096,618L1048,524L940,633Z" fill="#cfcfcf" stroke="#cfcfcf" stroke-width="1.51"/><path d="M967,470L1054,429L938,399Z" fill="#e6e4e2" stroke="#e6e4e2" stroke-width="1.51"/><path d="M776,327L648,326L670,384Z" fill="#ffede3" stroke="#ffede3" stroke-width="1.51"/><path d="M579,430L539,523L638,477Z" fill="#fbeee6" stroke="#fbeee6" stroke-width="1.51"/><path d="M938,399L883,282L839,403Z" fill="#f0e4dc" stroke="#f0e4dc" stroke-width="1.51"/><path d="M645,210L577,270L648,326Z" fill="#fdd6c2" stroke="#fdd6c2" stroke-width="1.51"/><path d="M971,265L883,282L938,399Z" fill="#ecd8cd" stroke="#ecd8cd" stroke-width="1.51"/><path d="M1048,524L1054,429L967,470Z" fill="#dfdfdf" stroke="#dfdfdf" stroke-width="1.51"/><path d="M795,731L848,823L867,673Z" fill="#c7c7c7" stroke="#c7c7c7" stroke-width="1.51"/><path d="M647,833L795,731L691,691Z" fill="#cececd" stroke="#cececd" stroke-width="1.51"/><path d="M800,826L848,823L795,731Z" fill="#bebebe" stroke="#bebebe" stroke-width="1.51"/><path d="M539,523L489,521L569,601Z" fill="#f2e0d5" stroke="#f2e0d5" stroke-width="1.51"/><path d="M569,601L483,690L597,670Z" fill="#e2d1c8" stroke="#e2d1c8" stroke-width="1.51"/><path d="M579,430L489,521L539,523Z" fill="#f9e7dd" stroke="#f9e7dd" stroke-width="1.51"/><path d="M485,378L489,521L579,430Z" fill="#fee9dd" stroke="#fee9dd" stroke-width="1.51"/><path d="M958,684L1060,693L940,633Z" fill="#c7c7c7" stroke="#c7c7c7" stroke-width="1.51"/><path d="M1198,488L1161,370L1054,429Z" fill="#d4d1cf" stroke="#d4d1cf" stroke-width="1.51"/><path d="M990,816L1060,693L958,684Z" fill="#bababa" stroke="#bababa" stroke-width="1.51"/><path d="M1060,693L1096,618L940,633Z" fill="#c6c6c6" stroke="#c6c6c6" stroke-width="1.51"/><path d="M883,282L801,185L776,327Z" fill="#f6d6c8" stroke="#f6d6c8" stroke-width="1.51"/><path d="M1065,290L971,265L938,399Z" fill="#e6d2c7" stroke="#e6d2c7" stroke-width="1.51"/><path d="M971,265L891,222L883,282Z" fill="#edccbd" stroke="#edccbd" stroke-width="1.51"/><path d="M597,670L602,794L691,691Z" fill="#d6cec9" stroke="#d6cec9" stroke-width="1.51"/><path d="M483,690L602,794L597,670Z" fill="#d6c7be" stroke="#d6c7be" stroke-width="1.51"/><path d="M602,794L647,833L691,691Z" fill="#cac3bf" stroke="#cac3bf" stroke-width="1.51"/><path d="M648,326L577,270L579,430Z" fill="#fee3d3" stroke="#fee3d3" stroke-width="1.51"/><path d="M645,210L648,326L776,327Z" fill="#fee0d2" stroke="#fee0d2" stroke-width="1.51"/><path d="M891,222L801,185L883,282Z" fill="#f2cbba" stroke="#f2cbba" stroke-width="1.51"/><path d="M848,823L990,816L958,684Z" fill="#b8b8b8" stroke="#b8b8b8" stroke-width="1.51"/><path d="M972,912L990,816L848,823Z" fill="#a5a5a5" stroke="#a5a5a5" stroke-width="1.51"/><path d="M577,270L485,378L579,430Z" fill="#fee0cf" stroke="#fee0cf" stroke-width="1.51"/><path d="M681,905L795,878L800,826Z" fill="#afafaf" stroke="#afafaf" stroke-width="1.51"/><path d="M800,826L795,878L848,823Z" fill="#b2b2b2" stroke="#b2b2b2" stroke-width="1.51"/><path d="M438,625L483,690L569,601Z" fill="#e4cdc1" stroke="#e4cdc1" stroke-width="1.51"/><path d="M438,625L569,601L489,521Z" fill="#edd6ca" stroke="#edd6ca" stroke-width="1.51"/><path d="M801,185L645,210L776,327Z" fill="#fcd7c7" stroke="#fcd7c7" stroke-width="1.51"/><path d="M1054,429L1065,290L938,399Z" fill="#e2d7d1" stroke="#e2d7d1" stroke-width="1.51"/><path d="M971,265L996,170L891,222Z" fill="#e8c0ae" stroke="#e8c0ae" stroke-width="1.51"/><path d="M891,222L837,81L801,185Z" fill="#efbbaa" stroke="#efbbaa" stroke-width="1.51"/><path d="M1161,370L1065,290L1054,429Z" fill="#dacec7" stroke="#dacec7" stroke-width="1.51"/><path d="M395,579L438,625L489,521Z" fill="#eecfc0" stroke="#eecfc0" stroke-width="1.51"/><path d="M795,878L860,907L848,823Z" fill="#a9a9a9" stroke="#a9a9a9" stroke-width="1.51"/><path d="M799,1026L860,907L795,878Z" fill="#999999" stroke="#999999" stroke-width="1.51"/><path d="M1060,693L1149,688L1096,618Z" fill="#bbbbbb" stroke="#bbbbbb" stroke-width="1.51"/><path d="M1096,618L1198,488L1048,524Z" fill="#cccccc" stroke="#cccccc" stroke-width="1.51"/><path d="M1082,812L1149,688L1060,693Z" fill="#afafaf" stroke="#afafaf" stroke-width="1.51"/><path d="M647,833L681,905L800,826Z" fill="#b6b5b5" stroke="#b6b5b5" stroke-width="1.51"/><path d="M573,915L681,905L647,833Z" fill="#aea6a2" stroke="#aea6a2" stroke-width="1.51"/><path d="M573,915L647,833L602,794Z" fill="#b8aea8" stroke="#b8aea8" stroke-width="1.51"/><path d="M1149,688L1183,624L1096,618Z" fill="#b9b9b9" stroke="#b9b9b9" stroke-width="1.51"/><path d="M1198,488L1054,429L1048,524Z" fill="#d6d6d6" stroke="#d6d6d6" stroke-width="1.51"/><path d="M1104,905L1082,812L990,816Z" fill="#9a9a9a" stroke="#9a9a9a" stroke-width="1.51"/><path d="M990,816L1082,812L1060,693Z" fill="#acacac" stroke="#acacac" stroke-width="1.51"/><path d="M1183,624L1198,488L1096,618Z" fill="#c1c1c1" stroke="#c1c1c1" stroke-width="1.51"/><path d="M373,672L456,798L483,690Z" fill="#d5b6a7" stroke="#d5b6a7" stroke-width="1.51"/><path d="M382,515L395,579L489,521Z" fill="#f2d0c1" stroke="#f2d0c1" stroke-width="1.51"/><path d="M1094,197L996,170L1065,290Z" fill="#ddb5a4" stroke="#ddb5a4" stroke-width="1.51"/><path d="M1065,290L996,170L971,265Z" fill="#e2bfaf" stroke="#e2bfaf" stroke-width="1.51"/><path d="M645,210L547,201L577,270Z" fill="#fbc9b1" stroke="#fbc9b1" stroke-width="1.51"/><path d="M577,270L445,267L485,378Z" fill="#fcd0b9" stroke="#fcd0b9" stroke-width="1.51"/><path d="M485,378L382,515L489,521Z" fill="#fcddcf" stroke="#fcddcf" stroke-width="1.51"/><path d="M556,123L547,201L645,210Z" fill="#f8bca3" stroke="#f8bca3" stroke-width="1.51"/><path d="M657,93L645,210L801,185Z" fill="#f9c3b1" stroke="#f9c3b1" stroke-width="1.51"/><path d="M356,366L382,515L485,378Z" fill="#fed5c2" stroke="#fed5c2" stroke-width="1.51"/><path d="M860,907L972,912L848,823Z" fill="#a1a1a1" stroke="#a1a1a1" stroke-width="1.51"/><path d="M879,1027L972,912L860,907Z" fill="#8f8f8f" stroke="#8f8f8f" stroke-width="1.51"/><path d="M483,690L456,798L602,794Z" fill="#ccb8ad" stroke="#ccb8ad" stroke-width="1.51"/><path d="M373,672L483,690L438,625Z" fill="#e0bfb1" stroke="#e0bfb1" stroke-width="1.51"/><path d="M996,170L953,124L891,222Z" fill="#e6b4a3" stroke="#e6b4a3" stroke-width="1.51"/><path d="M479,219L445,267L577,270Z" fill="#fac4a9" stroke="#fac4a9" stroke-width="1.51"/><path d="M547,201L479,219L577,270Z" fill="#fac4a9" stroke="#fac4a9" stroke-width="1.51"/><path d="M996,170L1064,96L953,124Z" fill="#dba293" stroke="#dba293" stroke-width="1.51"/><path d="M1160,265L1094,197L1065,290Z" fill="#d7b6a7" stroke="#d7b6a7" stroke-width="1.51"/><path d="M456,798L573,915L602,794Z" fill="#bbaba2" stroke="#bbaba2" stroke-width="1.51"/><path d="M681,905L691,1001L795,878Z" fill="#a3a3a3" stroke="#a3a3a3" stroke-width="1.51"/><path d="M290,585L373,672L395,579Z" fill="#e7bbaa" stroke="#e7bbaa" stroke-width="1.51"/><path d="M395,579L373,672L438,625Z" fill="#e6c1b1" stroke="#e6c1b1" stroke-width="1.51"/><path d="M1161,370L1160,265L1065,290Z" fill="#d5bfb4" stroke="#d5bfb4" stroke-width="1.51"/><path d="M1274,286L1160,265L1161,370Z" fill="#cab5a9" stroke="#cab5a9" stroke-width="1.51"/><path d="M953,124L837,81L891,222Z" fill="#e8b1a1" stroke="#e8b1a1" stroke-width="1.51"/><path d="M547,201L556,123L479,219Z" fill="#f7b79c" stroke="#f7b79c" stroke-width="1.51"/><path d="M792,69L657,93L801,185Z" fill="#f3b6a6" stroke="#f3b6a6" stroke-width="1.51"/><path d="M837,81L792,69L801,185Z" fill="#eeafa1" stroke="#eeafa1" stroke-width="1.51"/><path d="M1082,812L1191,776L1149,688Z" fill="#a3a3a3" stroke="#a3a3a3" stroke-width="1.51"/><path d="M1258,730L1289,626L1183,624Z" fill="#a8a8a8" stroke="#a8a8a8" stroke-width="1.51"/><path d="M1183,624L1266,531L1198,488Z" fill="#bcbcbc" stroke="#bcbcbc" stroke-width="1.51"/><path d="M1152,918L1191,776L1082,812Z" fill="#929292" stroke="#929292" stroke-width="1.51"/><path d="M1289,626L1266,531L1183,624Z" fill="#b2b2b2" stroke="#b2b2b2" stroke-width="1.51"/><path d="M1198,488L1246,389L1161,370Z" fill="#cac5c3" stroke="#cac5c3" stroke-width="1.51"/><path d="M1266,531L1246,389L1198,488Z" fill="#c3c3c3" stroke="#c3c3c3" stroke-width="1.51"/><path d="M382,279L485,378L445,267Z" fill="#fbc7ad" stroke="#fbc7ad" stroke-width="1.51"/><path d="M382,279L356,366L485,378Z" fill="#fbc9b0" stroke="#fbc9b0" stroke-width="1.51"/><path d="M382,515L290,585L395,579Z" fill="#efc4b2" stroke="#efc4b2" stroke-width="1.51"/><path d="M657,93L556,123L645,210Z" fill="#f5b5a0" stroke="#f5b5a0" stroke-width="1.51"/><path d="M340,180L382,279L445,267Z" fill="#f7b191" stroke="#f7b191" stroke-width="1.51"/><path d="M573,915L691,1001L681,905Z" fill="#a09996" stroke="#a09996" stroke-width="1.51"/><path d="M972,912L1104,905L990,816Z" fill="#969696" stroke="#969696" stroke-width="1.51"/><path d="M1096,993L1104,905L972,912Z" fill="#838383" stroke="#838383" stroke-width="1.51"/><path d="M340,180L445,267L479,219Z" fill="#f7b292" stroke="#f7b292" stroke-width="1.51"/><path d="M691,1001L799,1026L795,878Z" fill="#969696" stroke="#969696" stroke-width="1.51"/><path d="M573,915L561,1002L691,1001Z" fill="#988e88" stroke="#988e88" stroke-width="1.51"/><path d="M456,798L493,924L573,915Z" fill="#af9b90" stroke="#af9b90" stroke-width="1.51"/><path d="M374,827L493,924L456,798Z" fill="#b6998b" stroke="#b6998b" stroke-width="1.51"/><path d="M1160,265L1190,223L1094,197Z" fill="#d0ab9a" stroke="#d0ab9a" stroke-width="1.51"/><path d="M1094,197L1064,96L996,170Z" fill="#d9a595" stroke="#d9a595" stroke-width="1.51"/><path d="M1274,286L1190,223L1160,265Z" fill="#c9a99b" stroke="#c9a99b" stroke-width="1.51"/><path d="M254,406L299,510L356,366Z" fill="#fac4b1" stroke="#fac4b1" stroke-width="1.51"/><path d="M356,366L299,510L382,515Z" fill="#fbcebc" stroke="#fbcebc" stroke-width="1.51"/><path d="M1393,322L1274,286L1246,389Z" fill="#baaaa0" stroke="#baaaa0" stroke-width="1.51"/><path d="M1258,730L1183,624L1149,688Z" fill="#ababab" stroke="#ababab" stroke-width="1.51"/><path d="M1191,776L1258,730L1149,688Z" fill="#a1a1a1" stroke="#a1a1a1" stroke-width="1.51"/><path d="M1274,779L1258,730L1191,776Z" fill="#949494" stroke="#949494" stroke-width="1.51"/><path d="M799,1026L879,1027L860,907Z" fill="#8a8a8a" stroke="#8a8a8a" stroke-width="1.51"/><path d="M953,124L849,-9L837,81Z" fill="#e29e92" stroke="#e29e92" stroke-width="1.51"/><path d="M837,81L849,-9L792,69Z" fill="#e49e93" stroke="#e49e93" stroke-width="1.51"/><path d="M1156,121L1064,96L1094,197Z" fill="#d09a8b" stroke="#d09a8b" stroke-width="1.51"/><path d="M299,510L290,585L382,515Z" fill="#f0c1af" stroke="#f0c1af" stroke-width="1.51"/><path d="M373,672L374,827L456,798Z" fill="#caa797" stroke="#caa797" stroke-width="1.51"/><path d="M295,826L374,827L373,672Z" fill="#c79d8b" stroke="#c79d8b" stroke-width="1.51"/><path d="M895,1090L952,1032L879,1027Z" fill="#757575" stroke="#757575" stroke-width="1.51"/><path d="M879,1027L952,1032L972,912Z" fill="#828282" stroke="#828282" stroke-width="1.51"/><path d="M1104,905L1152,918L1082,812Z" fill="#8b8b8b" stroke="#8b8b8b" stroke-width="1.51"/><path d="M1096,993L1152,918L1104,905Z" fill="#7c7c7c" stroke="#7c7c7c" stroke-width="1.51"/><path d="M493,924L561,1002L573,915Z" fill="#9d8e85" stroke="#9d8e85" stroke-width="1.51"/><path d="M773,1124L895,1090L799,1026Z" fill="#7b7b7b" stroke="#7b7b7b" stroke-width="1.51"/><path d="M434,991L561,1002L493,924Z" fill="#978176" stroke="#978176" stroke-width="1.51"/><path d="M1190,223L1156,121L1094,197Z" fill="#ce9f8f" stroke="#ce9f8f" stroke-width="1.51"/><path d="M1246,389L1274,286L1161,370Z" fill="#c7b8b0" stroke="#c7b8b0" stroke-width="1.51"/><path d="M1346,490L1246,389L1266,531Z" fill="#bbbbbb" stroke="#bbbbbb" stroke-width="1.51"/><path d="M1258,730L1375,683L1289,626Z" fill="#9b9b9b" stroke="#9b9b9b" stroke-width="1.51"/><path d="M1285,915L1274,779L1191,776Z" fill="#868686" stroke="#868686" stroke-width="1.51"/><path d="M995,6L849,-9L953,124Z" fill="#d99389" stroke="#d99389" stroke-width="1.51"/><path d="M792,69L685,-6L657,93Z" fill="#eea79b" stroke="#eea79b" stroke-width="1.51"/><path d="M657,93L560,-36L556,123Z" fill="#eb9d8b" stroke="#eb9d8b" stroke-width="1.51"/><path d="M290,585L276,677L373,672Z" fill="#dfb09e" stroke="#dfb09e" stroke-width="1.51"/><path d="M174,705L276,677L134,611Z" fill="#d59789" stroke="#d59789" stroke-width="1.51"/><path d="M1064,96L995,6L953,124Z" fill="#d69488" stroke="#d69488" stroke-width="1.51"/><path d="M1262,167L1156,121L1190,223Z" fill="#c59585" stroke="#c59585" stroke-width="1.51"/><path d="M781,-32L685,-6L792,69Z" fill="#e69b92" stroke="#e69b92" stroke-width="1.51"/><path d="M556,123L469,79L479,219Z" fill="#f2a88e" stroke="#f2a88e" stroke-width="1.51"/><path d="M1396,598L1346,490L1266,531Z" fill="#a9a9a9" stroke="#a9a9a9" stroke-width="1.51"/><path d="M1396,598L1266,531L1289,626Z" fill="#a8a8a8" stroke="#a8a8a8" stroke-width="1.51"/><path d="M1152,918L1285,915L1191,776Z" fill="#808080" stroke="#808080" stroke-width="1.51"/><path d="M952,1032L1096,993L972,912Z" fill="#7e7e7e" stroke="#7e7e7e" stroke-width="1.51"/><path d="M299,510L140,503L290,585Z" fill="#ecb2a3" stroke="#ecb2a3" stroke-width="1.51"/><path d="M234,290L254,406L356,366Z" fill="#f6b59d" stroke="#f6b59d" stroke-width="1.51"/><path d="M560,-36L469,79L556,123Z" fill="#e99581" stroke="#e99581" stroke-width="1.51"/><path d="M382,279L234,290L356,366Z" fill="#f7b69a" stroke="#f7b69a" stroke-width="1.51"/><path d="M1045,15L995,6L1064,96Z" fill="#ce897f" stroke="#ce897f" stroke-width="1.51"/><path d="M742,-72L781,-32L900,-75Z" fill="#d38986" stroke="#d38986" stroke-width="1.51"/><path d="M849,-9L781,-32L792,69Z" fill="#e1978e" stroke="#e1978e" stroke-width="1.51"/><path d="M952,1032L981,1072L1096,993Z" fill="#707070" stroke="#707070" stroke-width="1.51"/><path d="M799,1026L895,1090L879,1027Z" fill="#7a7a7a" stroke="#7a7a7a" stroke-width="1.51"/><path d="M773,1124L799,1026L691,1001Z" fill="#818181" stroke="#818181" stroke-width="1.51"/><path d="M1140,25L1045,15L1064,96Z" fill="#ca867b" stroke="#ca867b" stroke-width="1.51"/><path d="M895,1090L981,1072L952,1032Z" fill="#717171" stroke="#717171" stroke-width="1.51"/><path d="M385,86L340,180L479,219Z" fill="#f09f7f" stroke="#f09f7f" stroke-width="1.51"/><path d="M374,827L359,918L493,924Z" fill="#ac8a7b" stroke="#ac8a7b" stroke-width="1.51"/><path d="M276,677L295,826L373,672Z" fill="#d1a191" stroke="#d1a191" stroke-width="1.51"/><path d="M295,826L359,918L374,827Z" fill="#b28978" stroke="#b28978" stroke-width="1.51"/><path d="M640,1118L773,1124L691,1001Z" fill="#838180" stroke="#838180" stroke-width="1.51"/><path d="M359,918L434,991L493,924Z" fill="#9d7f71" stroke="#9d7f71" stroke-width="1.51"/><path d="M1274,286L1262,167L1190,223Z" fill="#c39d8d" stroke="#c39d8d" stroke-width="1.51"/><path d="M1156,121L1140,25L1064,96Z" fill="#c8887c" stroke="#c8887c" stroke-width="1.51"/><path d="M1378,214L1262,167L1274,286Z" fill="#b89282" stroke="#b89282" stroke-width="1.51"/><path d="M640,1118L691,1001L594,1111Z" fill="#837c78" stroke="#837c78" stroke-width="1.51"/><path d="M895,1090L1046,1108L981,1072Z" fill="#6e6e6e" stroke="#6e6e6e" stroke-width="1.51"/><path d="M1274,779L1375,683L1258,730Z" fill="#919191" stroke="#919191" stroke-width="1.51"/><path d="M1367,834L1375,683L1274,779Z" fill="#858585" stroke="#858585" stroke-width="1.51"/><path d="M1096,993L1188,985L1152,918Z" fill="#717171" stroke="#717171" stroke-width="1.51"/><path d="M1184,1075L1188,985L1096,993Z" fill="#636363" stroke="#636363" stroke-width="1.51"/><path d="M1375,683L1396,598L1289,626Z" fill="#9a9a9a" stroke="#9a9a9a" stroke-width="1.51"/><path d="M1346,490L1400,419L1246,389Z" fill="#b5b3b2" stroke="#b5b3b2" stroke-width="1.51"/><path d="M781,-32L742,-72L685,-6Z" fill="#e1928c" stroke="#e1928c" stroke-width="1.51"/><path d="M685,-6L560,-36L657,93Z" fill="#e7988a" stroke="#e7988a" stroke-width="1.51"/><path d="M900,-75L781,-32L849,-9Z" fill="#d78a84" stroke="#d78a84" stroke-width="1.51"/><path d="M900,-75L849,-9L995,6Z" fill="#d38680" stroke="#d38680" stroke-width="1.51"/><path d="M469,79L385,86L479,219Z" fill="#ef9c80" stroke="#ef9c80" stroke-width="1.51"/><path d="M457,4L385,86L469,79Z" fill="#e58870" stroke="#e58870" stroke-width="1.51"/><path d="M594,1111L691,1001L561,1002Z" fill="#877e78" stroke="#877e78" stroke-width="1.51"/><path d="M957,-81L900,-75L995,6Z" fill="#c97f7a" stroke="#c97f7a" stroke-width="1.51"/><path d="M1268,118L1140,25L1156,121Z" fill="#bf8174" stroke="#bf8174" stroke-width="1.51"/><path d="M286,178L234,290L382,279Z" fill="#f2a485" stroke="#f2a485" stroke-width="1.51"/><path d="M134,611L276,677L290,585Z" fill="#dea395" stroke="#dea395" stroke-width="1.51"/><path d="M286,178L382,279L340,180Z" fill="#f3a280" stroke="#f3a280" stroke-width="1.51"/><path d="M1489,510L1400,419L1346,490Z" fill="#a4a4a4" stroke="#a4a4a4" stroke-width="1.51"/><path d="M957,-81L995,6L1084,-89Z" fill="#c17874" stroke="#c17874" stroke-width="1.51"/><path d="M648,-96L560,-36L685,-6Z" fill="#dd8980" stroke="#dd8980" stroke-width="1.51"/><path d="M481,1075L594,1111L561,1002Z" fill="#82736b" stroke="#82736b" stroke-width="1.51"/><path d="M275,100L286,178L340,180Z" fill="#e98b6d" stroke="#e98b6d" stroke-width="1.51"/><path d="M1245,974L1285,915L1152,918Z" fill="#6e6e6e" stroke="#6e6e6e" stroke-width="1.51"/><path d="M1262,167L1268,118L1156,121Z" fill="#be887a" stroke="#be887a" stroke-width="1.51"/><path d="M1378,214L1268,118L1262,167Z" fill="#b48575" stroke="#b48575" stroke-width="1.51"/><path d="M385,86L275,100L340,180Z" fill="#e8886b" stroke="#e8886b" stroke-width="1.51"/><path d="M560,-36L457,4L469,79Z" fill="#e38774" stroke="#e38774" stroke-width="1.51"/><path d="M1188,985L1245,974L1152,918Z" fill="#6c6c6c" stroke="#6c6c6c" stroke-width="1.51"/><path d="M981,1072L1046,1108L1096,993Z" fill="#686868" stroke="#686868" stroke-width="1.51"/><path d="M773,1124L1046,1108L895,1090Z" fill="#757575" stroke="#757575" stroke-width="1.51"/><path d="M434,991L481,1075L561,1002Z" fill="#8a756a" stroke="#8a756a" stroke-width="1.51"/><path d="M384,1099L481,1075L434,991Z" fill="#816558" stroke="#816558" stroke-width="1.51"/><path d="M1400,419L1393,322L1246,389Z" fill="#b3a8a3" stroke="#b3a8a3" stroke-width="1.51"/><path d="M1184,1075L1245,974L1188,985Z" fill="#5e5e5e" stroke="#5e5e5e" stroke-width="1.51"/><path d="M900,-75L648,-96L742,-72Z" fill="#cf8a87" stroke="#cf8a87" stroke-width="1.51"/><path d="M1084,-89L995,6L1045,15Z" fill="#c67b74" stroke="#c67b74" stroke-width="1.51"/><path d="M742,-72L648,-96L685,-6Z" fill="#da8e88" stroke="#da8e88" stroke-width="1.51"/><path d="M560,-36L487,-78L457,4Z" fill="#db7c6e" stroke="#db7c6e" stroke-width="1.51"/><path d="M957,-81L648,-96L900,-75Z" fill="#c88481" stroke="#c88481" stroke-width="1.51"/><path d="M1368,875L1367,834L1285,915Z" fill="#6b6b6b" stroke="#6b6b6b" stroke-width="1.51"/><path d="M1285,915L1367,834L1274,779Z" fill="#787878" stroke="#787878" stroke-width="1.51"/><path d="M1474,687L1451,573L1396,598Z" fill="#8d8d8d" stroke="#8d8d8d" stroke-width="1.51"/><path d="M276,677L174,705L295,826Z" fill="#ca9384" stroke="#ca9384" stroke-width="1.51"/><path d="M295,826L281,926L359,918Z" fill="#a77b6b" stroke="#a77b6b" stroke-width="1.51"/><path d="M359,918L338,1014L434,991Z" fill="#947161" stroke="#947161" stroke-width="1.51"/><path d="M140,503L299,510L254,406Z" fill="#f3b8a8" stroke="#f3b8a8" stroke-width="1.51"/><path d="M165,891L281,926L295,826Z" fill="#a67264" stroke="#a67264" stroke-width="1.51"/><path d="M1396,598L1451,573L1346,490Z" fill="#9d9d9d" stroke="#9d9d9d" stroke-width="1.51"/><path d="M1505,389L1470,290L1393,322Z" fill="#9f9087" stroke="#9f9087" stroke-width="1.51"/><path d="M1474,687L1396,598L1375,683Z" fill="#8b8b8b" stroke="#8b8b8b" stroke-width="1.51"/><path d="M144,425L140,503L254,406Z" fill="#f3afa1" stroke="#f3afa1" stroke-width="1.51"/><path d="M388,-118L369,28L457,4Z" fill="#d86f5d" stroke="#d86f5d" stroke-width="1.51"/><path d="M457,4L369,28L385,86Z" fill="#e17f68" stroke="#e17f68" stroke-width="1.51"/><path d="M1393,322L1378,214L1274,286Z" fill="#b19589" stroke="#b19589" stroke-width="1.51"/><path d="M1470,290L1378,214L1393,322Z" fill="#a68b7e" stroke="#a68b7e" stroke-width="1.51"/><path d="M176,302L234,290L184,207Z" fill="#ec947a" stroke="#ec947a" stroke-width="1.51"/><path d="M176,302L254,406L234,290Z" fill="#f1a790" stroke="#f1a790" stroke-width="1.51"/><path d="M176,302L144,425L254,406Z" fill="#f1a894" stroke="#f1a894" stroke-width="1.51"/><path d="M184,207L234,290L286,178Z" fill="#ec9274" stroke="#ec9274" stroke-width="1.51"/><path d="M1499,779L1474,687L1375,683Z" fill="#7c7c7c" stroke="#7c7c7c" stroke-width="1.51"/><path d="M1364,981L1368,875L1285,915Z" fill="#606060" stroke="#606060" stroke-width="1.51"/><path d="M281,926L338,1014L359,918Z" fill="#986e5f" stroke="#986e5f" stroke-width="1.51"/><path d="M95,680L134,611L59,605Z" fill="#d28c82" stroke="#d28c82" stroke-width="1.51"/><path d="M140,503L134,611L290,585Z" fill="#e4a496" stroke="#e4a496" stroke-width="1.51"/><path d="M1046,1108L1184,1075L1096,993Z" fill="#616161" stroke="#616161" stroke-width="1.51"/><path d="M1245,974L1364,981L1285,915Z" fill="#5f5f5f" stroke="#5f5f5f" stroke-width="1.51"/><path d="M369,28L275,100L385,86Z" fill="#e27d62" stroke="#e27d62" stroke-width="1.51"/><path d="M1140,25L1084,-89L1045,15Z" fill="#c17771" stroke="#c17771" stroke-width="1.51"/><path d="M957,-81L1084,-89L648,-96Z" fill="#c17f7d" stroke="#c17f7d" stroke-width="1.51"/><path d="M1176,-94L1084,-89L1140,25Z" fill="#b26b67" stroke="#b26b67" stroke-width="1.51"/><path d="M1303,4L1140,25L1268,118Z" fill="#b37167" stroke="#b37167" stroke-width="1.51"/><path d="M245,-1L182,81L275,100Z" fill="#d76551" stroke="#d76551" stroke-width="1.51"/><path d="M538,-106L487,-78L560,-36Z" fill="#d07b70" stroke="#d07b70" stroke-width="1.51"/><path d="M1253,-112L538,-106L648,-96Z" fill="#c28382" stroke="#c28382" stroke-width="1.51"/><path d="M648,-96L538,-106L560,-36Z" fill="#cf8178" stroke="#cf8178" stroke-width="1.51"/><path d="M1451,573L1489,510L1346,490Z" fill="#9b9b9b" stroke="#9b9b9b" stroke-width="1.51"/><path d="M1545,617L1489,510L1451,573Z" fill="#8b8b8b" stroke="#8b8b8b" stroke-width="1.51"/><path d="M275,100L184,207L286,178Z" fill="#e68467" stroke="#e68467" stroke-width="1.51"/><path d="M41,390L53,489L144,425Z" fill="#ea9f94" stroke="#ea9f94" stroke-width="1.51"/><path d="M1499,779L1375,683L1367,834Z" fill="#787878" stroke="#787878" stroke-width="1.51"/><path d="M338,1014L384,1099L434,991Z" fill="#856354" stroke="#856354" stroke-width="1.51"/><path d="M481,1075L384,1099L594,1111Z" fill="#816c61" stroke="#816c61" stroke-width="1.51"/><path d="M594,1111L384,1099L640,1118Z" fill="#82736a" stroke="#82736a" stroke-width="1.51"/><path d="M252,1072L384,1099L338,1014Z" fill="#7d5646" stroke="#7d5646" stroke-width="1.51"/><path d="M281,926L262,1002L338,1014Z" fill="#8e6153" stroke="#8e6153" stroke-width="1.51"/><path d="M174,705L136,773L295,826Z" fill="#c08477" stroke="#c08477" stroke-width="1.51"/><path d="M95,680L136,773L174,705Z" fill="#c58378" stroke="#c58378" stroke-width="1.51"/><path d="M165,891L262,1002L281,926Z" fill="#956254" stroke="#956254" stroke-width="1.51"/><path d="M1400,83L1303,4L1268,118Z" fill="#a7685d" stroke="#a7685d" stroke-width="1.51"/><path d="M1505,389L1393,322L1400,419Z" fill="#a49994" stroke="#a49994" stroke-width="1.51"/><path d="M134,611L95,680L174,705Z" fill="#d08d81" stroke="#d08d81" stroke-width="1.51"/><path d="M59,605L134,611L140,503Z" fill="#dd978c" stroke="#dd978c" stroke-width="1.51"/><path d="M59,605L140,503L53,489Z" fill="#e0988e" stroke="#e0988e" stroke-width="1.51"/><path d="M1489,510L1505,389L1400,419Z" fill="#9e9d9c" stroke="#9e9d9c" stroke-width="1.51"/><path d="M1573,413L1505,389L1489,510Z" fill="#949291" stroke="#949291" stroke-width="1.51"/><path d="M1495,897L1499,779L1367,834Z" fill="#626262" stroke="#626262" stroke-width="1.51"/><path d="M1247,1106L1364,981L1245,974Z" fill="#525252" stroke="#525252" stroke-width="1.51"/><path d="M136,773L165,891L295,826Z" fill="#b07669" stroke="#b07669" stroke-width="1.51"/><path d="M71,815L165,891L136,773Z" fill="#ac6b61" stroke="#ac6b61" stroke-width="1.51"/><path d="M1400,83L1268,118L1378,214Z" fill="#a97667" stroke="#a97667" stroke-width="1.51"/><path d="M1303,4L1176,-94L1140,25Z" fill="#af6660" stroke="#af6660" stroke-width="1.51"/><path d="M1084,-89L1253,-112L648,-96Z" fill="#b37373" stroke="#b37373" stroke-width="1.51"/><path d="M1184,1075L1247,1106L1245,974Z" fill="#535353" stroke="#535353" stroke-width="1.51"/><path d="M1046,1108L1247,1106L1184,1075Z" fill="#5a5a5a" stroke="#5a5a5a" stroke-width="1.51"/><path d="M1459,1131L1247,1106L1046,1108Z" fill="#4f4f4f" stroke="#4f4f4f" stroke-width="1.51"/><path d="M95,680L71,815L136,773Z" fill="#ba776d" stroke="#ba776d" stroke-width="1.51"/><path d="M53,489L140,503L144,425Z" fill="#eba398" stroke="#eba398" stroke-width="1.51"/><path d="M1495,897L1367,834L1368,875Z" fill="#626262" stroke="#626262" stroke-width="1.51"/><path d="M1474,687L1545,617L1451,573Z" fill="#848484" stroke="#848484" stroke-width="1.51"/><path d="M41,390L144,425L36,332Z" fill="#e79788" stroke="#e79788" stroke-width="1.51"/><path d="M1480,92L1400,83L1378,214Z" fill="#9c685a" stroke="#9c685a" stroke-width="1.51"/><path d="M1498,222L1378,214L1470,290Z" fill="#9f7e70" stroke="#9f7e70" stroke-width="1.51"/><path d="M1545,698L1545,617L1474,687Z" fill="#797979" stroke="#797979" stroke-width="1.51"/><path d="M1559,279L1498,222L1470,290Z" fill="#95796b" stroke="#95796b" stroke-width="1.51"/><path d="M1545,617L1554,518L1489,510Z" fill="#878787" stroke="#878787" stroke-width="1.51"/><path d="M36,332L144,425L176,302Z" fill="#ea9987" stroke="#ea9987" stroke-width="1.51"/><path d="M275,100L182,81L184,207Z" fill="#df745b" stroke="#df745b" stroke-width="1.51"/><path d="M245,-1L275,100L369,28Z" fill="#db6d57" stroke="#db6d57" stroke-width="1.51"/><path d="M245,-1L369,28L274,-127Z" fill="#d05b4c" stroke="#d05b4c" stroke-width="1.51"/><path d="M1559,279L1470,290L1505,389Z" fill="#96847a" stroke="#96847a" stroke-width="1.51"/><path d="M388,-118L457,4L487,-78Z" fill="#d07062" stroke="#d07062" stroke-width="1.51"/><path d="M538,-106L388,-118L487,-78Z" fill="#c46f65" stroke="#c46f65" stroke-width="1.51"/><path d="M1395,-127L388,-118L538,-106Z" fill="#c28484" stroke="#c28484" stroke-width="1.51"/><path d="M1545,617L1655,609L1554,518Z" fill="#7a7a7a" stroke="#7a7a7a" stroke-width="1.51"/><path d="M1499,779L1545,698L1474,687Z" fill="#717171" stroke="#717171" stroke-width="1.51"/><path d="M53,489L-5,604L59,605Z" fill="#d88d85" stroke="#d88d85" stroke-width="1.51"/><path d="M36,332L176,302L79,183Z" fill="#e38570" stroke="#e38570" stroke-width="1.51"/><path d="M178,1038L252,1072L262,1002Z" fill="#7c4a3e" stroke="#7c4a3e" stroke-width="1.51"/><path d="M262,1002L252,1072L338,1014Z" fill="#815547" stroke="#815547" stroke-width="1.51"/><path d="M1480,92L1390,25L1400,83Z" fill="#94584e" stroke="#94584e" stroke-width="1.51"/><path d="M1400,83L1390,25L1303,4Z" fill="#9b5b53" stroke="#9b5b53" stroke-width="1.51"/><path d="M1303,4L1253,-112L1176,-94Z" fill="#9d5a58" stroke="#9d5a58" stroke-width="1.51"/><path d="M165,891L178,1038L262,1002Z" fill="#895347" stroke="#895347" stroke-width="1.51"/><path d="M-15,780L71,815L95,680Z" fill="#b66f68" stroke="#b66f68" stroke-width="1.51"/><path d="M-5,604L95,680L59,605Z" fill="#cf857d" stroke="#cf857d" stroke-width="1.51"/><path d="M1554,518L1573,413L1489,510Z" fill="#8e8e8e" stroke="#8e8e8e" stroke-width="1.51"/><path d="M1681,416L1573,413L1554,518Z" fill="#878787" stroke="#878787" stroke-width="1.51"/><path d="M-69,511L-5,604L53,489Z" fill="#d88a84" stroke="#d88a84" stroke-width="1.51"/><path d="M79,183L176,302L184,207Z" fill="#e4836a" stroke="#e4836a" stroke-width="1.51"/><path d="M1176,-94L1253,-112L1084,-89Z" fill="#9d605f" stroke="#9d605f" stroke-width="1.51"/><path d="M1395,-127L1253,-112L1303,4Z" fill="#8d4e4d" stroke="#8d4e4d" stroke-width="1.51"/><path d="M1499,779L1600,817L1545,698Z" fill="#626262" stroke="#626262" stroke-width="1.51"/><path d="M1364,981L1495,897L1368,875Z" fill="#565656" stroke="#565656" stroke-width="1.51"/><path d="M1496,988L1495,897L1364,981Z" fill="#474747" stroke="#474747" stroke-width="1.51"/><path d="M182,81L79,183L184,207Z" fill="#dd7059" stroke="#dd7059" stroke-width="1.51"/><path d="M65,122L79,183L182,81Z" fill="#d5614f" stroke="#d5614f" stroke-width="1.51"/><path d="M56,914L178,1038L165,891Z" fill="#8c5046" stroke="#8c5046" stroke-width="1.51"/><path d="M1573,413L1559,279L1505,389Z" fill="#90847d" stroke="#90847d" stroke-width="1.51"/><path d="M1498,222L1480,92L1378,214Z" fill="#9b6f5f" stroke="#9b6f5f" stroke-width="1.51"/><path d="M-47,430L53,489L41,390Z" fill="#e5958e" stroke="#e5958e" stroke-width="1.51"/><path d="M1390,25L1395,-127L1303,4Z" fill="#934c48" stroke="#934c48" stroke-width="1.51"/><path d="M1601,186L1480,92L1498,222Z" fill="#8c6051" stroke="#8c6051" stroke-width="1.51"/><path d="M1459,1131L1381,1109L1247,1106Z" fill="#3f3f3f" stroke="#3f3f3f" stroke-width="1.51"/><path d="M1247,1106L1381,1109L1364,981Z" fill="#434343" stroke="#434343" stroke-width="1.51"/><path d="M71,815L56,914L165,891Z" fill="#9d5c53" stroke="#9d5c53" stroke-width="1.51"/><path d="M-42,884L56,914L71,815Z" fill="#98524d" stroke="#98524d" stroke-width="1.51"/><path d="M1381,1109L1496,988L1364,981Z" fill="#3d3d3d" stroke="#3d3d3d" stroke-width="1.51"/><path d="M1495,897L1600,817L1499,779Z" fill="#585858" stroke="#585858" stroke-width="1.51"/><path d="M95,20L65,122L182,81Z" fill="#ce5345" stroke="#ce5345" stroke-width="1.51"/><path d="M-11,176L-32,323L36,332Z" fill="#db7767" stroke="#db7767" stroke-width="1.51"/><path d="M-32,323L-47,430L41,390Z" fill="#df897f" stroke="#df897f" stroke-width="1.51"/><path d="M132,13L182,81L245,-1Z" fill="#cf5446" stroke="#cf5446" stroke-width="1.51"/><path d="M388,-118L274,-127L369,28Z" fill="#c75f50" stroke="#c75f50" stroke-width="1.51"/><path d="M1395,-127L274,-127L388,-118Z" fill="#c28483" stroke="#c28483" stroke-width="1.51"/><path d="M144,-90L132,13L245,-1Z" fill="#c5433d" stroke="#c5433d" stroke-width="1.51"/><path d="M43,1019L169,1093L178,1038Z" fill="#713830" stroke="#713830" stroke-width="1.51"/><path d="M178,1038L169,1093L252,1072Z" fill="#754136" stroke="#754136" stroke-width="1.51"/><path d="M252,1072L169,1093L384,1099Z" fill="#794c3f" stroke="#794c3f" stroke-width="1.51"/><path d="M384,1099L34,1125L640,1118Z" fill="#7f5a4b" stroke="#7f5a4b" stroke-width="1.51"/><path d="M-45,672L-15,780L95,680Z" fill="#be736d" stroke="#be736d" stroke-width="1.51"/><path d="M-32,323L41,390L36,332Z" fill="#e1897b" stroke="#e1897b" stroke-width="1.51"/><path d="M-5,604L-45,672L95,680Z" fill="#c87d76" stroke="#c87d76" stroke-width="1.51"/><path d="M1569,918L1600,817L1495,897Z" fill="#494949" stroke="#494949" stroke-width="1.51"/><path d="M1545,698L1655,609L1545,617Z" fill="#737373" stroke="#737373" stroke-width="1.51"/><path d="M-115,598L-45,672L-5,604Z" fill="#c07976" stroke="#c07976" stroke-width="1.51"/><path d="M-11,176L36,332L79,183Z" fill="#da725e" stroke="#da725e" stroke-width="1.51"/><path d="M1660,705L1655,609L1545,698Z" fill="#686868" stroke="#686868" stroke-width="1.51"/><path d="M1673,209L1601,186L1559,279Z" fill="#826051" stroke="#826051" stroke-width="1.51"/><path d="M1480,92L1456,-27L1390,25Z" fill="#8c4d45" stroke="#8c4d45" stroke-width="1.51"/><path d="M1556,24L1456,-27L1480,92Z" fill="#83453d" stroke="#83453d" stroke-width="1.51"/><path d="M1584,1008L1569,918L1496,988Z" fill="#353535" stroke="#353535" stroke-width="1.51"/><path d="M1496,988L1569,918L1495,897Z" fill="#424242" stroke="#424242" stroke-width="1.51"/><path d="M-115,598L-69,511L-155,512Z" fill="#bf7f7f" stroke="#bf7f7f" stroke-width="1.51"/><path d="M-47,430L-69,511L53,489Z" fill="#dc8f8a" stroke="#dc8f8a" stroke-width="1.51"/><path d="M65,122L-11,176L79,183Z" fill="#d36050" stroke="#d36050" stroke-width="1.51"/><path d="M132,13L95,20L182,81Z" fill="#cb4d42" stroke="#cb4d42" stroke-width="1.51"/><path d="M144,-90L95,20L132,13Z" fill="#c23c39" stroke="#c23c39" stroke-width="1.51"/><path d="M1681,416L1559,279L1573,413Z" fill="#867c76" stroke="#867c76" stroke-width="1.51"/><path d="M1559,279L1601,186L1498,222Z" fill="#8c6b5c" stroke="#8c6b5c" stroke-width="1.51"/><path d="M1691,784L1660,705L1600,817Z" fill="#555555" stroke="#555555" stroke-width="1.51"/><path d="M1600,817L1660,705L1545,698Z" fill="#5f5f5f" stroke="#5f5f5f" stroke-width="1.51"/><path d="M-23,105L-11,176L65,122Z" fill="#cc5347" stroke="#cc5347" stroke-width="1.51"/><path d="M-142,426L-69,511L-47,430Z" fill="#d08c8a" stroke="#d08c8a" stroke-width="1.51"/><path d="M1253,-112L1395,-127L538,-106Z" fill="#a66b6b" stroke="#a66b6b" stroke-width="1.51"/><path d="M1456,-27L1395,-127L1390,25Z" fill="#874340" stroke="#874340" stroke-width="1.51"/><path d="M1503,-106L1395,-127L1456,-27Z" fill="#723838" stroke="#723838" stroke-width="1.51"/><path d="M1693,529L1554,518L1655,609Z" fill="#777777" stroke="#777777" stroke-width="1.51"/><path d="M1693,529L1681,416L1554,518Z" fill="#7e7e7e" stroke="#7e7e7e" stroke-width="1.51"/><path d="M773,1124L1459,1131L1046,1108Z" fill="#636363" stroke="#636363" stroke-width="1.51"/><path d="M1381,1109L1459,1131L1496,988Z" fill="#323232" stroke="#323232" stroke-width="1.51"/><path d="M1660,705L1693,529L1655,609Z" fill="#6f6f6f" stroke="#6f6f6f" stroke-width="1.51"/><path d="M56,914L43,1019L178,1038Z" fill="#7d4039" stroke="#7d4039" stroke-width="1.51"/><path d="M-42,884L43,1019L56,914Z" fill="#85423d" stroke="#85423d" stroke-width="1.51"/><path d="M-42,884L71,815L-15,780Z" fill="#a25a55" stroke="#a25a55" stroke-width="1.51"/><path d="M95,20L-23,105L65,122Z" fill="#c94940" stroke="#c94940" stroke-width="1.51"/><path d="M274,-127L144,-90L245,-1Z" fill="#bc4740" stroke="#bc4740" stroke-width="1.51"/><path d="M1601,186L1571,68L1480,92Z" fill="#835043" stroke="#835043" stroke-width="1.51"/><path d="M1705,127L1571,68L1601,186Z" fill="#77473b" stroke="#77473b" stroke-width="1.51"/><path d="M-131,697L-15,780L-45,672Z" fill="#ad6a67" stroke="#ad6a67" stroke-width="1.51"/><path d="M-166,797L-42,884L-15,780Z" fill="#945453" stroke="#945453" stroke-width="1.51"/><path d="M1571,68L1556,24L1480,92Z" fill="#80463c" stroke="#80463c" stroke-width="1.51"/><path d="M-69,511L-115,598L-5,604Z" fill="#c7817d" stroke="#c7817d" stroke-width="1.51"/><path d="M-142,426L-47,430L-32,323Z" fill="#d1857f" stroke="#d1857f" stroke-width="1.51"/><path d="M1546,1088L1584,1008L1496,988Z" fill="#2b2b2b" stroke="#2b2b2b" stroke-width="1.51"/><path d="M1688,921L1691,784L1600,817Z" fill="#474747" stroke="#474747" stroke-width="1.51"/><path d="M-163,326L-142,426L-32,323Z" fill="#c67d76" stroke="#c67d76" stroke-width="1.51"/><path d="M-51,-9L-23,105L95,20Z" fill="#bf3636" stroke="#bf3636" stroke-width="1.51"/><path d="M1660,705L1691,784L1693,529Z" fill="#676767" stroke="#676767" stroke-width="1.51"/><path d="M1688,921L1600,817L1569,918Z" fill="#3e3e3e" stroke="#3e3e3e" stroke-width="1.51"/><path d="M1571,68L1671,-25L1556,24Z" fill="#70332e" stroke="#70332e" stroke-width="1.51"/><path d="M1710,291L1673,209L1559,279Z" fill="#816558" stroke="#816558" stroke-width="1.51"/><path d="M1710,291L1559,279L1681,416Z" fill="#82736a" stroke="#82736a" stroke-width="1.51"/><path d="M1584,1008L1688,921L1569,918Z" fill="#313131" stroke="#313131" stroke-width="1.51"/><path d="M1459,1131L1546,1088L1496,988Z" fill="#2b2b2b" stroke="#2b2b2b" stroke-width="1.51"/><path d="M-115,598L-131,697L-45,672Z" fill="#b17170" stroke="#b17170" stroke-width="1.51"/><path d="M1693,529L1710,291L1681,416Z" fill="#837e7b" stroke="#837e7b" stroke-width="1.51"/><path d="M1710,974L1710,291L1693,529Z" fill="#717171" stroke="#717171" stroke-width="1.51"/><path d="M-163,326L-32,323L-155,174Z" fill="#c16c61" stroke="#c16c61" stroke-width="1.51"/><path d="M-115,598L-155,512L-131,697Z" fill="#b17576" stroke="#b17576" stroke-width="1.51"/><path d="M1568,-124L1503,-106L1556,24Z" fill="#692c2d" stroke="#692c2d" stroke-width="1.51"/><path d="M1556,24L1503,-106L1456,-27Z" fill="#783533" stroke="#783533" stroke-width="1.51"/><path d="M-142,426L-155,512L-69,511Z" fill="#c48584" stroke="#c48584" stroke-width="1.51"/><path d="M-56,1116L34,1125L43,1019Z" fill="#652524" stroke="#652524" stroke-width="1.51"/><path d="M43,1019L34,1125L169,1093Z" fill="#6c302a" stroke="#6c302a" stroke-width="1.51"/><path d="M169,1093L34,1125L384,1099Z" fill="#754036" stroke="#754036" stroke-width="1.51"/><path d="M640,1118L34,1125L773,1124Z" fill="#816b60" stroke="#816b60" stroke-width="1.51"/><path d="M773,1124L34,1125L1459,1131Z" fill="#808080" stroke="#808080" stroke-width="1.51"/><path d="M-67,1025L43,1019L-42,884Z" fill="#753432" stroke="#753432" stroke-width="1.51"/><path d="M1710,974L1688,921L1584,1008Z" fill="#2b2b2b" stroke="#2b2b2b" stroke-width="1.51"/><path d="M1691,784L1710,974L1693,529Z" fill="#575757" stroke="#575757" stroke-width="1.51"/><path d="M-155,174L-32,323L-11,176Z" fill="#c96556" stroke="#c96556" stroke-width="1.51"/><path d="M144,-90L47,-94L95,20Z" fill="#b62f33" stroke="#b62f33" stroke-width="1.51"/><path d="M274,-127L47,-94L144,-90Z" fill="#ac3636" stroke="#ac3636" stroke-width="1.51"/><path d="M-142,426L-163,326L-155,512Z" fill="#bf8281" stroke="#bf8281" stroke-width="1.51"/><path d="M-155,174L-11,176L-23,105Z" fill="#c15147" stroke="#c15147" stroke-width="1.51"/><path d="M1673,209L1705,127L1601,186Z" fill="#7c5244" stroke="#7c5244" stroke-width="1.51"/><path d="M1710,291L1705,127L1673,209Z" fill="#7f5b4b" stroke="#7f5b4b" stroke-width="1.51"/><path d="M-113,984L-67,1025L-42,884Z" fill="#6e3333" stroke="#6e3333" stroke-width="1.51"/><path d="M-131,697L-166,797L-15,780Z" fill="#9c5e5e" stroke="#9c5e5e" stroke-width="1.51"/><path d="M-155,512L-166,797L-131,697Z" fill="#a36a6c" stroke="#a36a6c" stroke-width="1.51"/><path d="M-163,326L-166,797L-155,512Z" fill="#b37a7c" stroke="#b37a7c" stroke-width="1.51"/><path d="M47,-94L-51,-9L95,20Z" fill="#b7252f" stroke="#b7252f" stroke-width="1.51"/><path d="M1671,-25L1568,-124L1556,24Z" fill="#672726" stroke="#672726" stroke-width="1.51"/><path d="M1503,-106L1568,-124L1395,-127Z" fill="#622f31" stroke="#622f31" stroke-width="1.51"/><path d="M1691,1133L1710,974L1584,1008Z" fill="#1d1d1d" stroke="#1d1d1d" stroke-width="1.51"/><path d="M1688,921L1710,974L1691,784Z" fill="#3b3b3b" stroke="#3b3b3b" stroke-width="1.51"/><path d="M-131,72L-155,174L-23,105Z" fill="#b3443e" stroke="#b3443e" stroke-width="1.51"/><path d="M-67,1025L-56,1116L43,1019Z" fill="#612222" stroke="#612222" stroke-width="1.51"/><path d="M-168,902L-113,984L-42,884Z" fill="#723a3a" stroke="#723a3a" stroke-width="1.51"/><path d="M-163,326L-168,902L-166,797Z" fill="#9e686a" stroke="#9e686a" stroke-width="1.51"/><path d="M-166,797L-168,902L-42,884Z" fill="#7e4647" stroke="#7e4647" stroke-width="1.51"/><path d="M-51,-9L-131,72L-23,105Z" fill="#b23435" stroke="#b23435" stroke-width="1.51"/><path d="M1705,127L1671,-25L1571,68Z" fill="#6f372f" stroke="#6f372f" stroke-width="1.51"/><path d="M-51,-9L-158,-27L-131,72Z" fill="#a2232d" stroke="#a2232d" stroke-width="1.51"/><path d="M47,-94L-38,-82L-51,-9Z" fill="#a71529" stroke="#a71529" stroke-width="1.51"/><path d="M-152,-75L-38,-82L47,-94Z" fill="#991027" stroke="#991027" stroke-width="1.51"/><path d="M-163,1072L-67,1025L-113,984Z" fill="#562224" stroke="#562224" stroke-width="1.51"/><path d="M-163,1072L-56,1116L-67,1025Z" fill="#531d1f" stroke="#531d1f" stroke-width="1.51"/><path d="M1671,-25L1646,-120L1568,-124Z" fill="#541d20" stroke="#541d20" stroke-width="1.51"/><path d="M1546,1088L1691,1133L1584,1008Z" fill="#1c1c1c" stroke="#1c1c1c" stroke-width="1.51"/><path d="M1459,1131L1691,1133L1546,1088Z" fill="#222222" stroke="#222222" stroke-width="1.51"/><path d="M34,1125L1691,1133L1459,1131Z" fill="#666666" stroke="#666666" stroke-width="1.51"/><path d="M-168,902L-163,1072L-113,984Z" fill="#5a292c" stroke="#5a292c" stroke-width="1.51"/><path d="M-152,-75L-158,-27L-51,-9Z" fill="#990f28" stroke="#990f28" stroke-width="1.51"/><path d="M-131,72L-158,-27L-155,174Z" fill="#a43335" stroke="#a43335" stroke-width="1.51"/><path d="M-155,174L-158,-27L-163,326Z" fill="#ac4c44" stroke="#ac4c44" stroke-width="1.51"/><path d="M-38,-82L-152,-75L-51,-9Z" fill="#9b1028" stroke="#9b1028" stroke-width="1.51"/><path d="M274,-127L-152,-75L47,-94Z" fill="#a4222d" stroke="#a4222d" stroke-width="1.51"/></svg>